%FSLAX45Y45*%
G04 Gerber Fmt 4.5, Leading zero omitted, Abs format (unit mm)*
G04 Created by KiCad (PCBNEW 5.1.9+dfsg1-1) date 2021-08-01 20:01:58*
%MOMM*%
%LPD*%
G01*
G04 APERTURE LIST*
%TA.AperFunction,Profile*%
%ADD10C,0.050000*%
%TD*%
%ADD11C,0.200000*%
%ADD12C,0.300000*%
G04 APERTURE END LIST*
D10*
X7747000Y-7175500D02*
G75*
G02*
X7874000Y-7048500I127000J0D01*
G01*
X7874000Y-17018000D02*
G75*
G02*
X7747000Y-16891000I0J127000D01*
G01*
X19431000Y-16891000D02*
G75*
G02*
X19304000Y-17018000I-127000J0D01*
G01*
X19304000Y-7048500D02*
G75*
G02*
X19431000Y-7175500I0J-127000D01*
G01*
X7747000Y-16891000D02*
X7747000Y-7175500D01*
X19304000Y-17018000D02*
X7874000Y-17018000D01*
X19431000Y-7175500D02*
X19431000Y-16891000D01*
X7874000Y-7048500D02*
X19304000Y-7048500D01*
D11*
X8616000Y-15347000D02*
X8656000Y-15387000D01*
X8656000Y-15347000D02*
X8616000Y-15387000D01*
X8746200Y-10403500D02*
X8786200Y-10443500D01*
X8786200Y-10403500D02*
X8746200Y-10443500D01*
X8859700Y-11636200D02*
X8899700Y-11676200D01*
X8899700Y-11636200D02*
X8859700Y-11676200D01*
X9035100Y-13276900D02*
X9075100Y-13316900D01*
X9075100Y-13276900D02*
X9035100Y-13316900D01*
X9035100Y-13391200D02*
X9075100Y-13431200D01*
X9075100Y-13391200D02*
X9035100Y-13431200D01*
X9193850Y-14400850D02*
X9233850Y-14440850D01*
X9233850Y-14400850D02*
X9193850Y-14440850D01*
X9249341Y-11014641D02*
X9289341Y-11054641D01*
X9289341Y-11014641D02*
X9249341Y-11054641D01*
X9263700Y-14470700D02*
X9303700Y-14510700D01*
X9303700Y-14470700D02*
X9263700Y-14510700D01*
X9339900Y-9797100D02*
X9379900Y-9837100D01*
X9379900Y-9797100D02*
X9339900Y-9837100D01*
X9527637Y-11774601D02*
X9567637Y-11814601D01*
X9567637Y-11774601D02*
X9527637Y-11814601D01*
X9605246Y-11837663D02*
X9645246Y-11877663D01*
X9645246Y-11837663D02*
X9605246Y-11877663D01*
X9606600Y-11702100D02*
X9646600Y-11742100D01*
X9646600Y-11702100D02*
X9606600Y-11742100D01*
X9720900Y-15385100D02*
X9760900Y-15425100D01*
X9760900Y-15385100D02*
X9720900Y-15425100D01*
X9733600Y-13734100D02*
X9773600Y-13774100D01*
X9773600Y-13734100D02*
X9733600Y-13774100D01*
X9806023Y-14912987D02*
X9846023Y-14952987D01*
X9846023Y-14912987D02*
X9806023Y-14952987D01*
X9962200Y-13721400D02*
X10002200Y-13761400D01*
X10002200Y-13721400D02*
X9962200Y-13761400D01*
X10000300Y-11740200D02*
X10040300Y-11780200D01*
X10040300Y-11740200D02*
X10000300Y-11780200D01*
X10025700Y-14851700D02*
X10065700Y-14891700D01*
X10065700Y-14851700D02*
X10025700Y-14891700D01*
X10076500Y-15385100D02*
X10116500Y-15425100D01*
X10116500Y-15385100D02*
X10076500Y-15425100D01*
X10114600Y-11740200D02*
X10154600Y-11780200D01*
X10154600Y-11740200D02*
X10114600Y-11780200D01*
X10521000Y-16185200D02*
X10561000Y-16225200D01*
X10561000Y-16185200D02*
X10521000Y-16225200D01*
X10521000Y-16426501D02*
X10561000Y-16466501D01*
X10561000Y-16426501D02*
X10521000Y-16466501D01*
X10711500Y-10673400D02*
X10751500Y-10713400D01*
X10751500Y-10673400D02*
X10711500Y-10713400D01*
X10711500Y-11562400D02*
X10751500Y-11602400D01*
X10751500Y-11562400D02*
X10711500Y-11602400D01*
X10851200Y-11930700D02*
X10891200Y-11970700D01*
X10891200Y-11930700D02*
X10851200Y-11970700D01*
X10914700Y-12730800D02*
X10954700Y-12770800D01*
X10954700Y-12730800D02*
X10914700Y-12770800D01*
X10914700Y-12730800D02*
X10954700Y-12770800D01*
X10954700Y-12730800D02*
X10914700Y-12770800D01*
X11333800Y-11918000D02*
X11373800Y-11958000D01*
X11373800Y-11918000D02*
X11333800Y-11958000D01*
X11384600Y-9644700D02*
X11424600Y-9684700D01*
X11424600Y-9644700D02*
X11384600Y-9684700D01*
X11384600Y-10590000D02*
X11424600Y-10630000D01*
X11424600Y-10590000D02*
X11384600Y-10630000D01*
X11486200Y-9720900D02*
X11526200Y-9760900D01*
X11526200Y-9720900D02*
X11486200Y-9760900D01*
X11524300Y-11740200D02*
X11564300Y-11780200D01*
X11564300Y-11740200D02*
X11524300Y-11780200D01*
X11651300Y-10909993D02*
X11691300Y-10949993D01*
X11691300Y-10909993D02*
X11651300Y-10949993D01*
X11689400Y-12680000D02*
X11729400Y-12720000D01*
X11729400Y-12680000D02*
X11689400Y-12720000D01*
X11702100Y-11740200D02*
X11742100Y-11780200D01*
X11742100Y-11740200D02*
X11702100Y-11780200D01*
X11778300Y-12603800D02*
X11818300Y-12643800D01*
X11818300Y-12603800D02*
X11778300Y-12643800D01*
X11867200Y-11740200D02*
X11907200Y-11780200D01*
X11907200Y-11740200D02*
X11867200Y-11780200D01*
X12311700Y-13238800D02*
X12351700Y-13278800D01*
X12351700Y-13238800D02*
X12311700Y-13278800D01*
X12426000Y-13365800D02*
X12466000Y-13405800D01*
X12466000Y-13365800D02*
X12426000Y-13405800D01*
X12565700Y-10468009D02*
X12605700Y-10508009D01*
X12605700Y-10468009D02*
X12565700Y-10508009D01*
X12654600Y-13289600D02*
X12694600Y-13329600D01*
X12694600Y-13289600D02*
X12654600Y-13329600D01*
X12692700Y-9644700D02*
X12732700Y-9684700D01*
X12732700Y-9644700D02*
X12692700Y-9684700D01*
X12730800Y-14305600D02*
X12770800Y-14345600D01*
X12770800Y-14305600D02*
X12730800Y-14345600D01*
X12946700Y-9581200D02*
X12986700Y-9621200D01*
X12986700Y-9581200D02*
X12946700Y-9621200D01*
X13035600Y-11181400D02*
X13075600Y-11221400D01*
X13075600Y-11181400D02*
X13035600Y-11221400D01*
X13556300Y-11918000D02*
X13596300Y-11958000D01*
X13596300Y-11918000D02*
X13556300Y-11958000D01*
X13607100Y-11105200D02*
X13647100Y-11145200D01*
X13647100Y-11105200D02*
X13607100Y-11145200D01*
X13683300Y-11029000D02*
X13723300Y-11069000D01*
X13723300Y-11029000D02*
X13683300Y-11069000D01*
X13696000Y-11918000D02*
X13736000Y-11958000D01*
X13736000Y-11918000D02*
X13696000Y-11958000D01*
X13797600Y-11029000D02*
X13837600Y-11069000D01*
X13837600Y-11029000D02*
X13797600Y-11069000D01*
X14325115Y-11150115D02*
X14365115Y-11190115D01*
X14365115Y-11150115D02*
X14325115Y-11190115D01*
X14331000Y-13340400D02*
X14371000Y-13380400D01*
X14371000Y-13340400D02*
X14331000Y-13380400D01*
X14372346Y-11238259D02*
X14412346Y-11278259D01*
X14412346Y-11238259D02*
X14372346Y-11278259D01*
X14432600Y-13759500D02*
X14472600Y-13799500D01*
X14472600Y-13759500D02*
X14432600Y-13799500D01*
X14483400Y-10432100D02*
X14523400Y-10472100D01*
X14523400Y-10432100D02*
X14483400Y-10472100D01*
X14531334Y-13289600D02*
X14571334Y-13329600D01*
X14571334Y-13289600D02*
X14531334Y-13329600D01*
X14534200Y-9987600D02*
X14574200Y-10027600D01*
X14574200Y-9987600D02*
X14534200Y-10027600D01*
X14572300Y-11029000D02*
X14612300Y-11069000D01*
X14612300Y-11029000D02*
X14572300Y-11069000D01*
X14572300Y-11587800D02*
X14612300Y-11627800D01*
X14612300Y-11587800D02*
X14572300Y-11627800D01*
X14585000Y-9581200D02*
X14625000Y-9621200D01*
X14625000Y-9581200D02*
X14585000Y-9621200D01*
X14603834Y-13130135D02*
X14643834Y-13170135D01*
X14643834Y-13130135D02*
X14603834Y-13170135D01*
X14604515Y-11123785D02*
X14644515Y-11163785D01*
X14644515Y-11123785D02*
X14604515Y-11163785D01*
X14638398Y-12819700D02*
X14678398Y-12859700D01*
X14678398Y-12819700D02*
X14638398Y-12859700D01*
X14648500Y-11486200D02*
X14688500Y-11526200D01*
X14688500Y-11486200D02*
X14648500Y-11526200D01*
X14683399Y-12984800D02*
X14723399Y-13024800D01*
X14723399Y-12984800D02*
X14683399Y-13024800D01*
X14699300Y-7688900D02*
X14739300Y-7728900D01*
X14739300Y-7688900D02*
X14699300Y-7728900D01*
X14737400Y-15905800D02*
X14777400Y-15945800D01*
X14777400Y-15905800D02*
X14737400Y-15945800D01*
X14750100Y-10902000D02*
X14790100Y-10942000D01*
X14790100Y-10902000D02*
X14750100Y-10942000D01*
X14769150Y-8457250D02*
X14809150Y-8497250D01*
X14809150Y-8457250D02*
X14769150Y-8497250D01*
X14819950Y-8660450D02*
X14859950Y-8700450D01*
X14859950Y-8660450D02*
X14819950Y-8700450D01*
X14826300Y-11587800D02*
X14866300Y-11627800D01*
X14866300Y-11587800D02*
X14826300Y-11627800D01*
X14870750Y-8863650D02*
X14910750Y-8903650D01*
X14910750Y-8863650D02*
X14870750Y-8903650D01*
X14877100Y-7561900D02*
X14917100Y-7601900D01*
X14917100Y-7561900D02*
X14877100Y-7601900D01*
X14915200Y-9035100D02*
X14955200Y-9075100D01*
X14955200Y-9035100D02*
X14915200Y-9075100D01*
X14991400Y-12578400D02*
X15031400Y-12618400D01*
X15031400Y-12578400D02*
X14991400Y-12618400D01*
X15283500Y-14585000D02*
X15323500Y-14625000D01*
X15323500Y-14585000D02*
X15283500Y-14625000D01*
X15385100Y-7231700D02*
X15425100Y-7271700D01*
X15425100Y-7231700D02*
X15385100Y-7271700D01*
X15403886Y-11938386D02*
X15443886Y-11978386D01*
X15443886Y-11938386D02*
X15403886Y-11978386D01*
X15490139Y-11852134D02*
X15530139Y-11892134D01*
X15530139Y-11852134D02*
X15490139Y-11892134D01*
X15537500Y-14585000D02*
X15577500Y-14625000D01*
X15577500Y-14585000D02*
X15537500Y-14625000D01*
X15571636Y-11770636D02*
X15611636Y-11810636D01*
X15611636Y-11770636D02*
X15571636Y-11810636D01*
X15575600Y-11029000D02*
X15615600Y-11069000D01*
X15615600Y-11029000D02*
X15575600Y-11069000D01*
X15649283Y-11692990D02*
X15689283Y-11732990D01*
X15689283Y-11692990D02*
X15649283Y-11732990D01*
X15677200Y-11117900D02*
X15717200Y-11157900D01*
X15717200Y-11117900D02*
X15677200Y-11157900D01*
X15753400Y-11647600D02*
X15793400Y-11687600D01*
X15793400Y-11647600D02*
X15753400Y-11687600D01*
X15791500Y-13720469D02*
X15831500Y-13760469D01*
X15831500Y-13720469D02*
X15791500Y-13760469D01*
X15791500Y-14585000D02*
X15831500Y-14625000D01*
X15831500Y-14585000D02*
X15791500Y-14625000D01*
X16045500Y-14585000D02*
X16085500Y-14625000D01*
X16085500Y-14585000D02*
X16045500Y-14625000D01*
X16070900Y-12328099D02*
X16110900Y-12368099D01*
X16110900Y-12328099D02*
X16070900Y-12368099D01*
X16172500Y-12413299D02*
X16212500Y-12453299D01*
X16212500Y-12413299D02*
X16172500Y-12453299D01*
X16299500Y-14585000D02*
X16339500Y-14625000D01*
X16339500Y-14585000D02*
X16299500Y-14625000D01*
X16312339Y-12338933D02*
X16352339Y-12378933D01*
X16352339Y-12338933D02*
X16312339Y-12378933D01*
X16540800Y-14585000D02*
X16580800Y-14625000D01*
X16580800Y-14585000D02*
X16540800Y-14625000D01*
X16807500Y-14585000D02*
X16847500Y-14625000D01*
X16847500Y-14585000D02*
X16807500Y-14625000D01*
X16851950Y-14045250D02*
X16891950Y-14085250D01*
X16891950Y-14045250D02*
X16851950Y-14085250D01*
X17061500Y-14585000D02*
X17101500Y-14625000D01*
X17101500Y-14585000D02*
X17061500Y-14625000D01*
X17150400Y-12210100D02*
X17190400Y-12250100D01*
X17190400Y-12210100D02*
X17150400Y-12250100D01*
X17226600Y-12133900D02*
X17266600Y-12173900D01*
X17266600Y-12133900D02*
X17226600Y-12173900D01*
X17328665Y-12285835D02*
X17368665Y-12325835D01*
X17368665Y-12285835D02*
X17328665Y-12325835D01*
X17404400Y-13784900D02*
X17444400Y-13824900D01*
X17444400Y-13784900D02*
X17404400Y-13824900D01*
X17493300Y-12375200D02*
X17533300Y-12415200D01*
X17533300Y-12375200D02*
X17493300Y-12415200D01*
X17735065Y-14648035D02*
X17775065Y-14688035D01*
X17775065Y-14648035D02*
X17735065Y-14688035D01*
X17747300Y-14889800D02*
X17787300Y-14929800D01*
X17787300Y-14889800D02*
X17747300Y-14929800D01*
X18433100Y-11816400D02*
X18473100Y-11856400D01*
X18473100Y-11816400D02*
X18433100Y-11856400D01*
X18585500Y-16223300D02*
X18625500Y-16263300D01*
X18625500Y-16223300D02*
X18585500Y-16263300D01*
X7989200Y-7505700D02*
G75*
G03*
X7989200Y-7505700I-25000J0D01*
G01*
X7989200Y-16560800D02*
G75*
G03*
X7989200Y-16560800I-25000J0D01*
G01*
X8059494Y-7335994D02*
G75*
G03*
X8059494Y-7335994I-25000J0D01*
G01*
X8059494Y-7675406D02*
G75*
G03*
X8059494Y-7675406I-25000J0D01*
G01*
X8059494Y-16391094D02*
G75*
G03*
X8059494Y-16391094I-25000J0D01*
G01*
X8059494Y-16730506D02*
G75*
G03*
X8059494Y-16730506I-25000J0D01*
G01*
X8229200Y-7265700D02*
G75*
G03*
X8229200Y-7265700I-25000J0D01*
G01*
X8229200Y-7745700D02*
G75*
G03*
X8229200Y-7745700I-25000J0D01*
G01*
X8229200Y-16320800D02*
G75*
G03*
X8229200Y-16320800I-25000J0D01*
G01*
X8229200Y-16800800D02*
G75*
G03*
X8229200Y-16800800I-25000J0D01*
G01*
X8398906Y-7335994D02*
G75*
G03*
X8398906Y-7335994I-25000J0D01*
G01*
X8398906Y-7675406D02*
G75*
G03*
X8398906Y-7675406I-25000J0D01*
G01*
X8398906Y-16391094D02*
G75*
G03*
X8398906Y-16391094I-25000J0D01*
G01*
X8398906Y-16730506D02*
G75*
G03*
X8398906Y-16730506I-25000J0D01*
G01*
X8469200Y-7505700D02*
G75*
G03*
X8469200Y-7505700I-25000J0D01*
G01*
X8469200Y-16560800D02*
G75*
G03*
X8469200Y-16560800I-25000J0D01*
G01*
X18758800Y-7505700D02*
G75*
G03*
X18758800Y-7505700I-25000J0D01*
G01*
X18758800Y-16560800D02*
G75*
G03*
X18758800Y-16560800I-25000J0D01*
G01*
X18829094Y-7335994D02*
G75*
G03*
X18829094Y-7335994I-25000J0D01*
G01*
X18829094Y-7675406D02*
G75*
G03*
X18829094Y-7675406I-25000J0D01*
G01*
X18829094Y-16391094D02*
G75*
G03*
X18829094Y-16391094I-25000J0D01*
G01*
X18829094Y-16730506D02*
G75*
G03*
X18829094Y-16730506I-25000J0D01*
G01*
X18998800Y-7265700D02*
G75*
G03*
X18998800Y-7265700I-25000J0D01*
G01*
X18998800Y-7745700D02*
G75*
G03*
X18998800Y-7745700I-25000J0D01*
G01*
X18998800Y-16320800D02*
G75*
G03*
X18998800Y-16320800I-25000J0D01*
G01*
X18998800Y-16800800D02*
G75*
G03*
X18998800Y-16800800I-25000J0D01*
G01*
X19168506Y-7335994D02*
G75*
G03*
X19168506Y-7335994I-25000J0D01*
G01*
X19168506Y-7675406D02*
G75*
G03*
X19168506Y-7675406I-25000J0D01*
G01*
X19168506Y-16391094D02*
G75*
G03*
X19168506Y-16391094I-25000J0D01*
G01*
X19168506Y-16730506D02*
G75*
G03*
X19168506Y-16730506I-25000J0D01*
G01*
X19238800Y-7505700D02*
G75*
G03*
X19238800Y-7505700I-25000J0D01*
G01*
X19238800Y-16560800D02*
G75*
G03*
X19238800Y-16560800I-25000J0D01*
G01*
X11811000Y-7717000D02*
X11811000Y-7777000D01*
X11781000Y-7747000D02*
X11841000Y-7747000D01*
X11961000Y-7717000D02*
X11961000Y-7777000D01*
X11931000Y-7747000D02*
X11991000Y-7747000D01*
X12345517Y-9170517D02*
X12345517Y-9117483D01*
X12292483Y-9117483D01*
X12292483Y-9170517D01*
X12345517Y-9170517D01*
X12472517Y-9043517D02*
X12472517Y-8990483D01*
X12419483Y-8990483D01*
X12419483Y-9043517D01*
X12472517Y-9043517D01*
X12472517Y-9297517D02*
X12472517Y-9244483D01*
X12419483Y-9244483D01*
X12419483Y-9297517D01*
X12472517Y-9297517D01*
X8382000Y-8743500D02*
X8422000Y-8703500D01*
X8382000Y-8663500D01*
X8342000Y-8703500D01*
X8382000Y-8743500D01*
X8382000Y-8993500D02*
X8422000Y-8953500D01*
X8382000Y-8913500D01*
X8342000Y-8953500D01*
X8382000Y-8993500D01*
X8382000Y-9243500D02*
X8422000Y-9203500D01*
X8382000Y-9163500D01*
X8342000Y-9203500D01*
X8382000Y-9243500D01*
X9029700Y-12782100D02*
X9069700Y-12742100D01*
X9029700Y-12702100D01*
X8989700Y-12742100D01*
X9029700Y-12782100D01*
X9029700Y-13032100D02*
X9069700Y-12992100D01*
X9029700Y-12952100D01*
X8989700Y-12992100D01*
X9029700Y-13032100D01*
X9080500Y-10585000D02*
X9120500Y-10545000D01*
X9080500Y-10505000D01*
X9040500Y-10545000D01*
X9080500Y-10585000D01*
X9080500Y-10835000D02*
X9120500Y-10795000D01*
X9080500Y-10755000D01*
X9040500Y-10795000D01*
X9080500Y-10835000D01*
X9080500Y-14903000D02*
X9120500Y-14863000D01*
X9080500Y-14823000D01*
X9040500Y-14863000D01*
X9080500Y-14903000D01*
X9080500Y-15153000D02*
X9120500Y-15113000D01*
X9080500Y-15073000D01*
X9040500Y-15113000D01*
X9080500Y-15153000D01*
X9588500Y-10073000D02*
X9628500Y-10033000D01*
X9588500Y-9993000D01*
X9548500Y-10033000D01*
X9588500Y-10073000D01*
X9588500Y-10835000D02*
X9628500Y-10795000D01*
X9588500Y-10755000D01*
X9548500Y-10795000D01*
X9588500Y-10835000D01*
X9588500Y-11470000D02*
X9628500Y-11430000D01*
X9588500Y-11390000D01*
X9548500Y-11430000D01*
X9588500Y-11470000D01*
X9588500Y-12994000D02*
X9628500Y-12954000D01*
X9588500Y-12914000D01*
X9548500Y-12954000D01*
X9588500Y-12994000D01*
X9588500Y-13629000D02*
X9628500Y-13589000D01*
X9588500Y-13549000D01*
X9548500Y-13589000D01*
X9588500Y-13629000D01*
X9588500Y-15153000D02*
X9628500Y-15113000D01*
X9588500Y-15073000D01*
X9548500Y-15113000D01*
X9588500Y-15153000D01*
X9842500Y-10073000D02*
X9882500Y-10033000D01*
X9842500Y-9993000D01*
X9802500Y-10033000D01*
X9842500Y-10073000D01*
X9842500Y-10835000D02*
X9882500Y-10795000D01*
X9842500Y-10755000D01*
X9802500Y-10795000D01*
X9842500Y-10835000D01*
X9842500Y-11470000D02*
X9882500Y-11430000D01*
X9842500Y-11390000D01*
X9802500Y-11430000D01*
X9842500Y-11470000D01*
X9842500Y-12994000D02*
X9882500Y-12954000D01*
X9842500Y-12914000D01*
X9802500Y-12954000D01*
X9842500Y-12994000D01*
X9842500Y-13629000D02*
X9882500Y-13589000D01*
X9842500Y-13549000D01*
X9802500Y-13589000D01*
X9842500Y-13629000D01*
X9842500Y-15153000D02*
X9882500Y-15113000D01*
X9842500Y-15073000D01*
X9802500Y-15113000D01*
X9842500Y-15153000D01*
X10096500Y-10073000D02*
X10136500Y-10033000D01*
X10096500Y-9993000D01*
X10056500Y-10033000D01*
X10096500Y-10073000D01*
X10096500Y-10835000D02*
X10136500Y-10795000D01*
X10096500Y-10755000D01*
X10056500Y-10795000D01*
X10096500Y-10835000D01*
X10096500Y-11470000D02*
X10136500Y-11430000D01*
X10096500Y-11390000D01*
X10056500Y-11430000D01*
X10096500Y-11470000D01*
X10096500Y-12994000D02*
X10136500Y-12954000D01*
X10096500Y-12914000D01*
X10056500Y-12954000D01*
X10096500Y-12994000D01*
X10096500Y-13629000D02*
X10136500Y-13589000D01*
X10096500Y-13549000D01*
X10056500Y-13589000D01*
X10096500Y-13629000D01*
X10096500Y-15153000D02*
X10136500Y-15113000D01*
X10096500Y-15073000D01*
X10056500Y-15113000D01*
X10096500Y-15153000D01*
X10160000Y-7600500D02*
X10200000Y-7560500D01*
X10160000Y-7520500D01*
X10120000Y-7560500D01*
X10160000Y-7600500D01*
X10160000Y-7850500D02*
X10200000Y-7810500D01*
X10160000Y-7770500D01*
X10120000Y-7810500D01*
X10160000Y-7850500D01*
X10350500Y-10073000D02*
X10390500Y-10033000D01*
X10350500Y-9993000D01*
X10310500Y-10033000D01*
X10350500Y-10073000D01*
X10350500Y-10835000D02*
X10390500Y-10795000D01*
X10350500Y-10755000D01*
X10310500Y-10795000D01*
X10350500Y-10835000D01*
X10350500Y-11470000D02*
X10390500Y-11430000D01*
X10350500Y-11390000D01*
X10310500Y-11430000D01*
X10350500Y-11470000D01*
X10350500Y-12994000D02*
X10390500Y-12954000D01*
X10350500Y-12914000D01*
X10310500Y-12954000D01*
X10350500Y-12994000D01*
X10350500Y-13629000D02*
X10390500Y-13589000D01*
X10350500Y-13549000D01*
X10310500Y-13589000D01*
X10350500Y-13629000D01*
X10350500Y-15153000D02*
X10390500Y-15113000D01*
X10350500Y-15073000D01*
X10310500Y-15113000D01*
X10350500Y-15153000D01*
X10604500Y-10073000D02*
X10644500Y-10033000D01*
X10604500Y-9993000D01*
X10564500Y-10033000D01*
X10604500Y-10073000D01*
X10604500Y-10835000D02*
X10644500Y-10795000D01*
X10604500Y-10755000D01*
X10564500Y-10795000D01*
X10604500Y-10835000D01*
X10604500Y-11470000D02*
X10644500Y-11430000D01*
X10604500Y-11390000D01*
X10564500Y-11430000D01*
X10604500Y-11470000D01*
X10604500Y-12994000D02*
X10644500Y-12954000D01*
X10604500Y-12914000D01*
X10564500Y-12954000D01*
X10604500Y-12994000D01*
X10604500Y-13629000D02*
X10644500Y-13589000D01*
X10604500Y-13549000D01*
X10564500Y-13589000D01*
X10604500Y-13629000D01*
X10604500Y-15153000D02*
X10644500Y-15113000D01*
X10604500Y-15073000D01*
X10564500Y-15113000D01*
X10604500Y-15153000D01*
X10858500Y-10073000D02*
X10898500Y-10033000D01*
X10858500Y-9993000D01*
X10818500Y-10033000D01*
X10858500Y-10073000D01*
X10858500Y-10835000D02*
X10898500Y-10795000D01*
X10858500Y-10755000D01*
X10818500Y-10795000D01*
X10858500Y-10835000D01*
X10858500Y-11470000D02*
X10898500Y-11430000D01*
X10858500Y-11390000D01*
X10818500Y-11430000D01*
X10858500Y-11470000D01*
X10858500Y-12994000D02*
X10898500Y-12954000D01*
X10858500Y-12914000D01*
X10818500Y-12954000D01*
X10858500Y-12994000D01*
X10858500Y-13629000D02*
X10898500Y-13589000D01*
X10858500Y-13549000D01*
X10818500Y-13589000D01*
X10858500Y-13629000D01*
X10858500Y-15153000D02*
X10898500Y-15113000D01*
X10858500Y-15073000D01*
X10818500Y-15113000D01*
X10858500Y-15153000D01*
X11112500Y-10073000D02*
X11152500Y-10033000D01*
X11112500Y-9993000D01*
X11072500Y-10033000D01*
X11112500Y-10073000D01*
X11112500Y-10835000D02*
X11152500Y-10795000D01*
X11112500Y-10755000D01*
X11072500Y-10795000D01*
X11112500Y-10835000D01*
X11112500Y-11470000D02*
X11152500Y-11430000D01*
X11112500Y-11390000D01*
X11072500Y-11430000D01*
X11112500Y-11470000D01*
X11112500Y-12994000D02*
X11152500Y-12954000D01*
X11112500Y-12914000D01*
X11072500Y-12954000D01*
X11112500Y-12994000D01*
X11112500Y-13629000D02*
X11152500Y-13589000D01*
X11112500Y-13549000D01*
X11072500Y-13589000D01*
X11112500Y-13629000D01*
X11112500Y-15153000D02*
X11152500Y-15113000D01*
X11112500Y-15073000D01*
X11072500Y-15113000D01*
X11112500Y-15153000D01*
X11366500Y-11470000D02*
X11406500Y-11430000D01*
X11366500Y-11390000D01*
X11326500Y-11430000D01*
X11366500Y-11470000D01*
X11366500Y-12994000D02*
X11406500Y-12954000D01*
X11366500Y-12914000D01*
X11326500Y-12954000D01*
X11366500Y-12994000D01*
X11366500Y-13629000D02*
X11406500Y-13589000D01*
X11366500Y-13549000D01*
X11326500Y-13589000D01*
X11366500Y-13629000D01*
X11366500Y-15153000D02*
X11406500Y-15113000D01*
X11366500Y-15073000D01*
X11326500Y-15113000D01*
X11366500Y-15153000D01*
X11620500Y-11470000D02*
X11660500Y-11430000D01*
X11620500Y-11390000D01*
X11580500Y-11430000D01*
X11620500Y-11470000D01*
X11620500Y-12994000D02*
X11660500Y-12954000D01*
X11620500Y-12914000D01*
X11580500Y-12954000D01*
X11620500Y-12994000D01*
X11620500Y-13629000D02*
X11660500Y-13589000D01*
X11620500Y-13549000D01*
X11580500Y-13589000D01*
X11620500Y-13629000D01*
X11620500Y-15153000D02*
X11660500Y-15113000D01*
X11620500Y-15073000D01*
X11580500Y-15113000D01*
X11620500Y-15153000D01*
X11874500Y-11470000D02*
X11914500Y-11430000D01*
X11874500Y-11390000D01*
X11834500Y-11430000D01*
X11874500Y-11470000D01*
X11874500Y-12994000D02*
X11914500Y-12954000D01*
X11874500Y-12914000D01*
X11834500Y-12954000D01*
X11874500Y-12994000D01*
X11874500Y-13629000D02*
X11914500Y-13589000D01*
X11874500Y-13549000D01*
X11834500Y-13589000D01*
X11874500Y-13629000D01*
X11874500Y-15153000D02*
X11914500Y-15113000D01*
X11874500Y-15073000D01*
X11834500Y-15113000D01*
X11874500Y-15153000D01*
X12001500Y-10585000D02*
X12041500Y-10545000D01*
X12001500Y-10505000D01*
X11961500Y-10545000D01*
X12001500Y-10585000D01*
X12001500Y-10835000D02*
X12041500Y-10795000D01*
X12001500Y-10755000D01*
X11961500Y-10795000D01*
X12001500Y-10835000D01*
X12128500Y-11470000D02*
X12168500Y-11430000D01*
X12128500Y-11390000D01*
X12088500Y-11430000D01*
X12128500Y-11470000D01*
X12128500Y-12994000D02*
X12168500Y-12954000D01*
X12128500Y-12914000D01*
X12088500Y-12954000D01*
X12128500Y-12994000D01*
X12128500Y-13629000D02*
X12168500Y-13589000D01*
X12128500Y-13549000D01*
X12088500Y-13589000D01*
X12128500Y-13629000D01*
X12128500Y-15153000D02*
X12168500Y-15113000D01*
X12128500Y-15073000D01*
X12088500Y-15113000D01*
X12128500Y-15153000D01*
X12382500Y-11470000D02*
X12422500Y-11430000D01*
X12382500Y-11390000D01*
X12342500Y-11430000D01*
X12382500Y-11470000D01*
X12382500Y-12994000D02*
X12422500Y-12954000D01*
X12382500Y-12914000D01*
X12342500Y-12954000D01*
X12382500Y-12994000D01*
X12382500Y-13629000D02*
X12422500Y-13589000D01*
X12382500Y-13549000D01*
X12342500Y-13589000D01*
X12382500Y-13629000D01*
X12382500Y-15153000D02*
X12422500Y-15113000D01*
X12382500Y-15073000D01*
X12342500Y-15113000D01*
X12382500Y-15153000D01*
X12509500Y-8299000D02*
X12549500Y-8259000D01*
X12509500Y-8219000D01*
X12469500Y-8259000D01*
X12509500Y-8299000D01*
X12509500Y-8549000D02*
X12549500Y-8509000D01*
X12509500Y-8469000D01*
X12469500Y-8509000D01*
X12509500Y-8549000D01*
X12509500Y-10073000D02*
X12549500Y-10033000D01*
X12509500Y-9993000D01*
X12469500Y-10033000D01*
X12509500Y-10073000D01*
X12509500Y-10835000D02*
X12549500Y-10795000D01*
X12509500Y-10755000D01*
X12469500Y-10795000D01*
X12509500Y-10835000D01*
X12636500Y-11470000D02*
X12676500Y-11430000D01*
X12636500Y-11390000D01*
X12596500Y-11430000D01*
X12636500Y-11470000D01*
X12636500Y-12994000D02*
X12676500Y-12954000D01*
X12636500Y-12914000D01*
X12596500Y-12954000D01*
X12636500Y-12994000D01*
X12636500Y-13629000D02*
X12676500Y-13589000D01*
X12636500Y-13549000D01*
X12596500Y-13589000D01*
X12636500Y-13629000D01*
X12636500Y-15153000D02*
X12676500Y-15113000D01*
X12636500Y-15073000D01*
X12596500Y-15113000D01*
X12636500Y-15153000D01*
X12763500Y-10073000D02*
X12803500Y-10033000D01*
X12763500Y-9993000D01*
X12723500Y-10033000D01*
X12763500Y-10073000D01*
X12763500Y-10835000D02*
X12803500Y-10795000D01*
X12763500Y-10755000D01*
X12723500Y-10795000D01*
X12763500Y-10835000D01*
X12890500Y-11470000D02*
X12930500Y-11430000D01*
X12890500Y-11390000D01*
X12850500Y-11430000D01*
X12890500Y-11470000D01*
X12890500Y-12994000D02*
X12930500Y-12954000D01*
X12890500Y-12914000D01*
X12850500Y-12954000D01*
X12890500Y-12994000D01*
X12890500Y-13629000D02*
X12930500Y-13589000D01*
X12890500Y-13549000D01*
X12850500Y-13589000D01*
X12890500Y-13629000D01*
X12890500Y-15153000D02*
X12930500Y-15113000D01*
X12890500Y-15073000D01*
X12850500Y-15113000D01*
X12890500Y-15153000D01*
X13017500Y-8422000D02*
X13057500Y-8382000D01*
X13017500Y-8342000D01*
X12977500Y-8382000D01*
X13017500Y-8422000D01*
X13017500Y-9184000D02*
X13057500Y-9144000D01*
X13017500Y-9104000D01*
X12977500Y-9144000D01*
X13017500Y-9184000D01*
X13017500Y-10073000D02*
X13057500Y-10033000D01*
X13017500Y-9993000D01*
X12977500Y-10033000D01*
X13017500Y-10073000D01*
X13017500Y-10835000D02*
X13057500Y-10795000D01*
X13017500Y-10755000D01*
X12977500Y-10795000D01*
X13017500Y-10835000D01*
X13144500Y-11470000D02*
X13184500Y-11430000D01*
X13144500Y-11390000D01*
X13104500Y-11430000D01*
X13144500Y-11470000D01*
X13144500Y-12994000D02*
X13184500Y-12954000D01*
X13144500Y-12914000D01*
X13104500Y-12954000D01*
X13144500Y-12994000D01*
X13144500Y-13629000D02*
X13184500Y-13589000D01*
X13144500Y-13549000D01*
X13104500Y-13589000D01*
X13144500Y-13629000D01*
X13144500Y-15153000D02*
X13184500Y-15113000D01*
X13144500Y-15073000D01*
X13104500Y-15113000D01*
X13144500Y-15153000D01*
X13152500Y-7787000D02*
X13192500Y-7747000D01*
X13152500Y-7707000D01*
X13112500Y-7747000D01*
X13152500Y-7787000D01*
X13271500Y-10073000D02*
X13311500Y-10033000D01*
X13271500Y-9993000D01*
X13231500Y-10033000D01*
X13271500Y-10073000D01*
X13271500Y-10835000D02*
X13311500Y-10795000D01*
X13271500Y-10755000D01*
X13231500Y-10795000D01*
X13271500Y-10835000D01*
X13398500Y-11470000D02*
X13438500Y-11430000D01*
X13398500Y-11390000D01*
X13358500Y-11430000D01*
X13398500Y-11470000D01*
X13398500Y-12994000D02*
X13438500Y-12954000D01*
X13398500Y-12914000D01*
X13358500Y-12954000D01*
X13398500Y-12994000D01*
X13398500Y-13629000D02*
X13438500Y-13589000D01*
X13398500Y-13549000D01*
X13358500Y-13589000D01*
X13398500Y-13629000D01*
X13398500Y-15153000D02*
X13438500Y-15113000D01*
X13398500Y-15073000D01*
X13358500Y-15113000D01*
X13398500Y-15153000D01*
X13402500Y-7787000D02*
X13442500Y-7747000D01*
X13402500Y-7707000D01*
X13362500Y-7747000D01*
X13402500Y-7787000D01*
X13525500Y-10073000D02*
X13565500Y-10033000D01*
X13525500Y-9993000D01*
X13485500Y-10033000D01*
X13525500Y-10073000D01*
X13525500Y-10835000D02*
X13565500Y-10795000D01*
X13525500Y-10755000D01*
X13485500Y-10795000D01*
X13525500Y-10835000D01*
X13652500Y-7787000D02*
X13692500Y-7747000D01*
X13652500Y-7707000D01*
X13612500Y-7747000D01*
X13652500Y-7787000D01*
X13652500Y-11470000D02*
X13692500Y-11430000D01*
X13652500Y-11390000D01*
X13612500Y-11430000D01*
X13652500Y-11470000D01*
X13652500Y-12994000D02*
X13692500Y-12954000D01*
X13652500Y-12914000D01*
X13612500Y-12954000D01*
X13652500Y-12994000D01*
X13652500Y-13629000D02*
X13692500Y-13589000D01*
X13652500Y-13549000D01*
X13612500Y-13589000D01*
X13652500Y-13629000D01*
X13652500Y-15153000D02*
X13692500Y-15113000D01*
X13652500Y-15073000D01*
X13612500Y-15113000D01*
X13652500Y-15153000D01*
X13779500Y-8422000D02*
X13819500Y-8382000D01*
X13779500Y-8342000D01*
X13739500Y-8382000D01*
X13779500Y-8422000D01*
X13779500Y-9184000D02*
X13819500Y-9144000D01*
X13779500Y-9104000D01*
X13739500Y-9144000D01*
X13779500Y-9184000D01*
X13779500Y-10073000D02*
X13819500Y-10033000D01*
X13779500Y-9993000D01*
X13739500Y-10033000D01*
X13779500Y-10073000D01*
X13779500Y-10835000D02*
X13819500Y-10795000D01*
X13779500Y-10755000D01*
X13739500Y-10795000D01*
X13779500Y-10835000D01*
X13906500Y-11470000D02*
X13946500Y-11430000D01*
X13906500Y-11390000D01*
X13866500Y-11430000D01*
X13906500Y-11470000D01*
X13906500Y-12994000D02*
X13946500Y-12954000D01*
X13906500Y-12914000D01*
X13866500Y-12954000D01*
X13906500Y-12994000D01*
X13906500Y-13629000D02*
X13946500Y-13589000D01*
X13906500Y-13549000D01*
X13866500Y-13589000D01*
X13906500Y-13629000D01*
X13906500Y-15153000D02*
X13946500Y-15113000D01*
X13906500Y-15073000D01*
X13866500Y-15113000D01*
X13906500Y-15153000D01*
X14033500Y-10073000D02*
X14073500Y-10033000D01*
X14033500Y-9993000D01*
X13993500Y-10033000D01*
X14033500Y-10073000D01*
X14033500Y-10835000D02*
X14073500Y-10795000D01*
X14033500Y-10755000D01*
X13993500Y-10795000D01*
X14033500Y-10835000D01*
X14160500Y-11470000D02*
X14200500Y-11430000D01*
X14160500Y-11390000D01*
X14120500Y-11430000D01*
X14160500Y-11470000D01*
X14160500Y-12994000D02*
X14200500Y-12954000D01*
X14160500Y-12914000D01*
X14120500Y-12954000D01*
X14160500Y-12994000D01*
X14160500Y-13629000D02*
X14200500Y-13589000D01*
X14160500Y-13549000D01*
X14120500Y-13589000D01*
X14160500Y-13629000D01*
X14160500Y-15153000D02*
X14200500Y-15113000D01*
X14160500Y-15073000D01*
X14120500Y-15113000D01*
X14160500Y-15153000D01*
X14287500Y-10073000D02*
X14327500Y-10033000D01*
X14287500Y-9993000D01*
X14247500Y-10033000D01*
X14287500Y-10073000D01*
X14287500Y-10835000D02*
X14327500Y-10795000D01*
X14287500Y-10755000D01*
X14247500Y-10795000D01*
X14287500Y-10835000D01*
X14414500Y-11470000D02*
X14454500Y-11430000D01*
X14414500Y-11390000D01*
X14374500Y-11430000D01*
X14414500Y-11470000D01*
X14414500Y-12994000D02*
X14454500Y-12954000D01*
X14414500Y-12914000D01*
X14374500Y-12954000D01*
X14414500Y-12994000D01*
X14414500Y-13629000D02*
X14454500Y-13589000D01*
X14414500Y-13549000D01*
X14374500Y-13589000D01*
X14414500Y-13629000D01*
X14414500Y-15153000D02*
X14454500Y-15113000D01*
X14414500Y-15073000D01*
X14374500Y-15113000D01*
X14414500Y-15153000D01*
X15049500Y-11470000D02*
X15089500Y-11430000D01*
X15049500Y-11390000D01*
X15009500Y-11430000D01*
X15049500Y-11470000D01*
X15049500Y-12994000D02*
X15089500Y-12954000D01*
X15049500Y-12914000D01*
X15009500Y-12954000D01*
X15049500Y-12994000D01*
X15049500Y-13629000D02*
X15089500Y-13589000D01*
X15049500Y-13549000D01*
X15009500Y-13589000D01*
X15049500Y-13629000D01*
X15049500Y-15153000D02*
X15089500Y-15113000D01*
X15049500Y-15073000D01*
X15009500Y-15113000D01*
X15049500Y-15153000D01*
X15138400Y-7914000D02*
X15178400Y-7874000D01*
X15138400Y-7834000D01*
X15098400Y-7874000D01*
X15138400Y-7914000D01*
X15138400Y-9438000D02*
X15178400Y-9398000D01*
X15138400Y-9358000D01*
X15098400Y-9398000D01*
X15138400Y-9438000D01*
X15303500Y-10225400D02*
X15343500Y-10185400D01*
X15303500Y-10145400D01*
X15263500Y-10185400D01*
X15303500Y-10225400D01*
X15303500Y-10733400D02*
X15343500Y-10693400D01*
X15303500Y-10653400D01*
X15263500Y-10693400D01*
X15303500Y-10733400D01*
X15303500Y-11470000D02*
X15343500Y-11430000D01*
X15303500Y-11390000D01*
X15263500Y-11430000D01*
X15303500Y-11470000D01*
X15303500Y-12994000D02*
X15343500Y-12954000D01*
X15303500Y-12914000D01*
X15263500Y-12954000D01*
X15303500Y-12994000D01*
X15303500Y-13629000D02*
X15343500Y-13589000D01*
X15303500Y-13549000D01*
X15263500Y-13589000D01*
X15303500Y-13629000D01*
X15303500Y-15153000D02*
X15343500Y-15113000D01*
X15303500Y-15073000D01*
X15263500Y-15113000D01*
X15303500Y-15153000D01*
X15392400Y-7914000D02*
X15432400Y-7874000D01*
X15392400Y-7834000D01*
X15352400Y-7874000D01*
X15392400Y-7914000D01*
X15392400Y-9438000D02*
X15432400Y-9398000D01*
X15392400Y-9358000D01*
X15352400Y-9398000D01*
X15392400Y-9438000D01*
X15557500Y-11470000D02*
X15597500Y-11430000D01*
X15557500Y-11390000D01*
X15517500Y-11430000D01*
X15557500Y-11470000D01*
X15557500Y-12994000D02*
X15597500Y-12954000D01*
X15557500Y-12914000D01*
X15517500Y-12954000D01*
X15557500Y-12994000D01*
X15557500Y-13629000D02*
X15597500Y-13589000D01*
X15557500Y-13549000D01*
X15517500Y-13589000D01*
X15557500Y-13629000D01*
X15557500Y-15153000D02*
X15597500Y-15113000D01*
X15557500Y-15073000D01*
X15517500Y-15113000D01*
X15557500Y-15153000D01*
X15646400Y-7914000D02*
X15686400Y-7874000D01*
X15646400Y-7834000D01*
X15606400Y-7874000D01*
X15646400Y-7914000D01*
X15646400Y-9438000D02*
X15686400Y-9398000D01*
X15646400Y-9358000D01*
X15606400Y-9398000D01*
X15646400Y-9438000D01*
X15811500Y-11470000D02*
X15851500Y-11430000D01*
X15811500Y-11390000D01*
X15771500Y-11430000D01*
X15811500Y-11470000D01*
X15811500Y-12994000D02*
X15851500Y-12954000D01*
X15811500Y-12914000D01*
X15771500Y-12954000D01*
X15811500Y-12994000D01*
X15811500Y-13629000D02*
X15851500Y-13589000D01*
X15811500Y-13549000D01*
X15771500Y-13589000D01*
X15811500Y-13629000D01*
X15811500Y-15153000D02*
X15851500Y-15113000D01*
X15811500Y-15073000D01*
X15771500Y-15113000D01*
X15811500Y-15153000D01*
X15900400Y-7914000D02*
X15940400Y-7874000D01*
X15900400Y-7834000D01*
X15860400Y-7874000D01*
X15900400Y-7914000D01*
X15900400Y-9438000D02*
X15940400Y-9398000D01*
X15900400Y-9358000D01*
X15860400Y-9398000D01*
X15900400Y-9438000D01*
X16065500Y-11470000D02*
X16105500Y-11430000D01*
X16065500Y-11390000D01*
X16025500Y-11430000D01*
X16065500Y-11470000D01*
X16065500Y-12994000D02*
X16105500Y-12954000D01*
X16065500Y-12914000D01*
X16025500Y-12954000D01*
X16065500Y-12994000D01*
X16065500Y-13629000D02*
X16105500Y-13589000D01*
X16065500Y-13549000D01*
X16025500Y-13589000D01*
X16065500Y-13629000D01*
X16065500Y-15153000D02*
X16105500Y-15113000D01*
X16065500Y-15073000D01*
X16025500Y-15113000D01*
X16065500Y-15153000D01*
X16154400Y-7914000D02*
X16194400Y-7874000D01*
X16154400Y-7834000D01*
X16114400Y-7874000D01*
X16154400Y-7914000D01*
X16154400Y-9438000D02*
X16194400Y-9398000D01*
X16154400Y-9358000D01*
X16114400Y-9398000D01*
X16154400Y-9438000D01*
X16319500Y-10225400D02*
X16359500Y-10185400D01*
X16319500Y-10145400D01*
X16279500Y-10185400D01*
X16319500Y-10225400D01*
X16319500Y-10733400D02*
X16359500Y-10693400D01*
X16319500Y-10653400D01*
X16279500Y-10693400D01*
X16319500Y-10733400D01*
X16319500Y-11470000D02*
X16359500Y-11430000D01*
X16319500Y-11390000D01*
X16279500Y-11430000D01*
X16319500Y-11470000D01*
X16319500Y-12994000D02*
X16359500Y-12954000D01*
X16319500Y-12914000D01*
X16279500Y-12954000D01*
X16319500Y-12994000D01*
X16319500Y-13629000D02*
X16359500Y-13589000D01*
X16319500Y-13549000D01*
X16279500Y-13589000D01*
X16319500Y-13629000D01*
X16319500Y-15153000D02*
X16359500Y-15113000D01*
X16319500Y-15073000D01*
X16279500Y-15113000D01*
X16319500Y-15153000D01*
X16408400Y-7914000D02*
X16448400Y-7874000D01*
X16408400Y-7834000D01*
X16368400Y-7874000D01*
X16408400Y-7914000D01*
X16408400Y-9438000D02*
X16448400Y-9398000D01*
X16408400Y-9358000D01*
X16368400Y-9398000D01*
X16408400Y-9438000D01*
X16573500Y-11470000D02*
X16613500Y-11430000D01*
X16573500Y-11390000D01*
X16533500Y-11430000D01*
X16573500Y-11470000D01*
X16573500Y-12994000D02*
X16613500Y-12954000D01*
X16573500Y-12914000D01*
X16533500Y-12954000D01*
X16573500Y-12994000D01*
X16573500Y-13629000D02*
X16613500Y-13589000D01*
X16573500Y-13549000D01*
X16533500Y-13589000D01*
X16573500Y-13629000D01*
X16573500Y-15153000D02*
X16613500Y-15113000D01*
X16573500Y-15073000D01*
X16533500Y-15113000D01*
X16573500Y-15153000D01*
X16662400Y-7914000D02*
X16702400Y-7874000D01*
X16662400Y-7834000D01*
X16622400Y-7874000D01*
X16662400Y-7914000D01*
X16662400Y-9438000D02*
X16702400Y-9398000D01*
X16662400Y-9358000D01*
X16622400Y-9398000D01*
X16662400Y-9438000D01*
X16827500Y-10225400D02*
X16867500Y-10185400D01*
X16827500Y-10145400D01*
X16787500Y-10185400D01*
X16827500Y-10225400D01*
X16827500Y-10733400D02*
X16867500Y-10693400D01*
X16827500Y-10653400D01*
X16787500Y-10693400D01*
X16827500Y-10733400D01*
X16827500Y-11470000D02*
X16867500Y-11430000D01*
X16827500Y-11390000D01*
X16787500Y-11430000D01*
X16827500Y-11470000D01*
X16827500Y-12994000D02*
X16867500Y-12954000D01*
X16827500Y-12914000D01*
X16787500Y-12954000D01*
X16827500Y-12994000D01*
X16827500Y-13629000D02*
X16867500Y-13589000D01*
X16827500Y-13549000D01*
X16787500Y-13589000D01*
X16827500Y-13629000D01*
X16827500Y-15153000D02*
X16867500Y-15113000D01*
X16827500Y-15073000D01*
X16787500Y-15113000D01*
X16827500Y-15153000D01*
X16916400Y-7914000D02*
X16956400Y-7874000D01*
X16916400Y-7834000D01*
X16876400Y-7874000D01*
X16916400Y-7914000D01*
X16916400Y-9438000D02*
X16956400Y-9398000D01*
X16916400Y-9358000D01*
X16876400Y-9398000D01*
X16916400Y-9438000D01*
X17081500Y-11470000D02*
X17121500Y-11430000D01*
X17081500Y-11390000D01*
X17041500Y-11430000D01*
X17081500Y-11470000D01*
X17081500Y-12994000D02*
X17121500Y-12954000D01*
X17081500Y-12914000D01*
X17041500Y-12954000D01*
X17081500Y-12994000D01*
X17081500Y-13629000D02*
X17121500Y-13589000D01*
X17081500Y-13549000D01*
X17041500Y-13589000D01*
X17081500Y-13629000D01*
X17081500Y-15153000D02*
X17121500Y-15113000D01*
X17081500Y-15073000D01*
X17041500Y-15113000D01*
X17081500Y-15153000D01*
X17170400Y-7914000D02*
X17210400Y-7874000D01*
X17170400Y-7834000D01*
X17130400Y-7874000D01*
X17170400Y-7914000D01*
X17170400Y-9438000D02*
X17210400Y-9398000D01*
X17170400Y-9358000D01*
X17130400Y-9398000D01*
X17170400Y-9438000D01*
X17335500Y-11470000D02*
X17375500Y-11430000D01*
X17335500Y-11390000D01*
X17295500Y-11430000D01*
X17335500Y-11470000D01*
X17335500Y-12994000D02*
X17375500Y-12954000D01*
X17335500Y-12914000D01*
X17295500Y-12954000D01*
X17335500Y-12994000D01*
X17335500Y-13629000D02*
X17375500Y-13589000D01*
X17335500Y-13549000D01*
X17295500Y-13589000D01*
X17335500Y-13629000D01*
X17335500Y-15153000D02*
X17375500Y-15113000D01*
X17335500Y-15073000D01*
X17295500Y-15113000D01*
X17335500Y-15153000D01*
X17424400Y-7914000D02*
X17464400Y-7874000D01*
X17424400Y-7834000D01*
X17384400Y-7874000D01*
X17424400Y-7914000D01*
X17424400Y-9438000D02*
X17464400Y-9398000D01*
X17424400Y-9358000D01*
X17384400Y-9398000D01*
X17424400Y-9438000D01*
X17589500Y-11470000D02*
X17629500Y-11430000D01*
X17589500Y-11390000D01*
X17549500Y-11430000D01*
X17589500Y-11470000D01*
X17589500Y-12994000D02*
X17629500Y-12954000D01*
X17589500Y-12914000D01*
X17549500Y-12954000D01*
X17589500Y-12994000D01*
X17589500Y-13629000D02*
X17629500Y-13589000D01*
X17589500Y-13549000D01*
X17549500Y-13589000D01*
X17589500Y-13629000D01*
X17589500Y-15153000D02*
X17629500Y-15113000D01*
X17589500Y-15073000D01*
X17549500Y-15113000D01*
X17589500Y-15153000D01*
X17678400Y-7914000D02*
X17718400Y-7874000D01*
X17678400Y-7834000D01*
X17638400Y-7874000D01*
X17678400Y-7914000D01*
X17678400Y-9438000D02*
X17718400Y-9398000D01*
X17678400Y-9358000D01*
X17638400Y-9398000D01*
X17678400Y-9438000D01*
X17843500Y-10225400D02*
X17883500Y-10185400D01*
X17843500Y-10145400D01*
X17803500Y-10185400D01*
X17843500Y-10225400D01*
X17843500Y-10733400D02*
X17883500Y-10693400D01*
X17843500Y-10653400D01*
X17803500Y-10693400D01*
X17843500Y-10733400D01*
X17843500Y-11470000D02*
X17883500Y-11430000D01*
X17843500Y-11390000D01*
X17803500Y-11430000D01*
X17843500Y-11470000D01*
X17843500Y-12994000D02*
X17883500Y-12954000D01*
X17843500Y-12914000D01*
X17803500Y-12954000D01*
X17843500Y-12994000D01*
X17843500Y-13629000D02*
X17883500Y-13589000D01*
X17843500Y-13549000D01*
X17803500Y-13589000D01*
X17843500Y-13629000D01*
X17843500Y-15153000D02*
X17883500Y-15113000D01*
X17843500Y-15073000D01*
X17803500Y-15113000D01*
X17843500Y-15153000D01*
X17932400Y-7914000D02*
X17972400Y-7874000D01*
X17932400Y-7834000D01*
X17892400Y-7874000D01*
X17932400Y-7914000D01*
X17932400Y-9438000D02*
X17972400Y-9398000D01*
X17932400Y-9358000D01*
X17892400Y-9398000D01*
X17932400Y-9438000D01*
X18097500Y-11470000D02*
X18137500Y-11430000D01*
X18097500Y-11390000D01*
X18057500Y-11430000D01*
X18097500Y-11470000D01*
X18097500Y-12994000D02*
X18137500Y-12954000D01*
X18097500Y-12914000D01*
X18057500Y-12954000D01*
X18097500Y-12994000D01*
X18097500Y-13629000D02*
X18137500Y-13589000D01*
X18097500Y-13549000D01*
X18057500Y-13589000D01*
X18097500Y-13629000D01*
X18097500Y-15153000D02*
X18137500Y-15113000D01*
X18097500Y-15073000D01*
X18057500Y-15113000D01*
X18097500Y-15153000D01*
X18186400Y-7914000D02*
X18226400Y-7874000D01*
X18186400Y-7834000D01*
X18146400Y-7874000D01*
X18186400Y-7914000D01*
X18186400Y-9438000D02*
X18226400Y-9398000D01*
X18186400Y-9358000D01*
X18146400Y-9398000D01*
X18186400Y-9438000D01*
X18351500Y-11470000D02*
X18391500Y-11430000D01*
X18351500Y-11390000D01*
X18311500Y-11430000D01*
X18351500Y-11470000D01*
X18351500Y-12994000D02*
X18391500Y-12954000D01*
X18351500Y-12914000D01*
X18311500Y-12954000D01*
X18351500Y-12994000D01*
X18351500Y-13629000D02*
X18391500Y-13589000D01*
X18351500Y-13549000D01*
X18311500Y-13589000D01*
X18351500Y-13629000D01*
X18351500Y-15153000D02*
X18391500Y-15113000D01*
X18351500Y-15073000D01*
X18311500Y-15113000D01*
X18351500Y-15153000D01*
X18440400Y-7914000D02*
X18480400Y-7874000D01*
X18440400Y-7834000D01*
X18400400Y-7874000D01*
X18440400Y-7914000D01*
X18440400Y-9438000D02*
X18480400Y-9398000D01*
X18440400Y-9358000D01*
X18400400Y-9398000D01*
X18440400Y-9438000D01*
X18440400Y-10445300D02*
X18480400Y-10405300D01*
X18440400Y-10365300D01*
X18400400Y-10405300D01*
X18440400Y-10445300D01*
X18440400Y-10695300D02*
X18480400Y-10655300D01*
X18440400Y-10615300D01*
X18400400Y-10655300D01*
X18440400Y-10695300D01*
X18859500Y-11470000D02*
X18899500Y-11430000D01*
X18859500Y-11390000D01*
X18819500Y-11430000D01*
X18859500Y-11470000D01*
X18859500Y-11720000D02*
X18899500Y-11680000D01*
X18859500Y-11640000D01*
X18819500Y-11680000D01*
X18859500Y-11720000D01*
X18859500Y-13629000D02*
X18899500Y-13589000D01*
X18859500Y-13549000D01*
X18819500Y-13589000D01*
X18859500Y-13629000D01*
X18859500Y-13879000D02*
X18899500Y-13839000D01*
X18859500Y-13799000D01*
X18819500Y-13839000D01*
X18859500Y-13879000D01*
X9420860Y-15834360D02*
X9502140Y-15915640D01*
X9502140Y-15834360D02*
X9420860Y-15915640D01*
X9502140Y-15875000D02*
G75*
G03*
X9502140Y-15875000I-40640J0D01*
G01*
X9420860Y-16342360D02*
X9502140Y-16423640D01*
X9502140Y-16342360D02*
X9420860Y-16423640D01*
X9502140Y-16383000D02*
G75*
G03*
X9502140Y-16383000I-40640J0D01*
G01*
X10182860Y-15834360D02*
X10264140Y-15915640D01*
X10264140Y-15834360D02*
X10182860Y-15915640D01*
X10264140Y-15875000D02*
G75*
G03*
X10264140Y-15875000I-40640J0D01*
G01*
X10182860Y-16342360D02*
X10264140Y-16423640D01*
X10264140Y-16342360D02*
X10182860Y-16423640D01*
X10264140Y-16383000D02*
G75*
G03*
X10264140Y-16383000I-40640J0D01*
G01*
X17760400Y-15982400D02*
X17850400Y-16072400D01*
X17850400Y-15982400D02*
X17760400Y-16072400D01*
X17805400Y-15982400D02*
X17805400Y-16072400D01*
X17760400Y-16027400D02*
X17850400Y-16027400D01*
X17760400Y-16236400D02*
X17850400Y-16326400D01*
X17850400Y-16236400D02*
X17760400Y-16326400D01*
X17805400Y-16236400D02*
X17805400Y-16326400D01*
X17760400Y-16281400D02*
X17850400Y-16281400D01*
X8268500Y-10237000D02*
X8368500Y-10337000D01*
X8368500Y-10237000D02*
X8268500Y-10337000D01*
X8353856Y-10322356D02*
X8353856Y-10251644D01*
X8283144Y-10251644D01*
X8283144Y-10322356D01*
X8353856Y-10322356D01*
X8268500Y-10491000D02*
X8368500Y-10591000D01*
X8368500Y-10491000D02*
X8268500Y-10591000D01*
X8353856Y-10576356D02*
X8353856Y-10505644D01*
X8283144Y-10505644D01*
X8283144Y-10576356D01*
X8353856Y-10576356D01*
X8268500Y-10745000D02*
X8368500Y-10845000D01*
X8368500Y-10745000D02*
X8268500Y-10845000D01*
X8353856Y-10830356D02*
X8353856Y-10759644D01*
X8283144Y-10759644D01*
X8283144Y-10830356D01*
X8353856Y-10830356D01*
X8268500Y-10999000D02*
X8368500Y-11099000D01*
X8368500Y-10999000D02*
X8268500Y-11099000D01*
X8353856Y-11084356D02*
X8353856Y-11013644D01*
X8283144Y-11013644D01*
X8283144Y-11084356D01*
X8353856Y-11084356D01*
X8268500Y-11253000D02*
X8368500Y-11353000D01*
X8368500Y-11253000D02*
X8268500Y-11353000D01*
X8353856Y-11338356D02*
X8353856Y-11267644D01*
X8283144Y-11267644D01*
X8283144Y-11338356D01*
X8353856Y-11338356D01*
X8268500Y-11507000D02*
X8368500Y-11607000D01*
X8368500Y-11507000D02*
X8268500Y-11607000D01*
X8353856Y-11592356D02*
X8353856Y-11521644D01*
X8283144Y-11521644D01*
X8283144Y-11592356D01*
X8353856Y-11592356D01*
X8268500Y-11761000D02*
X8368500Y-11861000D01*
X8368500Y-11761000D02*
X8268500Y-11861000D01*
X8353856Y-11846356D02*
X8353856Y-11775644D01*
X8283144Y-11775644D01*
X8283144Y-11846356D01*
X8353856Y-11846356D01*
X8268500Y-12015000D02*
X8368500Y-12115000D01*
X8368500Y-12015000D02*
X8268500Y-12115000D01*
X8353856Y-12100356D02*
X8353856Y-12029644D01*
X8283144Y-12029644D01*
X8283144Y-12100356D01*
X8353856Y-12100356D01*
X8268500Y-12269000D02*
X8368500Y-12369000D01*
X8368500Y-12269000D02*
X8268500Y-12369000D01*
X8353856Y-12354356D02*
X8353856Y-12283644D01*
X8283144Y-12283644D01*
X8283144Y-12354356D01*
X8353856Y-12354356D01*
X8268500Y-12523000D02*
X8368500Y-12623000D01*
X8368500Y-12523000D02*
X8268500Y-12623000D01*
X8353856Y-12608356D02*
X8353856Y-12537644D01*
X8283144Y-12537644D01*
X8283144Y-12608356D01*
X8353856Y-12608356D01*
X8268500Y-12777000D02*
X8368500Y-12877000D01*
X8368500Y-12777000D02*
X8268500Y-12877000D01*
X8353856Y-12862356D02*
X8353856Y-12791644D01*
X8283144Y-12791644D01*
X8283144Y-12862356D01*
X8353856Y-12862356D01*
X8268500Y-13031000D02*
X8368500Y-13131000D01*
X8368500Y-13031000D02*
X8268500Y-13131000D01*
X8353856Y-13116356D02*
X8353856Y-13045644D01*
X8283144Y-13045644D01*
X8283144Y-13116356D01*
X8353856Y-13116356D01*
X8268500Y-13285000D02*
X8368500Y-13385000D01*
X8368500Y-13285000D02*
X8268500Y-13385000D01*
X8353856Y-13370356D02*
X8353856Y-13299644D01*
X8283144Y-13299644D01*
X8283144Y-13370356D01*
X8353856Y-13370356D01*
X8268500Y-13539000D02*
X8368500Y-13639000D01*
X8368500Y-13539000D02*
X8268500Y-13639000D01*
X8353856Y-13624356D02*
X8353856Y-13553644D01*
X8283144Y-13553644D01*
X8283144Y-13624356D01*
X8353856Y-13624356D01*
X8268500Y-13793000D02*
X8368500Y-13893000D01*
X8368500Y-13793000D02*
X8268500Y-13893000D01*
X8353856Y-13878356D02*
X8353856Y-13807644D01*
X8283144Y-13807644D01*
X8283144Y-13878356D01*
X8353856Y-13878356D01*
X8268500Y-14047000D02*
X8368500Y-14147000D01*
X8368500Y-14047000D02*
X8268500Y-14147000D01*
X8353856Y-14132356D02*
X8353856Y-14061644D01*
X8283144Y-14061644D01*
X8283144Y-14132356D01*
X8353856Y-14132356D01*
X8268500Y-14301000D02*
X8368500Y-14401000D01*
X8368500Y-14301000D02*
X8268500Y-14401000D01*
X8353856Y-14386356D02*
X8353856Y-14315644D01*
X8283144Y-14315644D01*
X8283144Y-14386356D01*
X8353856Y-14386356D01*
X8268500Y-14555000D02*
X8368500Y-14655000D01*
X8368500Y-14555000D02*
X8268500Y-14655000D01*
X8353856Y-14640356D02*
X8353856Y-14569644D01*
X8283144Y-14569644D01*
X8283144Y-14640356D01*
X8353856Y-14640356D01*
X8268500Y-14809000D02*
X8368500Y-14909000D01*
X8368500Y-14809000D02*
X8268500Y-14909000D01*
X8353856Y-14894356D02*
X8353856Y-14823644D01*
X8283144Y-14823644D01*
X8283144Y-14894356D01*
X8353856Y-14894356D01*
X8268500Y-15063000D02*
X8368500Y-15163000D01*
X8368500Y-15063000D02*
X8268500Y-15163000D01*
X8353856Y-15148356D02*
X8353856Y-15077644D01*
X8283144Y-15077644D01*
X8283144Y-15148356D01*
X8353856Y-15148356D01*
X8522500Y-10237000D02*
X8622500Y-10337000D01*
X8622500Y-10237000D02*
X8522500Y-10337000D01*
X8607856Y-10322356D02*
X8607856Y-10251644D01*
X8537144Y-10251644D01*
X8537144Y-10322356D01*
X8607856Y-10322356D01*
X8522500Y-10491000D02*
X8622500Y-10591000D01*
X8622500Y-10491000D02*
X8522500Y-10591000D01*
X8607856Y-10576356D02*
X8607856Y-10505644D01*
X8537144Y-10505644D01*
X8537144Y-10576356D01*
X8607856Y-10576356D01*
X8522500Y-10745000D02*
X8622500Y-10845000D01*
X8622500Y-10745000D02*
X8522500Y-10845000D01*
X8607856Y-10830356D02*
X8607856Y-10759644D01*
X8537144Y-10759644D01*
X8537144Y-10830356D01*
X8607856Y-10830356D01*
X8522500Y-10999000D02*
X8622500Y-11099000D01*
X8622500Y-10999000D02*
X8522500Y-11099000D01*
X8607856Y-11084356D02*
X8607856Y-11013644D01*
X8537144Y-11013644D01*
X8537144Y-11084356D01*
X8607856Y-11084356D01*
X8522500Y-11253000D02*
X8622500Y-11353000D01*
X8622500Y-11253000D02*
X8522500Y-11353000D01*
X8607856Y-11338356D02*
X8607856Y-11267644D01*
X8537144Y-11267644D01*
X8537144Y-11338356D01*
X8607856Y-11338356D01*
X8522500Y-11507000D02*
X8622500Y-11607000D01*
X8622500Y-11507000D02*
X8522500Y-11607000D01*
X8607856Y-11592356D02*
X8607856Y-11521644D01*
X8537144Y-11521644D01*
X8537144Y-11592356D01*
X8607856Y-11592356D01*
X8522500Y-11761000D02*
X8622500Y-11861000D01*
X8622500Y-11761000D02*
X8522500Y-11861000D01*
X8607856Y-11846356D02*
X8607856Y-11775644D01*
X8537144Y-11775644D01*
X8537144Y-11846356D01*
X8607856Y-11846356D01*
X8522500Y-12015000D02*
X8622500Y-12115000D01*
X8622500Y-12015000D02*
X8522500Y-12115000D01*
X8607856Y-12100356D02*
X8607856Y-12029644D01*
X8537144Y-12029644D01*
X8537144Y-12100356D01*
X8607856Y-12100356D01*
X8522500Y-12269000D02*
X8622500Y-12369000D01*
X8622500Y-12269000D02*
X8522500Y-12369000D01*
X8607856Y-12354356D02*
X8607856Y-12283644D01*
X8537144Y-12283644D01*
X8537144Y-12354356D01*
X8607856Y-12354356D01*
X8522500Y-12523000D02*
X8622500Y-12623000D01*
X8622500Y-12523000D02*
X8522500Y-12623000D01*
X8607856Y-12608356D02*
X8607856Y-12537644D01*
X8537144Y-12537644D01*
X8537144Y-12608356D01*
X8607856Y-12608356D01*
X8522500Y-12777000D02*
X8622500Y-12877000D01*
X8622500Y-12777000D02*
X8522500Y-12877000D01*
X8607856Y-12862356D02*
X8607856Y-12791644D01*
X8537144Y-12791644D01*
X8537144Y-12862356D01*
X8607856Y-12862356D01*
X8522500Y-13031000D02*
X8622500Y-13131000D01*
X8622500Y-13031000D02*
X8522500Y-13131000D01*
X8607856Y-13116356D02*
X8607856Y-13045644D01*
X8537144Y-13045644D01*
X8537144Y-13116356D01*
X8607856Y-13116356D01*
X8522500Y-13285000D02*
X8622500Y-13385000D01*
X8622500Y-13285000D02*
X8522500Y-13385000D01*
X8607856Y-13370356D02*
X8607856Y-13299644D01*
X8537144Y-13299644D01*
X8537144Y-13370356D01*
X8607856Y-13370356D01*
X8522500Y-13539000D02*
X8622500Y-13639000D01*
X8622500Y-13539000D02*
X8522500Y-13639000D01*
X8607856Y-13624356D02*
X8607856Y-13553644D01*
X8537144Y-13553644D01*
X8537144Y-13624356D01*
X8607856Y-13624356D01*
X8522500Y-13793000D02*
X8622500Y-13893000D01*
X8622500Y-13793000D02*
X8522500Y-13893000D01*
X8607856Y-13878356D02*
X8607856Y-13807644D01*
X8537144Y-13807644D01*
X8537144Y-13878356D01*
X8607856Y-13878356D01*
X8522500Y-14047000D02*
X8622500Y-14147000D01*
X8622500Y-14047000D02*
X8522500Y-14147000D01*
X8607856Y-14132356D02*
X8607856Y-14061644D01*
X8537144Y-14061644D01*
X8537144Y-14132356D01*
X8607856Y-14132356D01*
X8522500Y-14301000D02*
X8622500Y-14401000D01*
X8622500Y-14301000D02*
X8522500Y-14401000D01*
X8607856Y-14386356D02*
X8607856Y-14315644D01*
X8537144Y-14315644D01*
X8537144Y-14386356D01*
X8607856Y-14386356D01*
X8522500Y-14555000D02*
X8622500Y-14655000D01*
X8622500Y-14555000D02*
X8522500Y-14655000D01*
X8607856Y-14640356D02*
X8607856Y-14569644D01*
X8537144Y-14569644D01*
X8537144Y-14640356D01*
X8607856Y-14640356D01*
X8522500Y-14809000D02*
X8622500Y-14909000D01*
X8622500Y-14809000D02*
X8522500Y-14909000D01*
X8607856Y-14894356D02*
X8607856Y-14823644D01*
X8537144Y-14823644D01*
X8537144Y-14894356D01*
X8607856Y-14894356D01*
X8522500Y-15063000D02*
X8622500Y-15163000D01*
X8622500Y-15063000D02*
X8522500Y-15163000D01*
X8607856Y-15148356D02*
X8607856Y-15077644D01*
X8537144Y-15077644D01*
X8537144Y-15148356D01*
X8607856Y-15148356D01*
X8878000Y-8095500D02*
X8978000Y-8195500D01*
X8978000Y-8095500D02*
X8878000Y-8195500D01*
X8963356Y-8180856D02*
X8963356Y-8110144D01*
X8892644Y-8110144D01*
X8892644Y-8180856D01*
X8963356Y-8180856D01*
X8888000Y-8045500D02*
X8888000Y-8245500D01*
X8968000Y-8045500D02*
X8968000Y-8245500D01*
X8888000Y-8245500D02*
G75*
G03*
X8968000Y-8245500I40000J0D01*
G01*
X8968000Y-8045500D02*
G75*
G03*
X8888000Y-8045500I-40000J0D01*
G01*
X9348000Y-7795500D02*
X9448000Y-7895500D01*
X9448000Y-7795500D02*
X9348000Y-7895500D01*
X9433356Y-7880856D02*
X9433356Y-7810144D01*
X9362644Y-7810144D01*
X9362644Y-7880856D01*
X9433356Y-7880856D01*
X9498000Y-7805500D02*
X9298000Y-7805500D01*
X9498000Y-7885500D02*
X9298000Y-7885500D01*
X9298000Y-7805500D02*
G75*
G03*
X9298000Y-7885500I0J-40000D01*
G01*
X9498000Y-7885500D02*
G75*
G03*
X9498000Y-7805500I0J40000D01*
G01*
X9348000Y-8395500D02*
X9448000Y-8495500D01*
X9448000Y-8395500D02*
X9348000Y-8495500D01*
X9433356Y-8480856D02*
X9433356Y-8410144D01*
X9362644Y-8410144D01*
X9362644Y-8480856D01*
X9433356Y-8480856D01*
X9498000Y-8405500D02*
X9298000Y-8405500D01*
X9498000Y-8485500D02*
X9298000Y-8485500D01*
X9298000Y-8405500D02*
G75*
G03*
X9298000Y-8485500I0J-40000D01*
G01*
X9498000Y-8485500D02*
G75*
G03*
X9498000Y-8405500I0J40000D01*
G01*
X10681500Y-15952000D02*
X10781500Y-16052000D01*
X10781500Y-15952000D02*
X10681500Y-16052000D01*
X10766856Y-16037356D02*
X10766856Y-15966644D01*
X10696144Y-15966644D01*
X10696144Y-16037356D01*
X10766856Y-16037356D01*
X10681500Y-16206000D02*
X10781500Y-16306000D01*
X10781500Y-16206000D02*
X10681500Y-16306000D01*
X10766856Y-16291356D02*
X10766856Y-16220644D01*
X10696144Y-16220644D01*
X10696144Y-16291356D01*
X10766856Y-16291356D01*
X10935500Y-15952000D02*
X11035500Y-16052000D01*
X11035500Y-15952000D02*
X10935500Y-16052000D01*
X11020856Y-16037356D02*
X11020856Y-15966644D01*
X10950144Y-15966644D01*
X10950144Y-16037356D01*
X11020856Y-16037356D01*
X10935500Y-16206000D02*
X11035500Y-16306000D01*
X11035500Y-16206000D02*
X10935500Y-16306000D01*
X11020856Y-16291356D02*
X11020856Y-16220644D01*
X10950144Y-16220644D01*
X10950144Y-16291356D01*
X11020856Y-16291356D01*
X11189500Y-15952000D02*
X11289500Y-16052000D01*
X11289500Y-15952000D02*
X11189500Y-16052000D01*
X11274856Y-16037356D02*
X11274856Y-15966644D01*
X11204144Y-15966644D01*
X11204144Y-16037356D01*
X11274856Y-16037356D01*
X11189500Y-16206000D02*
X11289500Y-16306000D01*
X11289500Y-16206000D02*
X11189500Y-16306000D01*
X11274856Y-16291356D02*
X11274856Y-16220644D01*
X11204144Y-16220644D01*
X11204144Y-16291356D01*
X11274856Y-16291356D01*
X11443500Y-15952000D02*
X11543500Y-16052000D01*
X11543500Y-15952000D02*
X11443500Y-16052000D01*
X11528856Y-16037356D02*
X11528856Y-15966644D01*
X11458144Y-15966644D01*
X11458144Y-16037356D01*
X11528856Y-16037356D01*
X11443500Y-16206000D02*
X11543500Y-16306000D01*
X11543500Y-16206000D02*
X11443500Y-16306000D01*
X11528856Y-16291356D02*
X11528856Y-16220644D01*
X11458144Y-16220644D01*
X11458144Y-16291356D01*
X11528856Y-16291356D01*
X11697500Y-15952000D02*
X11797500Y-16052000D01*
X11797500Y-15952000D02*
X11697500Y-16052000D01*
X11782856Y-16037356D02*
X11782856Y-15966644D01*
X11712144Y-15966644D01*
X11712144Y-16037356D01*
X11782856Y-16037356D01*
X11697500Y-16206000D02*
X11797500Y-16306000D01*
X11797500Y-16206000D02*
X11697500Y-16306000D01*
X11782856Y-16291356D02*
X11782856Y-16220644D01*
X11712144Y-16220644D01*
X11712144Y-16291356D01*
X11782856Y-16291356D01*
X11951500Y-15952000D02*
X12051500Y-16052000D01*
X12051500Y-15952000D02*
X11951500Y-16052000D01*
X12036856Y-16037356D02*
X12036856Y-15966644D01*
X11966144Y-15966644D01*
X11966144Y-16037356D01*
X12036856Y-16037356D01*
X11951500Y-16206000D02*
X12051500Y-16306000D01*
X12051500Y-16206000D02*
X11951500Y-16306000D01*
X12036856Y-16291356D02*
X12036856Y-16220644D01*
X11966144Y-16220644D01*
X11966144Y-16291356D01*
X12036856Y-16291356D01*
X12967500Y-15952000D02*
X13067500Y-16052000D01*
X13067500Y-15952000D02*
X12967500Y-16052000D01*
X13052856Y-16037356D02*
X13052856Y-15966644D01*
X12982144Y-15966644D01*
X12982144Y-16037356D01*
X13052856Y-16037356D01*
X12967500Y-16206000D02*
X13067500Y-16306000D01*
X13067500Y-16206000D02*
X12967500Y-16306000D01*
X13052856Y-16291356D02*
X13052856Y-16220644D01*
X12982144Y-16220644D01*
X12982144Y-16291356D01*
X13052856Y-16291356D01*
X13221500Y-15952000D02*
X13321500Y-16052000D01*
X13321500Y-15952000D02*
X13221500Y-16052000D01*
X13306856Y-16037356D02*
X13306856Y-15966644D01*
X13236144Y-15966644D01*
X13236144Y-16037356D01*
X13306856Y-16037356D01*
X13221500Y-16206000D02*
X13321500Y-16306000D01*
X13321500Y-16206000D02*
X13221500Y-16306000D01*
X13306856Y-16291356D02*
X13306856Y-16220644D01*
X13236144Y-16220644D01*
X13236144Y-16291356D01*
X13306856Y-16291356D01*
X13475500Y-15952000D02*
X13575500Y-16052000D01*
X13575500Y-15952000D02*
X13475500Y-16052000D01*
X13560856Y-16037356D02*
X13560856Y-15966644D01*
X13490144Y-15966644D01*
X13490144Y-16037356D01*
X13560856Y-16037356D01*
X13475500Y-16206000D02*
X13575500Y-16306000D01*
X13575500Y-16206000D02*
X13475500Y-16306000D01*
X13560856Y-16291356D02*
X13560856Y-16220644D01*
X13490144Y-16220644D01*
X13490144Y-16291356D01*
X13560856Y-16291356D01*
X13729500Y-15952000D02*
X13829500Y-16052000D01*
X13829500Y-15952000D02*
X13729500Y-16052000D01*
X13814856Y-16037356D02*
X13814856Y-15966644D01*
X13744144Y-15966644D01*
X13744144Y-16037356D01*
X13814856Y-16037356D01*
X13729500Y-16206000D02*
X13829500Y-16306000D01*
X13829500Y-16206000D02*
X13729500Y-16306000D01*
X13814856Y-16291356D02*
X13814856Y-16220644D01*
X13744144Y-16220644D01*
X13744144Y-16291356D01*
X13814856Y-16291356D01*
X13983500Y-15952000D02*
X14083500Y-16052000D01*
X14083500Y-15952000D02*
X13983500Y-16052000D01*
X14068856Y-16037356D02*
X14068856Y-15966644D01*
X13998144Y-15966644D01*
X13998144Y-16037356D01*
X14068856Y-16037356D01*
X13983500Y-16206000D02*
X14083500Y-16306000D01*
X14083500Y-16206000D02*
X13983500Y-16306000D01*
X14068856Y-16291356D02*
X14068856Y-16220644D01*
X13998144Y-16220644D01*
X13998144Y-16291356D01*
X14068856Y-16291356D01*
X14237500Y-15952000D02*
X14337500Y-16052000D01*
X14337500Y-15952000D02*
X14237500Y-16052000D01*
X14322856Y-16037356D02*
X14322856Y-15966644D01*
X14252144Y-15966644D01*
X14252144Y-16037356D01*
X14322856Y-16037356D01*
X14237500Y-16206000D02*
X14337500Y-16306000D01*
X14337500Y-16206000D02*
X14237500Y-16306000D01*
X14322856Y-16291356D02*
X14322856Y-16220644D01*
X14252144Y-16220644D01*
X14252144Y-16291356D01*
X14322856Y-16291356D01*
X14999500Y-16079000D02*
X15099500Y-16179000D01*
X15099500Y-16079000D02*
X14999500Y-16179000D01*
X15084856Y-16164356D02*
X15084856Y-16093644D01*
X15014144Y-16093644D01*
X15014144Y-16164356D01*
X15084856Y-16164356D01*
X15253500Y-16079000D02*
X15353500Y-16179000D01*
X15353500Y-16079000D02*
X15253500Y-16179000D01*
X15338856Y-16164356D02*
X15338856Y-16093644D01*
X15268144Y-16093644D01*
X15268144Y-16164356D01*
X15338856Y-16164356D01*
X15507500Y-16079000D02*
X15607500Y-16179000D01*
X15607500Y-16079000D02*
X15507500Y-16179000D01*
X15592856Y-16164356D02*
X15592856Y-16093644D01*
X15522144Y-16093644D01*
X15522144Y-16164356D01*
X15592856Y-16164356D01*
X15761500Y-16079000D02*
X15861500Y-16179000D01*
X15861500Y-16079000D02*
X15761500Y-16179000D01*
X15846856Y-16164356D02*
X15846856Y-16093644D01*
X15776144Y-16093644D01*
X15776144Y-16164356D01*
X15846856Y-16164356D01*
X16015500Y-16079000D02*
X16115500Y-16179000D01*
X16115500Y-16079000D02*
X16015500Y-16179000D01*
X16100856Y-16164356D02*
X16100856Y-16093644D01*
X16030144Y-16093644D01*
X16030144Y-16164356D01*
X16100856Y-16164356D01*
X16269500Y-16079000D02*
X16369500Y-16179000D01*
X16369500Y-16079000D02*
X16269500Y-16179000D01*
X16354856Y-16164356D02*
X16354856Y-16093644D01*
X16284144Y-16093644D01*
X16284144Y-16164356D01*
X16354856Y-16164356D01*
X16841000Y-15977400D02*
X16941000Y-16077400D01*
X16941000Y-15977400D02*
X16841000Y-16077400D01*
X16926356Y-16062756D02*
X16926356Y-15992044D01*
X16855644Y-15992044D01*
X16855644Y-16062756D01*
X16926356Y-16062756D01*
X16841000Y-16231400D02*
X16941000Y-16331400D01*
X16941000Y-16231400D02*
X16841000Y-16331400D01*
X16926356Y-16316756D02*
X16926356Y-16246044D01*
X16855644Y-16246044D01*
X16855644Y-16316756D01*
X16926356Y-16316756D01*
X17095000Y-15977400D02*
X17195000Y-16077400D01*
X17195000Y-15977400D02*
X17095000Y-16077400D01*
X17180356Y-16062756D02*
X17180356Y-15992044D01*
X17109644Y-15992044D01*
X17109644Y-16062756D01*
X17180356Y-16062756D01*
X17095000Y-16231400D02*
X17195000Y-16331400D01*
X17195000Y-16231400D02*
X17095000Y-16331400D01*
X17180356Y-16316756D02*
X17180356Y-16246044D01*
X17109644Y-16246044D01*
X17109644Y-16316756D01*
X17180356Y-16316756D01*
X8898500Y-9343000D02*
X9008500Y-9453000D01*
X9008500Y-9343000D02*
X8898500Y-9453000D01*
X8953500Y-9453000D02*
X9008500Y-9398000D01*
X8953500Y-9343000D01*
X8898500Y-9398000D01*
X8953500Y-9453000D01*
X9914500Y-9343000D02*
X10024500Y-9453000D01*
X10024500Y-9343000D02*
X9914500Y-9453000D01*
X9969500Y-9453000D02*
X10024500Y-9398000D01*
X9969500Y-9343000D01*
X9914500Y-9398000D01*
X9969500Y-9453000D01*
X10613000Y-7501500D02*
X10723000Y-7611500D01*
X10723000Y-7501500D02*
X10613000Y-7611500D01*
X10668000Y-7611500D02*
X10723000Y-7556500D01*
X10668000Y-7501500D01*
X10613000Y-7556500D01*
X10668000Y-7611500D01*
X10867000Y-7501500D02*
X10977000Y-7611500D01*
X10977000Y-7501500D02*
X10867000Y-7611500D01*
X10922000Y-7611500D02*
X10977000Y-7556500D01*
X10922000Y-7501500D01*
X10867000Y-7556500D01*
X10922000Y-7611500D01*
X11121000Y-7501500D02*
X11231000Y-7611500D01*
X11231000Y-7501500D02*
X11121000Y-7611500D01*
X11176000Y-7611500D02*
X11231000Y-7556500D01*
X11176000Y-7501500D01*
X11121000Y-7556500D01*
X11176000Y-7611500D01*
X8204200Y-7345700D02*
X8204200Y-7665700D01*
X8044200Y-7505700D02*
X8364200Y-7505700D01*
X8364200Y-7505700D02*
G75*
G03*
X8364200Y-7505700I-160000J0D01*
G01*
X8204200Y-16400800D02*
X8204200Y-16720800D01*
X8044200Y-16560800D02*
X8364200Y-16560800D01*
X8364200Y-16560800D02*
G75*
G03*
X8364200Y-16560800I-160000J0D01*
G01*
X18973800Y-7345700D02*
X18973800Y-7665700D01*
X18813800Y-7505700D02*
X19133800Y-7505700D01*
X19133800Y-7505700D02*
G75*
G03*
X19133800Y-7505700I-160000J0D01*
G01*
X18973800Y-16400800D02*
X18973800Y-16720800D01*
X18813800Y-16560800D02*
X19133800Y-16560800D01*
X19133800Y-16560800D02*
G75*
G03*
X19133800Y-16560800I-160000J0D01*
G01*
D12*
X8030928Y-17486214D02*
X8030928Y-17186214D01*
X8102357Y-17186214D01*
X8145214Y-17200500D01*
X8173786Y-17229072D01*
X8188071Y-17257643D01*
X8202357Y-17314786D01*
X8202357Y-17357643D01*
X8188071Y-17414786D01*
X8173786Y-17443357D01*
X8145214Y-17471929D01*
X8102357Y-17486214D01*
X8030928Y-17486214D01*
X8330928Y-17486214D02*
X8330928Y-17286214D01*
X8330928Y-17343357D02*
X8345214Y-17314786D01*
X8359500Y-17300500D01*
X8388071Y-17286214D01*
X8416643Y-17286214D01*
X8516643Y-17486214D02*
X8516643Y-17286214D01*
X8516643Y-17186214D02*
X8502357Y-17200500D01*
X8516643Y-17214786D01*
X8530928Y-17200500D01*
X8516643Y-17186214D01*
X8516643Y-17214786D01*
X8702357Y-17486214D02*
X8673786Y-17471929D01*
X8659500Y-17443357D01*
X8659500Y-17186214D01*
X8859500Y-17486214D02*
X8830928Y-17471929D01*
X8816643Y-17443357D01*
X8816643Y-17186214D01*
X9202357Y-17486214D02*
X9202357Y-17186214D01*
X9302357Y-17400500D01*
X9402357Y-17186214D01*
X9402357Y-17486214D01*
X9673786Y-17486214D02*
X9673786Y-17329072D01*
X9659500Y-17300500D01*
X9630928Y-17286214D01*
X9573786Y-17286214D01*
X9545214Y-17300500D01*
X9673786Y-17471929D02*
X9645214Y-17486214D01*
X9573786Y-17486214D01*
X9545214Y-17471929D01*
X9530928Y-17443357D01*
X9530928Y-17414786D01*
X9545214Y-17386214D01*
X9573786Y-17371929D01*
X9645214Y-17371929D01*
X9673786Y-17357643D01*
X9816643Y-17286214D02*
X9816643Y-17586214D01*
X9816643Y-17300500D02*
X9845214Y-17286214D01*
X9902357Y-17286214D01*
X9930928Y-17300500D01*
X9945214Y-17314786D01*
X9959500Y-17343357D01*
X9959500Y-17429072D01*
X9945214Y-17457643D01*
X9930928Y-17471929D01*
X9902357Y-17486214D01*
X9845214Y-17486214D01*
X9816643Y-17471929D01*
X10088071Y-17457643D02*
X10102357Y-17471929D01*
X10088071Y-17486214D01*
X10073786Y-17471929D01*
X10088071Y-17457643D01*
X10088071Y-17486214D01*
X10088071Y-17300500D02*
X10102357Y-17314786D01*
X10088071Y-17329072D01*
X10073786Y-17314786D01*
X10088071Y-17300500D01*
X10088071Y-17329072D01*
X7704500Y-17960500D02*
X7744500Y-18000500D01*
X7744500Y-17960500D02*
X7704500Y-18000500D01*
X8088071Y-17816214D02*
X8116643Y-17816214D01*
X8145214Y-17830500D01*
X8159500Y-17844786D01*
X8173786Y-17873357D01*
X8188071Y-17930500D01*
X8188071Y-18001929D01*
X8173786Y-18059072D01*
X8159500Y-18087643D01*
X8145214Y-18101929D01*
X8116643Y-18116214D01*
X8088071Y-18116214D01*
X8059500Y-18101929D01*
X8045214Y-18087643D01*
X8030928Y-18059072D01*
X8016643Y-18001929D01*
X8016643Y-17930500D01*
X8030928Y-17873357D01*
X8045214Y-17844786D01*
X8059500Y-17830500D01*
X8088071Y-17816214D01*
X8316643Y-18087643D02*
X8330928Y-18101929D01*
X8316643Y-18116214D01*
X8302357Y-18101929D01*
X8316643Y-18087643D01*
X8316643Y-18116214D01*
X8588071Y-17916214D02*
X8588071Y-18116214D01*
X8516643Y-17801929D02*
X8445214Y-18016214D01*
X8630928Y-18016214D01*
X8802357Y-17816214D02*
X8830928Y-17816214D01*
X8859500Y-17830500D01*
X8873786Y-17844786D01*
X8888071Y-17873357D01*
X8902357Y-17930500D01*
X8902357Y-18001929D01*
X8888071Y-18059072D01*
X8873786Y-18087643D01*
X8859500Y-18101929D01*
X8830928Y-18116214D01*
X8802357Y-18116214D01*
X8773786Y-18101929D01*
X8759500Y-18087643D01*
X8745214Y-18059072D01*
X8730928Y-18001929D01*
X8730928Y-17930500D01*
X8745214Y-17873357D01*
X8759500Y-17844786D01*
X8773786Y-17830500D01*
X8802357Y-17816214D01*
X9030928Y-18116214D02*
X9030928Y-17916214D01*
X9030928Y-17944786D02*
X9045214Y-17930500D01*
X9073786Y-17916214D01*
X9116643Y-17916214D01*
X9145214Y-17930500D01*
X9159500Y-17959072D01*
X9159500Y-18116214D01*
X9159500Y-17959072D02*
X9173786Y-17930500D01*
X9202357Y-17916214D01*
X9245214Y-17916214D01*
X9273786Y-17930500D01*
X9288071Y-17959072D01*
X9288071Y-18116214D01*
X9430928Y-18116214D02*
X9430928Y-17916214D01*
X9430928Y-17944786D02*
X9445214Y-17930500D01*
X9473786Y-17916214D01*
X9516643Y-17916214D01*
X9545214Y-17930500D01*
X9559500Y-17959072D01*
X9559500Y-18116214D01*
X9559500Y-17959072D02*
X9573786Y-17930500D01*
X9602357Y-17916214D01*
X9645214Y-17916214D01*
X9673786Y-17930500D01*
X9688071Y-17959072D01*
X9688071Y-18116214D01*
X10273786Y-17801929D02*
X10016643Y-18187643D01*
X10659500Y-17816214D02*
X10688071Y-17816214D01*
X10716643Y-17830500D01*
X10730928Y-17844786D01*
X10745214Y-17873357D01*
X10759500Y-17930500D01*
X10759500Y-18001929D01*
X10745214Y-18059072D01*
X10730928Y-18087643D01*
X10716643Y-18101929D01*
X10688071Y-18116214D01*
X10659500Y-18116214D01*
X10630928Y-18101929D01*
X10616643Y-18087643D01*
X10602357Y-18059072D01*
X10588071Y-18001929D01*
X10588071Y-17930500D01*
X10602357Y-17873357D01*
X10616643Y-17844786D01*
X10630928Y-17830500D01*
X10659500Y-17816214D01*
X10888071Y-18087643D02*
X10902357Y-18101929D01*
X10888071Y-18116214D01*
X10873786Y-18101929D01*
X10888071Y-18087643D01*
X10888071Y-18116214D01*
X11088071Y-17816214D02*
X11116643Y-17816214D01*
X11145214Y-17830500D01*
X11159500Y-17844786D01*
X11173786Y-17873357D01*
X11188071Y-17930500D01*
X11188071Y-18001929D01*
X11173786Y-18059072D01*
X11159500Y-18087643D01*
X11145214Y-18101929D01*
X11116643Y-18116214D01*
X11088071Y-18116214D01*
X11059500Y-18101929D01*
X11045214Y-18087643D01*
X11030928Y-18059072D01*
X11016643Y-18001929D01*
X11016643Y-17930500D01*
X11030928Y-17873357D01*
X11045214Y-17844786D01*
X11059500Y-17830500D01*
X11088071Y-17816214D01*
X11473786Y-18116214D02*
X11302357Y-18116214D01*
X11388071Y-18116214D02*
X11388071Y-17816214D01*
X11359500Y-17859072D01*
X11330928Y-17887643D01*
X11302357Y-17901929D01*
X11730928Y-17816214D02*
X11673786Y-17816214D01*
X11645214Y-17830500D01*
X11630928Y-17844786D01*
X11602357Y-17887643D01*
X11588071Y-17944786D01*
X11588071Y-18059072D01*
X11602357Y-18087643D01*
X11616643Y-18101929D01*
X11645214Y-18116214D01*
X11702357Y-18116214D01*
X11730928Y-18101929D01*
X11745214Y-18087643D01*
X11759500Y-18059072D01*
X11759500Y-17987643D01*
X11745214Y-17959072D01*
X11730928Y-17944786D01*
X11702357Y-17930500D01*
X11645214Y-17930500D01*
X11616643Y-17944786D01*
X11602357Y-17959072D01*
X11588071Y-17987643D01*
X11873786Y-17816214D02*
X11873786Y-17873357D01*
X11988071Y-17816214D02*
X11988071Y-17873357D01*
X12430928Y-18230500D02*
X12416643Y-18216214D01*
X12388071Y-18173357D01*
X12373786Y-18144786D01*
X12359500Y-18101929D01*
X12345214Y-18030500D01*
X12345214Y-17973357D01*
X12359500Y-17901929D01*
X12373786Y-17859072D01*
X12388071Y-17830500D01*
X12416643Y-17787643D01*
X12430928Y-17773357D01*
X12702357Y-18116214D02*
X12530928Y-18116214D01*
X12616643Y-18116214D02*
X12616643Y-17816214D01*
X12588071Y-17859072D01*
X12559500Y-17887643D01*
X12530928Y-17901929D01*
X12888071Y-17816214D02*
X12916643Y-17816214D01*
X12945214Y-17830500D01*
X12959500Y-17844786D01*
X12973786Y-17873357D01*
X12988071Y-17930500D01*
X12988071Y-18001929D01*
X12973786Y-18059072D01*
X12959500Y-18087643D01*
X12945214Y-18101929D01*
X12916643Y-18116214D01*
X12888071Y-18116214D01*
X12859500Y-18101929D01*
X12845214Y-18087643D01*
X12830928Y-18059072D01*
X12816643Y-18001929D01*
X12816643Y-17930500D01*
X12830928Y-17873357D01*
X12845214Y-17844786D01*
X12859500Y-17830500D01*
X12888071Y-17816214D01*
X13259500Y-17816214D02*
X13116643Y-17816214D01*
X13102357Y-17959072D01*
X13116643Y-17944786D01*
X13145214Y-17930500D01*
X13216643Y-17930500D01*
X13245214Y-17944786D01*
X13259500Y-17959072D01*
X13273786Y-17987643D01*
X13273786Y-18059072D01*
X13259500Y-18087643D01*
X13245214Y-18101929D01*
X13216643Y-18116214D01*
X13145214Y-18116214D01*
X13116643Y-18101929D01*
X13102357Y-18087643D01*
X13630928Y-18116214D02*
X13630928Y-17816214D01*
X13759500Y-18116214D02*
X13759500Y-17959072D01*
X13745214Y-17930500D01*
X13716643Y-17916214D01*
X13673786Y-17916214D01*
X13645214Y-17930500D01*
X13630928Y-17944786D01*
X13945214Y-18116214D02*
X13916643Y-18101929D01*
X13902357Y-18087643D01*
X13888071Y-18059072D01*
X13888071Y-17973357D01*
X13902357Y-17944786D01*
X13916643Y-17930500D01*
X13945214Y-17916214D01*
X13988071Y-17916214D01*
X14016643Y-17930500D01*
X14030928Y-17944786D01*
X14045214Y-17973357D01*
X14045214Y-18059072D01*
X14030928Y-18087643D01*
X14016643Y-18101929D01*
X13988071Y-18116214D01*
X13945214Y-18116214D01*
X14216643Y-18116214D02*
X14188071Y-18101929D01*
X14173786Y-18073357D01*
X14173786Y-17816214D01*
X14445214Y-18101929D02*
X14416643Y-18116214D01*
X14359500Y-18116214D01*
X14330928Y-18101929D01*
X14316643Y-18073357D01*
X14316643Y-17959072D01*
X14330928Y-17930500D01*
X14359500Y-17916214D01*
X14416643Y-17916214D01*
X14445214Y-17930500D01*
X14459500Y-17959072D01*
X14459500Y-17987643D01*
X14316643Y-18016214D01*
X14573786Y-18101929D02*
X14602357Y-18116214D01*
X14659500Y-18116214D01*
X14688071Y-18101929D01*
X14702357Y-18073357D01*
X14702357Y-18059072D01*
X14688071Y-18030500D01*
X14659500Y-18016214D01*
X14616643Y-18016214D01*
X14588071Y-18001929D01*
X14573786Y-17973357D01*
X14573786Y-17959072D01*
X14588071Y-17930500D01*
X14616643Y-17916214D01*
X14659500Y-17916214D01*
X14688071Y-17930500D01*
X14802357Y-18230500D02*
X14816643Y-18216214D01*
X14845214Y-18173357D01*
X14859500Y-18144786D01*
X14873786Y-18101929D01*
X14888071Y-18030500D01*
X14888071Y-17973357D01*
X14873786Y-17901929D01*
X14859500Y-17859072D01*
X14845214Y-17830500D01*
X14816643Y-17787643D01*
X14802357Y-17773357D01*
X7744500Y-18376500D02*
G75*
G03*
X7744500Y-18376500I-25000J0D01*
G01*
X8088071Y-18212214D02*
X8116643Y-18212214D01*
X8145214Y-18226500D01*
X8159500Y-18240786D01*
X8173786Y-18269357D01*
X8188071Y-18326500D01*
X8188071Y-18397929D01*
X8173786Y-18455072D01*
X8159500Y-18483643D01*
X8145214Y-18497929D01*
X8116643Y-18512214D01*
X8088071Y-18512214D01*
X8059500Y-18497929D01*
X8045214Y-18483643D01*
X8030928Y-18455072D01*
X8016643Y-18397929D01*
X8016643Y-18326500D01*
X8030928Y-18269357D01*
X8045214Y-18240786D01*
X8059500Y-18226500D01*
X8088071Y-18212214D01*
X8316643Y-18483643D02*
X8330928Y-18497929D01*
X8316643Y-18512214D01*
X8302357Y-18497929D01*
X8316643Y-18483643D01*
X8316643Y-18512214D01*
X8602357Y-18212214D02*
X8459500Y-18212214D01*
X8445214Y-18355072D01*
X8459500Y-18340786D01*
X8488071Y-18326500D01*
X8559500Y-18326500D01*
X8588071Y-18340786D01*
X8602357Y-18355072D01*
X8616643Y-18383643D01*
X8616643Y-18455072D01*
X8602357Y-18483643D01*
X8588071Y-18497929D01*
X8559500Y-18512214D01*
X8488071Y-18512214D01*
X8459500Y-18497929D01*
X8445214Y-18483643D01*
X8802357Y-18212214D02*
X8830928Y-18212214D01*
X8859500Y-18226500D01*
X8873786Y-18240786D01*
X8888071Y-18269357D01*
X8902357Y-18326500D01*
X8902357Y-18397929D01*
X8888071Y-18455072D01*
X8873786Y-18483643D01*
X8859500Y-18497929D01*
X8830928Y-18512214D01*
X8802357Y-18512214D01*
X8773786Y-18497929D01*
X8759500Y-18483643D01*
X8745214Y-18455072D01*
X8730928Y-18397929D01*
X8730928Y-18326500D01*
X8745214Y-18269357D01*
X8759500Y-18240786D01*
X8773786Y-18226500D01*
X8802357Y-18212214D01*
X9030928Y-18512214D02*
X9030928Y-18312214D01*
X9030928Y-18340786D02*
X9045214Y-18326500D01*
X9073786Y-18312214D01*
X9116643Y-18312214D01*
X9145214Y-18326500D01*
X9159500Y-18355072D01*
X9159500Y-18512214D01*
X9159500Y-18355072D02*
X9173786Y-18326500D01*
X9202357Y-18312214D01*
X9245214Y-18312214D01*
X9273786Y-18326500D01*
X9288071Y-18355072D01*
X9288071Y-18512214D01*
X9430928Y-18512214D02*
X9430928Y-18312214D01*
X9430928Y-18340786D02*
X9445214Y-18326500D01*
X9473786Y-18312214D01*
X9516643Y-18312214D01*
X9545214Y-18326500D01*
X9559500Y-18355072D01*
X9559500Y-18512214D01*
X9559500Y-18355072D02*
X9573786Y-18326500D01*
X9602357Y-18312214D01*
X9645214Y-18312214D01*
X9673786Y-18326500D01*
X9688071Y-18355072D01*
X9688071Y-18512214D01*
X10273786Y-18197929D02*
X10016643Y-18583643D01*
X10659500Y-18212214D02*
X10688071Y-18212214D01*
X10716643Y-18226500D01*
X10730928Y-18240786D01*
X10745214Y-18269357D01*
X10759500Y-18326500D01*
X10759500Y-18397929D01*
X10745214Y-18455072D01*
X10730928Y-18483643D01*
X10716643Y-18497929D01*
X10688071Y-18512214D01*
X10659500Y-18512214D01*
X10630928Y-18497929D01*
X10616643Y-18483643D01*
X10602357Y-18455072D01*
X10588071Y-18397929D01*
X10588071Y-18326500D01*
X10602357Y-18269357D01*
X10616643Y-18240786D01*
X10630928Y-18226500D01*
X10659500Y-18212214D01*
X10888071Y-18483643D02*
X10902357Y-18497929D01*
X10888071Y-18512214D01*
X10873786Y-18497929D01*
X10888071Y-18483643D01*
X10888071Y-18512214D01*
X11088071Y-18212214D02*
X11116643Y-18212214D01*
X11145214Y-18226500D01*
X11159500Y-18240786D01*
X11173786Y-18269357D01*
X11188071Y-18326500D01*
X11188071Y-18397929D01*
X11173786Y-18455072D01*
X11159500Y-18483643D01*
X11145214Y-18497929D01*
X11116643Y-18512214D01*
X11088071Y-18512214D01*
X11059500Y-18497929D01*
X11045214Y-18483643D01*
X11030928Y-18455072D01*
X11016643Y-18397929D01*
X11016643Y-18326500D01*
X11030928Y-18269357D01*
X11045214Y-18240786D01*
X11059500Y-18226500D01*
X11088071Y-18212214D01*
X11302357Y-18240786D02*
X11316643Y-18226500D01*
X11345214Y-18212214D01*
X11416643Y-18212214D01*
X11445214Y-18226500D01*
X11459500Y-18240786D01*
X11473786Y-18269357D01*
X11473786Y-18297929D01*
X11459500Y-18340786D01*
X11288071Y-18512214D01*
X11473786Y-18512214D01*
X11659500Y-18212214D02*
X11688071Y-18212214D01*
X11716643Y-18226500D01*
X11730928Y-18240786D01*
X11745214Y-18269357D01*
X11759500Y-18326500D01*
X11759500Y-18397929D01*
X11745214Y-18455072D01*
X11730928Y-18483643D01*
X11716643Y-18497929D01*
X11688071Y-18512214D01*
X11659500Y-18512214D01*
X11630928Y-18497929D01*
X11616643Y-18483643D01*
X11602357Y-18455072D01*
X11588071Y-18397929D01*
X11588071Y-18326500D01*
X11602357Y-18269357D01*
X11616643Y-18240786D01*
X11630928Y-18226500D01*
X11659500Y-18212214D01*
X11873786Y-18212214D02*
X11873786Y-18269357D01*
X11988071Y-18212214D02*
X11988071Y-18269357D01*
X12430928Y-18626500D02*
X12416643Y-18612214D01*
X12388071Y-18569357D01*
X12373786Y-18540786D01*
X12359500Y-18497929D01*
X12345214Y-18426500D01*
X12345214Y-18369357D01*
X12359500Y-18297929D01*
X12373786Y-18255072D01*
X12388071Y-18226500D01*
X12416643Y-18183643D01*
X12430928Y-18169357D01*
X12516643Y-18212214D02*
X12702357Y-18212214D01*
X12602357Y-18326500D01*
X12645214Y-18326500D01*
X12673786Y-18340786D01*
X12688071Y-18355072D01*
X12702357Y-18383643D01*
X12702357Y-18455072D01*
X12688071Y-18483643D01*
X12673786Y-18497929D01*
X12645214Y-18512214D01*
X12559500Y-18512214D01*
X12530928Y-18497929D01*
X12516643Y-18483643D01*
X12816643Y-18240786D02*
X12830928Y-18226500D01*
X12859500Y-18212214D01*
X12930928Y-18212214D01*
X12959500Y-18226500D01*
X12973786Y-18240786D01*
X12988071Y-18269357D01*
X12988071Y-18297929D01*
X12973786Y-18340786D01*
X12802357Y-18512214D01*
X12988071Y-18512214D01*
X13345214Y-18512214D02*
X13345214Y-18212214D01*
X13473786Y-18512214D02*
X13473786Y-18355072D01*
X13459500Y-18326500D01*
X13430928Y-18312214D01*
X13388071Y-18312214D01*
X13359500Y-18326500D01*
X13345214Y-18340786D01*
X13659500Y-18512214D02*
X13630928Y-18497929D01*
X13616643Y-18483643D01*
X13602357Y-18455072D01*
X13602357Y-18369357D01*
X13616643Y-18340786D01*
X13630928Y-18326500D01*
X13659500Y-18312214D01*
X13702357Y-18312214D01*
X13730928Y-18326500D01*
X13745214Y-18340786D01*
X13759500Y-18369357D01*
X13759500Y-18455072D01*
X13745214Y-18483643D01*
X13730928Y-18497929D01*
X13702357Y-18512214D01*
X13659500Y-18512214D01*
X13930928Y-18512214D02*
X13902357Y-18497929D01*
X13888071Y-18469357D01*
X13888071Y-18212214D01*
X14159500Y-18497929D02*
X14130928Y-18512214D01*
X14073786Y-18512214D01*
X14045214Y-18497929D01*
X14030928Y-18469357D01*
X14030928Y-18355072D01*
X14045214Y-18326500D01*
X14073786Y-18312214D01*
X14130928Y-18312214D01*
X14159500Y-18326500D01*
X14173786Y-18355072D01*
X14173786Y-18383643D01*
X14030928Y-18412214D01*
X14288071Y-18497929D02*
X14316643Y-18512214D01*
X14373786Y-18512214D01*
X14402357Y-18497929D01*
X14416643Y-18469357D01*
X14416643Y-18455072D01*
X14402357Y-18426500D01*
X14373786Y-18412214D01*
X14330928Y-18412214D01*
X14302357Y-18397929D01*
X14288071Y-18369357D01*
X14288071Y-18355072D01*
X14302357Y-18326500D01*
X14330928Y-18312214D01*
X14373786Y-18312214D01*
X14402357Y-18326500D01*
X14516643Y-18626500D02*
X14530928Y-18612214D01*
X14559500Y-18569357D01*
X14573786Y-18540786D01*
X14588071Y-18497929D01*
X14602357Y-18426500D01*
X14602357Y-18369357D01*
X14588071Y-18297929D01*
X14573786Y-18255072D01*
X14559500Y-18226500D01*
X14530928Y-18183643D01*
X14516643Y-18169357D01*
X7714500Y-18742500D02*
X7714500Y-18802500D01*
X7684500Y-18772500D02*
X7744500Y-18772500D01*
X8088071Y-18608214D02*
X8116643Y-18608214D01*
X8145214Y-18622500D01*
X8159500Y-18636786D01*
X8173786Y-18665357D01*
X8188071Y-18722500D01*
X8188071Y-18793929D01*
X8173786Y-18851072D01*
X8159500Y-18879643D01*
X8145214Y-18893929D01*
X8116643Y-18908214D01*
X8088071Y-18908214D01*
X8059500Y-18893929D01*
X8045214Y-18879643D01*
X8030928Y-18851072D01*
X8016643Y-18793929D01*
X8016643Y-18722500D01*
X8030928Y-18665357D01*
X8045214Y-18636786D01*
X8059500Y-18622500D01*
X8088071Y-18608214D01*
X8316643Y-18879643D02*
X8330928Y-18893929D01*
X8316643Y-18908214D01*
X8302357Y-18893929D01*
X8316643Y-18879643D01*
X8316643Y-18908214D01*
X8588071Y-18608214D02*
X8530928Y-18608214D01*
X8502357Y-18622500D01*
X8488071Y-18636786D01*
X8459500Y-18679643D01*
X8445214Y-18736786D01*
X8445214Y-18851072D01*
X8459500Y-18879643D01*
X8473786Y-18893929D01*
X8502357Y-18908214D01*
X8559500Y-18908214D01*
X8588071Y-18893929D01*
X8602357Y-18879643D01*
X8616643Y-18851072D01*
X8616643Y-18779643D01*
X8602357Y-18751072D01*
X8588071Y-18736786D01*
X8559500Y-18722500D01*
X8502357Y-18722500D01*
X8473786Y-18736786D01*
X8459500Y-18751072D01*
X8445214Y-18779643D01*
X8802357Y-18608214D02*
X8830928Y-18608214D01*
X8859500Y-18622500D01*
X8873786Y-18636786D01*
X8888071Y-18665357D01*
X8902357Y-18722500D01*
X8902357Y-18793929D01*
X8888071Y-18851072D01*
X8873786Y-18879643D01*
X8859500Y-18893929D01*
X8830928Y-18908214D01*
X8802357Y-18908214D01*
X8773786Y-18893929D01*
X8759500Y-18879643D01*
X8745214Y-18851072D01*
X8730928Y-18793929D01*
X8730928Y-18722500D01*
X8745214Y-18665357D01*
X8759500Y-18636786D01*
X8773786Y-18622500D01*
X8802357Y-18608214D01*
X9030928Y-18908214D02*
X9030928Y-18708214D01*
X9030928Y-18736786D02*
X9045214Y-18722500D01*
X9073786Y-18708214D01*
X9116643Y-18708214D01*
X9145214Y-18722500D01*
X9159500Y-18751072D01*
X9159500Y-18908214D01*
X9159500Y-18751072D02*
X9173786Y-18722500D01*
X9202357Y-18708214D01*
X9245214Y-18708214D01*
X9273786Y-18722500D01*
X9288071Y-18751072D01*
X9288071Y-18908214D01*
X9430928Y-18908214D02*
X9430928Y-18708214D01*
X9430928Y-18736786D02*
X9445214Y-18722500D01*
X9473786Y-18708214D01*
X9516643Y-18708214D01*
X9545214Y-18722500D01*
X9559500Y-18751072D01*
X9559500Y-18908214D01*
X9559500Y-18751072D02*
X9573786Y-18722500D01*
X9602357Y-18708214D01*
X9645214Y-18708214D01*
X9673786Y-18722500D01*
X9688071Y-18751072D01*
X9688071Y-18908214D01*
X10273786Y-18593929D02*
X10016643Y-18979643D01*
X10659500Y-18608214D02*
X10688071Y-18608214D01*
X10716643Y-18622500D01*
X10730928Y-18636786D01*
X10745214Y-18665357D01*
X10759500Y-18722500D01*
X10759500Y-18793929D01*
X10745214Y-18851072D01*
X10730928Y-18879643D01*
X10716643Y-18893929D01*
X10688071Y-18908214D01*
X10659500Y-18908214D01*
X10630928Y-18893929D01*
X10616643Y-18879643D01*
X10602357Y-18851072D01*
X10588071Y-18793929D01*
X10588071Y-18722500D01*
X10602357Y-18665357D01*
X10616643Y-18636786D01*
X10630928Y-18622500D01*
X10659500Y-18608214D01*
X10888071Y-18879643D02*
X10902357Y-18893929D01*
X10888071Y-18908214D01*
X10873786Y-18893929D01*
X10888071Y-18879643D01*
X10888071Y-18908214D01*
X11088071Y-18608214D02*
X11116643Y-18608214D01*
X11145214Y-18622500D01*
X11159500Y-18636786D01*
X11173786Y-18665357D01*
X11188071Y-18722500D01*
X11188071Y-18793929D01*
X11173786Y-18851072D01*
X11159500Y-18879643D01*
X11145214Y-18893929D01*
X11116643Y-18908214D01*
X11088071Y-18908214D01*
X11059500Y-18893929D01*
X11045214Y-18879643D01*
X11030928Y-18851072D01*
X11016643Y-18793929D01*
X11016643Y-18722500D01*
X11030928Y-18665357D01*
X11045214Y-18636786D01*
X11059500Y-18622500D01*
X11088071Y-18608214D01*
X11302357Y-18636786D02*
X11316643Y-18622500D01*
X11345214Y-18608214D01*
X11416643Y-18608214D01*
X11445214Y-18622500D01*
X11459500Y-18636786D01*
X11473786Y-18665357D01*
X11473786Y-18693929D01*
X11459500Y-18736786D01*
X11288071Y-18908214D01*
X11473786Y-18908214D01*
X11730928Y-18708214D02*
X11730928Y-18908214D01*
X11659500Y-18593929D02*
X11588071Y-18808214D01*
X11773786Y-18808214D01*
X11873786Y-18608214D02*
X11873786Y-18665357D01*
X11988071Y-18608214D02*
X11988071Y-18665357D01*
X12430928Y-19022500D02*
X12416643Y-19008214D01*
X12388071Y-18965357D01*
X12373786Y-18936786D01*
X12359500Y-18893929D01*
X12345214Y-18822500D01*
X12345214Y-18765357D01*
X12359500Y-18693929D01*
X12373786Y-18651072D01*
X12388071Y-18622500D01*
X12416643Y-18579643D01*
X12430928Y-18565357D01*
X12530928Y-18636786D02*
X12545214Y-18622500D01*
X12573786Y-18608214D01*
X12645214Y-18608214D01*
X12673786Y-18622500D01*
X12688071Y-18636786D01*
X12702357Y-18665357D01*
X12702357Y-18693929D01*
X12688071Y-18736786D01*
X12516643Y-18908214D01*
X12702357Y-18908214D01*
X13059500Y-18908214D02*
X13059500Y-18608214D01*
X13188071Y-18908214D02*
X13188071Y-18751072D01*
X13173786Y-18722500D01*
X13145214Y-18708214D01*
X13102357Y-18708214D01*
X13073786Y-18722500D01*
X13059500Y-18736786D01*
X13373786Y-18908214D02*
X13345214Y-18893929D01*
X13330928Y-18879643D01*
X13316643Y-18851072D01*
X13316643Y-18765357D01*
X13330928Y-18736786D01*
X13345214Y-18722500D01*
X13373786Y-18708214D01*
X13416643Y-18708214D01*
X13445214Y-18722500D01*
X13459500Y-18736786D01*
X13473786Y-18765357D01*
X13473786Y-18851072D01*
X13459500Y-18879643D01*
X13445214Y-18893929D01*
X13416643Y-18908214D01*
X13373786Y-18908214D01*
X13645214Y-18908214D02*
X13616643Y-18893929D01*
X13602357Y-18865357D01*
X13602357Y-18608214D01*
X13873786Y-18893929D02*
X13845214Y-18908214D01*
X13788071Y-18908214D01*
X13759500Y-18893929D01*
X13745214Y-18865357D01*
X13745214Y-18751072D01*
X13759500Y-18722500D01*
X13788071Y-18708214D01*
X13845214Y-18708214D01*
X13873786Y-18722500D01*
X13888071Y-18751072D01*
X13888071Y-18779643D01*
X13745214Y-18808214D01*
X14002357Y-18893929D02*
X14030928Y-18908214D01*
X14088071Y-18908214D01*
X14116643Y-18893929D01*
X14130928Y-18865357D01*
X14130928Y-18851072D01*
X14116643Y-18822500D01*
X14088071Y-18808214D01*
X14045214Y-18808214D01*
X14016643Y-18793929D01*
X14002357Y-18765357D01*
X14002357Y-18751072D01*
X14016643Y-18722500D01*
X14045214Y-18708214D01*
X14088071Y-18708214D01*
X14116643Y-18722500D01*
X14230928Y-19022500D02*
X14245214Y-19008214D01*
X14273786Y-18965357D01*
X14288071Y-18936786D01*
X14302357Y-18893929D01*
X14316643Y-18822500D01*
X14316643Y-18765357D01*
X14302357Y-18693929D01*
X14288071Y-18651072D01*
X14273786Y-18622500D01*
X14245214Y-18579643D01*
X14230928Y-18565357D01*
X7733517Y-19195017D02*
X7733517Y-19141983D01*
X7680483Y-19141983D01*
X7680483Y-19195017D01*
X7733517Y-19195017D01*
X8088071Y-19004214D02*
X8116643Y-19004214D01*
X8145214Y-19018500D01*
X8159500Y-19032786D01*
X8173786Y-19061357D01*
X8188071Y-19118500D01*
X8188071Y-19189929D01*
X8173786Y-19247072D01*
X8159500Y-19275643D01*
X8145214Y-19289929D01*
X8116643Y-19304214D01*
X8088071Y-19304214D01*
X8059500Y-19289929D01*
X8045214Y-19275643D01*
X8030928Y-19247072D01*
X8016643Y-19189929D01*
X8016643Y-19118500D01*
X8030928Y-19061357D01*
X8045214Y-19032786D01*
X8059500Y-19018500D01*
X8088071Y-19004214D01*
X8316643Y-19275643D02*
X8330928Y-19289929D01*
X8316643Y-19304214D01*
X8302357Y-19289929D01*
X8316643Y-19275643D01*
X8316643Y-19304214D01*
X8430928Y-19004214D02*
X8630928Y-19004214D01*
X8502357Y-19304214D01*
X8888071Y-19004214D02*
X8745214Y-19004214D01*
X8730928Y-19147072D01*
X8745214Y-19132786D01*
X8773786Y-19118500D01*
X8845214Y-19118500D01*
X8873786Y-19132786D01*
X8888071Y-19147072D01*
X8902357Y-19175643D01*
X8902357Y-19247072D01*
X8888071Y-19275643D01*
X8873786Y-19289929D01*
X8845214Y-19304214D01*
X8773786Y-19304214D01*
X8745214Y-19289929D01*
X8730928Y-19275643D01*
X9030928Y-19304214D02*
X9030928Y-19104214D01*
X9030928Y-19132786D02*
X9045214Y-19118500D01*
X9073786Y-19104214D01*
X9116643Y-19104214D01*
X9145214Y-19118500D01*
X9159500Y-19147072D01*
X9159500Y-19304214D01*
X9159500Y-19147072D02*
X9173786Y-19118500D01*
X9202357Y-19104214D01*
X9245214Y-19104214D01*
X9273786Y-19118500D01*
X9288071Y-19147072D01*
X9288071Y-19304214D01*
X9430928Y-19304214D02*
X9430928Y-19104214D01*
X9430928Y-19132786D02*
X9445214Y-19118500D01*
X9473786Y-19104214D01*
X9516643Y-19104214D01*
X9545214Y-19118500D01*
X9559500Y-19147072D01*
X9559500Y-19304214D01*
X9559500Y-19147072D02*
X9573786Y-19118500D01*
X9602357Y-19104214D01*
X9645214Y-19104214D01*
X9673786Y-19118500D01*
X9688071Y-19147072D01*
X9688071Y-19304214D01*
X10273786Y-18989929D02*
X10016643Y-19375643D01*
X10659500Y-19004214D02*
X10688071Y-19004214D01*
X10716643Y-19018500D01*
X10730928Y-19032786D01*
X10745214Y-19061357D01*
X10759500Y-19118500D01*
X10759500Y-19189929D01*
X10745214Y-19247072D01*
X10730928Y-19275643D01*
X10716643Y-19289929D01*
X10688071Y-19304214D01*
X10659500Y-19304214D01*
X10630928Y-19289929D01*
X10616643Y-19275643D01*
X10602357Y-19247072D01*
X10588071Y-19189929D01*
X10588071Y-19118500D01*
X10602357Y-19061357D01*
X10616643Y-19032786D01*
X10630928Y-19018500D01*
X10659500Y-19004214D01*
X10888071Y-19275643D02*
X10902357Y-19289929D01*
X10888071Y-19304214D01*
X10873786Y-19289929D01*
X10888071Y-19275643D01*
X10888071Y-19304214D01*
X11088071Y-19004214D02*
X11116643Y-19004214D01*
X11145214Y-19018500D01*
X11159500Y-19032786D01*
X11173786Y-19061357D01*
X11188071Y-19118500D01*
X11188071Y-19189929D01*
X11173786Y-19247072D01*
X11159500Y-19275643D01*
X11145214Y-19289929D01*
X11116643Y-19304214D01*
X11088071Y-19304214D01*
X11059500Y-19289929D01*
X11045214Y-19275643D01*
X11030928Y-19247072D01*
X11016643Y-19189929D01*
X11016643Y-19118500D01*
X11030928Y-19061357D01*
X11045214Y-19032786D01*
X11059500Y-19018500D01*
X11088071Y-19004214D01*
X11288071Y-19004214D02*
X11473786Y-19004214D01*
X11373786Y-19118500D01*
X11416643Y-19118500D01*
X11445214Y-19132786D01*
X11459500Y-19147072D01*
X11473786Y-19175643D01*
X11473786Y-19247072D01*
X11459500Y-19275643D01*
X11445214Y-19289929D01*
X11416643Y-19304214D01*
X11330928Y-19304214D01*
X11302357Y-19289929D01*
X11288071Y-19275643D01*
X11659500Y-19004214D02*
X11688071Y-19004214D01*
X11716643Y-19018500D01*
X11730928Y-19032786D01*
X11745214Y-19061357D01*
X11759500Y-19118500D01*
X11759500Y-19189929D01*
X11745214Y-19247072D01*
X11730928Y-19275643D01*
X11716643Y-19289929D01*
X11688071Y-19304214D01*
X11659500Y-19304214D01*
X11630928Y-19289929D01*
X11616643Y-19275643D01*
X11602357Y-19247072D01*
X11588071Y-19189929D01*
X11588071Y-19118500D01*
X11602357Y-19061357D01*
X11616643Y-19032786D01*
X11630928Y-19018500D01*
X11659500Y-19004214D01*
X11873786Y-19004214D02*
X11873786Y-19061357D01*
X11988071Y-19004214D02*
X11988071Y-19061357D01*
X12430928Y-19418500D02*
X12416643Y-19404214D01*
X12388071Y-19361357D01*
X12373786Y-19332786D01*
X12359500Y-19289929D01*
X12345214Y-19218500D01*
X12345214Y-19161357D01*
X12359500Y-19089929D01*
X12373786Y-19047072D01*
X12388071Y-19018500D01*
X12416643Y-18975643D01*
X12430928Y-18961357D01*
X12516643Y-19004214D02*
X12702357Y-19004214D01*
X12602357Y-19118500D01*
X12645214Y-19118500D01*
X12673786Y-19132786D01*
X12688071Y-19147072D01*
X12702357Y-19175643D01*
X12702357Y-19247072D01*
X12688071Y-19275643D01*
X12673786Y-19289929D01*
X12645214Y-19304214D01*
X12559500Y-19304214D01*
X12530928Y-19289929D01*
X12516643Y-19275643D01*
X13059500Y-19304214D02*
X13059500Y-19004214D01*
X13188071Y-19304214D02*
X13188071Y-19147072D01*
X13173786Y-19118500D01*
X13145214Y-19104214D01*
X13102357Y-19104214D01*
X13073786Y-19118500D01*
X13059500Y-19132786D01*
X13373786Y-19304214D02*
X13345214Y-19289929D01*
X13330928Y-19275643D01*
X13316643Y-19247072D01*
X13316643Y-19161357D01*
X13330928Y-19132786D01*
X13345214Y-19118500D01*
X13373786Y-19104214D01*
X13416643Y-19104214D01*
X13445214Y-19118500D01*
X13459500Y-19132786D01*
X13473786Y-19161357D01*
X13473786Y-19247072D01*
X13459500Y-19275643D01*
X13445214Y-19289929D01*
X13416643Y-19304214D01*
X13373786Y-19304214D01*
X13645214Y-19304214D02*
X13616643Y-19289929D01*
X13602357Y-19261357D01*
X13602357Y-19004214D01*
X13873786Y-19289929D02*
X13845214Y-19304214D01*
X13788071Y-19304214D01*
X13759500Y-19289929D01*
X13745214Y-19261357D01*
X13745214Y-19147072D01*
X13759500Y-19118500D01*
X13788071Y-19104214D01*
X13845214Y-19104214D01*
X13873786Y-19118500D01*
X13888071Y-19147072D01*
X13888071Y-19175643D01*
X13745214Y-19204214D01*
X14002357Y-19289929D02*
X14030928Y-19304214D01*
X14088071Y-19304214D01*
X14116643Y-19289929D01*
X14130928Y-19261357D01*
X14130928Y-19247072D01*
X14116643Y-19218500D01*
X14088071Y-19204214D01*
X14045214Y-19204214D01*
X14016643Y-19189929D01*
X14002357Y-19161357D01*
X14002357Y-19147072D01*
X14016643Y-19118500D01*
X14045214Y-19104214D01*
X14088071Y-19104214D01*
X14116643Y-19118500D01*
X14230928Y-19418500D02*
X14245214Y-19404214D01*
X14273786Y-19361357D01*
X14288071Y-19332786D01*
X14302357Y-19289929D01*
X14316643Y-19218500D01*
X14316643Y-19161357D01*
X14302357Y-19089929D01*
X14288071Y-19047072D01*
X14273786Y-19018500D01*
X14245214Y-18975643D01*
X14230928Y-18961357D01*
X7704500Y-19604500D02*
X7744500Y-19564500D01*
X7704500Y-19524500D01*
X7664500Y-19564500D01*
X7704500Y-19604500D01*
X8088071Y-19400214D02*
X8116643Y-19400214D01*
X8145214Y-19414500D01*
X8159500Y-19428786D01*
X8173786Y-19457357D01*
X8188071Y-19514500D01*
X8188071Y-19585929D01*
X8173786Y-19643072D01*
X8159500Y-19671643D01*
X8145214Y-19685929D01*
X8116643Y-19700214D01*
X8088071Y-19700214D01*
X8059500Y-19685929D01*
X8045214Y-19671643D01*
X8030928Y-19643072D01*
X8016643Y-19585929D01*
X8016643Y-19514500D01*
X8030928Y-19457357D01*
X8045214Y-19428786D01*
X8059500Y-19414500D01*
X8088071Y-19400214D01*
X8316643Y-19671643D02*
X8330928Y-19685929D01*
X8316643Y-19700214D01*
X8302357Y-19685929D01*
X8316643Y-19671643D01*
X8316643Y-19700214D01*
X8502357Y-19528786D02*
X8473786Y-19514500D01*
X8459500Y-19500214D01*
X8445214Y-19471643D01*
X8445214Y-19457357D01*
X8459500Y-19428786D01*
X8473786Y-19414500D01*
X8502357Y-19400214D01*
X8559500Y-19400214D01*
X8588071Y-19414500D01*
X8602357Y-19428786D01*
X8616643Y-19457357D01*
X8616643Y-19471643D01*
X8602357Y-19500214D01*
X8588071Y-19514500D01*
X8559500Y-19528786D01*
X8502357Y-19528786D01*
X8473786Y-19543072D01*
X8459500Y-19557357D01*
X8445214Y-19585929D01*
X8445214Y-19643072D01*
X8459500Y-19671643D01*
X8473786Y-19685929D01*
X8502357Y-19700214D01*
X8559500Y-19700214D01*
X8588071Y-19685929D01*
X8602357Y-19671643D01*
X8616643Y-19643072D01*
X8616643Y-19585929D01*
X8602357Y-19557357D01*
X8588071Y-19543072D01*
X8559500Y-19528786D01*
X8802357Y-19400214D02*
X8830928Y-19400214D01*
X8859500Y-19414500D01*
X8873786Y-19428786D01*
X8888071Y-19457357D01*
X8902357Y-19514500D01*
X8902357Y-19585929D01*
X8888071Y-19643072D01*
X8873786Y-19671643D01*
X8859500Y-19685929D01*
X8830928Y-19700214D01*
X8802357Y-19700214D01*
X8773786Y-19685929D01*
X8759500Y-19671643D01*
X8745214Y-19643072D01*
X8730928Y-19585929D01*
X8730928Y-19514500D01*
X8745214Y-19457357D01*
X8759500Y-19428786D01*
X8773786Y-19414500D01*
X8802357Y-19400214D01*
X9030928Y-19700214D02*
X9030928Y-19500214D01*
X9030928Y-19528786D02*
X9045214Y-19514500D01*
X9073786Y-19500214D01*
X9116643Y-19500214D01*
X9145214Y-19514500D01*
X9159500Y-19543072D01*
X9159500Y-19700214D01*
X9159500Y-19543072D02*
X9173786Y-19514500D01*
X9202357Y-19500214D01*
X9245214Y-19500214D01*
X9273786Y-19514500D01*
X9288071Y-19543072D01*
X9288071Y-19700214D01*
X9430928Y-19700214D02*
X9430928Y-19500214D01*
X9430928Y-19528786D02*
X9445214Y-19514500D01*
X9473786Y-19500214D01*
X9516643Y-19500214D01*
X9545214Y-19514500D01*
X9559500Y-19543072D01*
X9559500Y-19700214D01*
X9559500Y-19543072D02*
X9573786Y-19514500D01*
X9602357Y-19500214D01*
X9645214Y-19500214D01*
X9673786Y-19514500D01*
X9688071Y-19543072D01*
X9688071Y-19700214D01*
X10273786Y-19385929D02*
X10016643Y-19771643D01*
X10659500Y-19400214D02*
X10688071Y-19400214D01*
X10716643Y-19414500D01*
X10730928Y-19428786D01*
X10745214Y-19457357D01*
X10759500Y-19514500D01*
X10759500Y-19585929D01*
X10745214Y-19643072D01*
X10730928Y-19671643D01*
X10716643Y-19685929D01*
X10688071Y-19700214D01*
X10659500Y-19700214D01*
X10630928Y-19685929D01*
X10616643Y-19671643D01*
X10602357Y-19643072D01*
X10588071Y-19585929D01*
X10588071Y-19514500D01*
X10602357Y-19457357D01*
X10616643Y-19428786D01*
X10630928Y-19414500D01*
X10659500Y-19400214D01*
X10888071Y-19671643D02*
X10902357Y-19685929D01*
X10888071Y-19700214D01*
X10873786Y-19685929D01*
X10888071Y-19671643D01*
X10888071Y-19700214D01*
X11088071Y-19400214D02*
X11116643Y-19400214D01*
X11145214Y-19414500D01*
X11159500Y-19428786D01*
X11173786Y-19457357D01*
X11188071Y-19514500D01*
X11188071Y-19585929D01*
X11173786Y-19643072D01*
X11159500Y-19671643D01*
X11145214Y-19685929D01*
X11116643Y-19700214D01*
X11088071Y-19700214D01*
X11059500Y-19685929D01*
X11045214Y-19671643D01*
X11030928Y-19643072D01*
X11016643Y-19585929D01*
X11016643Y-19514500D01*
X11030928Y-19457357D01*
X11045214Y-19428786D01*
X11059500Y-19414500D01*
X11088071Y-19400214D01*
X11288071Y-19400214D02*
X11473786Y-19400214D01*
X11373786Y-19514500D01*
X11416643Y-19514500D01*
X11445214Y-19528786D01*
X11459500Y-19543072D01*
X11473786Y-19571643D01*
X11473786Y-19643072D01*
X11459500Y-19671643D01*
X11445214Y-19685929D01*
X11416643Y-19700214D01*
X11330928Y-19700214D01*
X11302357Y-19685929D01*
X11288071Y-19671643D01*
X11759500Y-19700214D02*
X11588071Y-19700214D01*
X11673786Y-19700214D02*
X11673786Y-19400214D01*
X11645214Y-19443072D01*
X11616643Y-19471643D01*
X11588071Y-19485929D01*
X11873786Y-19400214D02*
X11873786Y-19457357D01*
X11988071Y-19400214D02*
X11988071Y-19457357D01*
X12430928Y-19814500D02*
X12416643Y-19800214D01*
X12388071Y-19757357D01*
X12373786Y-19728786D01*
X12359500Y-19685929D01*
X12345214Y-19614500D01*
X12345214Y-19557357D01*
X12359500Y-19485929D01*
X12373786Y-19443072D01*
X12388071Y-19414500D01*
X12416643Y-19371643D01*
X12430928Y-19357357D01*
X12530928Y-19428786D02*
X12545214Y-19414500D01*
X12573786Y-19400214D01*
X12645214Y-19400214D01*
X12673786Y-19414500D01*
X12688071Y-19428786D01*
X12702357Y-19457357D01*
X12702357Y-19485929D01*
X12688071Y-19528786D01*
X12516643Y-19700214D01*
X12702357Y-19700214D01*
X12802357Y-19400214D02*
X12988071Y-19400214D01*
X12888071Y-19514500D01*
X12930928Y-19514500D01*
X12959500Y-19528786D01*
X12973786Y-19543072D01*
X12988071Y-19571643D01*
X12988071Y-19643072D01*
X12973786Y-19671643D01*
X12959500Y-19685929D01*
X12930928Y-19700214D01*
X12845214Y-19700214D01*
X12816643Y-19685929D01*
X12802357Y-19671643D01*
X13173786Y-19400214D02*
X13202357Y-19400214D01*
X13230928Y-19414500D01*
X13245214Y-19428786D01*
X13259500Y-19457357D01*
X13273786Y-19514500D01*
X13273786Y-19585929D01*
X13259500Y-19643072D01*
X13245214Y-19671643D01*
X13230928Y-19685929D01*
X13202357Y-19700214D01*
X13173786Y-19700214D01*
X13145214Y-19685929D01*
X13130928Y-19671643D01*
X13116643Y-19643072D01*
X13102357Y-19585929D01*
X13102357Y-19514500D01*
X13116643Y-19457357D01*
X13130928Y-19428786D01*
X13145214Y-19414500D01*
X13173786Y-19400214D01*
X13630928Y-19700214D02*
X13630928Y-19400214D01*
X13759500Y-19700214D02*
X13759500Y-19543072D01*
X13745214Y-19514500D01*
X13716643Y-19500214D01*
X13673786Y-19500214D01*
X13645214Y-19514500D01*
X13630928Y-19528786D01*
X13945214Y-19700214D02*
X13916643Y-19685929D01*
X13902357Y-19671643D01*
X13888071Y-19643072D01*
X13888071Y-19557357D01*
X13902357Y-19528786D01*
X13916643Y-19514500D01*
X13945214Y-19500214D01*
X13988071Y-19500214D01*
X14016643Y-19514500D01*
X14030928Y-19528786D01*
X14045214Y-19557357D01*
X14045214Y-19643072D01*
X14030928Y-19671643D01*
X14016643Y-19685929D01*
X13988071Y-19700214D01*
X13945214Y-19700214D01*
X14216643Y-19700214D02*
X14188071Y-19685929D01*
X14173786Y-19657357D01*
X14173786Y-19400214D01*
X14445214Y-19685929D02*
X14416643Y-19700214D01*
X14359500Y-19700214D01*
X14330928Y-19685929D01*
X14316643Y-19657357D01*
X14316643Y-19543072D01*
X14330928Y-19514500D01*
X14359500Y-19500214D01*
X14416643Y-19500214D01*
X14445214Y-19514500D01*
X14459500Y-19543072D01*
X14459500Y-19571643D01*
X14316643Y-19600214D01*
X14573786Y-19685929D02*
X14602357Y-19700214D01*
X14659500Y-19700214D01*
X14688071Y-19685929D01*
X14702357Y-19657357D01*
X14702357Y-19643072D01*
X14688071Y-19614500D01*
X14659500Y-19600214D01*
X14616643Y-19600214D01*
X14588071Y-19585929D01*
X14573786Y-19557357D01*
X14573786Y-19543072D01*
X14588071Y-19514500D01*
X14616643Y-19500214D01*
X14659500Y-19500214D01*
X14688071Y-19514500D01*
X14802357Y-19814500D02*
X14816643Y-19800214D01*
X14845214Y-19757357D01*
X14859500Y-19728786D01*
X14873786Y-19685929D01*
X14888071Y-19614500D01*
X14888071Y-19557357D01*
X14873786Y-19485929D01*
X14859500Y-19443072D01*
X14845214Y-19414500D01*
X14816643Y-19371643D01*
X14802357Y-19357357D01*
X7663220Y-19919860D02*
X7744500Y-20001140D01*
X7744500Y-19919860D02*
X7663220Y-20001140D01*
X7744500Y-19960500D02*
G75*
G03*
X7744500Y-19960500I-40640J0D01*
G01*
X8088071Y-19796214D02*
X8116643Y-19796214D01*
X8145214Y-19810500D01*
X8159500Y-19824786D01*
X8173786Y-19853357D01*
X8188071Y-19910500D01*
X8188071Y-19981929D01*
X8173786Y-20039072D01*
X8159500Y-20067643D01*
X8145214Y-20081929D01*
X8116643Y-20096214D01*
X8088071Y-20096214D01*
X8059500Y-20081929D01*
X8045214Y-20067643D01*
X8030928Y-20039072D01*
X8016643Y-19981929D01*
X8016643Y-19910500D01*
X8030928Y-19853357D01*
X8045214Y-19824786D01*
X8059500Y-19810500D01*
X8088071Y-19796214D01*
X8316643Y-20067643D02*
X8330928Y-20081929D01*
X8316643Y-20096214D01*
X8302357Y-20081929D01*
X8316643Y-20067643D01*
X8316643Y-20096214D01*
X8502357Y-19924786D02*
X8473786Y-19910500D01*
X8459500Y-19896214D01*
X8445214Y-19867643D01*
X8445214Y-19853357D01*
X8459500Y-19824786D01*
X8473786Y-19810500D01*
X8502357Y-19796214D01*
X8559500Y-19796214D01*
X8588071Y-19810500D01*
X8602357Y-19824786D01*
X8616643Y-19853357D01*
X8616643Y-19867643D01*
X8602357Y-19896214D01*
X8588071Y-19910500D01*
X8559500Y-19924786D01*
X8502357Y-19924786D01*
X8473786Y-19939072D01*
X8459500Y-19953357D01*
X8445214Y-19981929D01*
X8445214Y-20039072D01*
X8459500Y-20067643D01*
X8473786Y-20081929D01*
X8502357Y-20096214D01*
X8559500Y-20096214D01*
X8588071Y-20081929D01*
X8602357Y-20067643D01*
X8616643Y-20039072D01*
X8616643Y-19981929D01*
X8602357Y-19953357D01*
X8588071Y-19939072D01*
X8559500Y-19924786D01*
X8902357Y-20096214D02*
X8730928Y-20096214D01*
X8816643Y-20096214D02*
X8816643Y-19796214D01*
X8788071Y-19839072D01*
X8759500Y-19867643D01*
X8730928Y-19881929D01*
X9030928Y-20096214D02*
X9030928Y-19896214D01*
X9030928Y-19924786D02*
X9045214Y-19910500D01*
X9073786Y-19896214D01*
X9116643Y-19896214D01*
X9145214Y-19910500D01*
X9159500Y-19939072D01*
X9159500Y-20096214D01*
X9159500Y-19939072D02*
X9173786Y-19910500D01*
X9202357Y-19896214D01*
X9245214Y-19896214D01*
X9273786Y-19910500D01*
X9288071Y-19939072D01*
X9288071Y-20096214D01*
X9430928Y-20096214D02*
X9430928Y-19896214D01*
X9430928Y-19924786D02*
X9445214Y-19910500D01*
X9473786Y-19896214D01*
X9516643Y-19896214D01*
X9545214Y-19910500D01*
X9559500Y-19939072D01*
X9559500Y-20096214D01*
X9559500Y-19939072D02*
X9573786Y-19910500D01*
X9602357Y-19896214D01*
X9645214Y-19896214D01*
X9673786Y-19910500D01*
X9688071Y-19939072D01*
X9688071Y-20096214D01*
X10273786Y-19781929D02*
X10016643Y-20167643D01*
X10659500Y-19796214D02*
X10688071Y-19796214D01*
X10716643Y-19810500D01*
X10730928Y-19824786D01*
X10745214Y-19853357D01*
X10759500Y-19910500D01*
X10759500Y-19981929D01*
X10745214Y-20039072D01*
X10730928Y-20067643D01*
X10716643Y-20081929D01*
X10688071Y-20096214D01*
X10659500Y-20096214D01*
X10630928Y-20081929D01*
X10616643Y-20067643D01*
X10602357Y-20039072D01*
X10588071Y-19981929D01*
X10588071Y-19910500D01*
X10602357Y-19853357D01*
X10616643Y-19824786D01*
X10630928Y-19810500D01*
X10659500Y-19796214D01*
X10888071Y-20067643D02*
X10902357Y-20081929D01*
X10888071Y-20096214D01*
X10873786Y-20081929D01*
X10888071Y-20067643D01*
X10888071Y-20096214D01*
X11088071Y-19796214D02*
X11116643Y-19796214D01*
X11145214Y-19810500D01*
X11159500Y-19824786D01*
X11173786Y-19853357D01*
X11188071Y-19910500D01*
X11188071Y-19981929D01*
X11173786Y-20039072D01*
X11159500Y-20067643D01*
X11145214Y-20081929D01*
X11116643Y-20096214D01*
X11088071Y-20096214D01*
X11059500Y-20081929D01*
X11045214Y-20067643D01*
X11030928Y-20039072D01*
X11016643Y-19981929D01*
X11016643Y-19910500D01*
X11030928Y-19853357D01*
X11045214Y-19824786D01*
X11059500Y-19810500D01*
X11088071Y-19796214D01*
X11288071Y-19796214D02*
X11473786Y-19796214D01*
X11373786Y-19910500D01*
X11416643Y-19910500D01*
X11445214Y-19924786D01*
X11459500Y-19939072D01*
X11473786Y-19967643D01*
X11473786Y-20039072D01*
X11459500Y-20067643D01*
X11445214Y-20081929D01*
X11416643Y-20096214D01*
X11330928Y-20096214D01*
X11302357Y-20081929D01*
X11288071Y-20067643D01*
X11588071Y-19824786D02*
X11602357Y-19810500D01*
X11630928Y-19796214D01*
X11702357Y-19796214D01*
X11730928Y-19810500D01*
X11745214Y-19824786D01*
X11759500Y-19853357D01*
X11759500Y-19881929D01*
X11745214Y-19924786D01*
X11573786Y-20096214D01*
X11759500Y-20096214D01*
X11873786Y-19796214D02*
X11873786Y-19853357D01*
X11988071Y-19796214D02*
X11988071Y-19853357D01*
X12430928Y-20210500D02*
X12416643Y-20196214D01*
X12388071Y-20153357D01*
X12373786Y-20124786D01*
X12359500Y-20081929D01*
X12345214Y-20010500D01*
X12345214Y-19953357D01*
X12359500Y-19881929D01*
X12373786Y-19839072D01*
X12388071Y-19810500D01*
X12416643Y-19767643D01*
X12430928Y-19753357D01*
X12673786Y-19896214D02*
X12673786Y-20096214D01*
X12602357Y-19781929D02*
X12530928Y-19996214D01*
X12716643Y-19996214D01*
X13059500Y-20096214D02*
X13059500Y-19796214D01*
X13188071Y-20096214D02*
X13188071Y-19939072D01*
X13173786Y-19910500D01*
X13145214Y-19896214D01*
X13102357Y-19896214D01*
X13073786Y-19910500D01*
X13059500Y-19924786D01*
X13373786Y-20096214D02*
X13345214Y-20081929D01*
X13330928Y-20067643D01*
X13316643Y-20039072D01*
X13316643Y-19953357D01*
X13330928Y-19924786D01*
X13345214Y-19910500D01*
X13373786Y-19896214D01*
X13416643Y-19896214D01*
X13445214Y-19910500D01*
X13459500Y-19924786D01*
X13473786Y-19953357D01*
X13473786Y-20039072D01*
X13459500Y-20067643D01*
X13445214Y-20081929D01*
X13416643Y-20096214D01*
X13373786Y-20096214D01*
X13645214Y-20096214D02*
X13616643Y-20081929D01*
X13602357Y-20053357D01*
X13602357Y-19796214D01*
X13873786Y-20081929D02*
X13845214Y-20096214D01*
X13788071Y-20096214D01*
X13759500Y-20081929D01*
X13745214Y-20053357D01*
X13745214Y-19939072D01*
X13759500Y-19910500D01*
X13788071Y-19896214D01*
X13845214Y-19896214D01*
X13873786Y-19910500D01*
X13888071Y-19939072D01*
X13888071Y-19967643D01*
X13745214Y-19996214D01*
X14002357Y-20081929D02*
X14030928Y-20096214D01*
X14088071Y-20096214D01*
X14116643Y-20081929D01*
X14130928Y-20053357D01*
X14130928Y-20039072D01*
X14116643Y-20010500D01*
X14088071Y-19996214D01*
X14045214Y-19996214D01*
X14016643Y-19981929D01*
X14002357Y-19953357D01*
X14002357Y-19939072D01*
X14016643Y-19910500D01*
X14045214Y-19896214D01*
X14088071Y-19896214D01*
X14116643Y-19910500D01*
X14230928Y-20210500D02*
X14245214Y-20196214D01*
X14273786Y-20153357D01*
X14288071Y-20124786D01*
X14302357Y-20081929D01*
X14316643Y-20010500D01*
X14316643Y-19953357D01*
X14302357Y-19881929D01*
X14288071Y-19839072D01*
X14273786Y-19810500D01*
X14245214Y-19767643D01*
X14230928Y-19753357D01*
X7654500Y-20311500D02*
X7744500Y-20401500D01*
X7744500Y-20311500D02*
X7654500Y-20401500D01*
X7699500Y-20311500D02*
X7699500Y-20401500D01*
X7654500Y-20356500D02*
X7744500Y-20356500D01*
X8088071Y-20192214D02*
X8116643Y-20192214D01*
X8145214Y-20206500D01*
X8159500Y-20220786D01*
X8173786Y-20249357D01*
X8188071Y-20306500D01*
X8188071Y-20377929D01*
X8173786Y-20435072D01*
X8159500Y-20463643D01*
X8145214Y-20477929D01*
X8116643Y-20492214D01*
X8088071Y-20492214D01*
X8059500Y-20477929D01*
X8045214Y-20463643D01*
X8030928Y-20435072D01*
X8016643Y-20377929D01*
X8016643Y-20306500D01*
X8030928Y-20249357D01*
X8045214Y-20220786D01*
X8059500Y-20206500D01*
X8088071Y-20192214D01*
X8316643Y-20463643D02*
X8330928Y-20477929D01*
X8316643Y-20492214D01*
X8302357Y-20477929D01*
X8316643Y-20463643D01*
X8316643Y-20492214D01*
X8473786Y-20492214D02*
X8530928Y-20492214D01*
X8559500Y-20477929D01*
X8573786Y-20463643D01*
X8602357Y-20420786D01*
X8616643Y-20363643D01*
X8616643Y-20249357D01*
X8602357Y-20220786D01*
X8588071Y-20206500D01*
X8559500Y-20192214D01*
X8502357Y-20192214D01*
X8473786Y-20206500D01*
X8459500Y-20220786D01*
X8445214Y-20249357D01*
X8445214Y-20320786D01*
X8459500Y-20349357D01*
X8473786Y-20363643D01*
X8502357Y-20377929D01*
X8559500Y-20377929D01*
X8588071Y-20363643D01*
X8602357Y-20349357D01*
X8616643Y-20320786D01*
X8802357Y-20192214D02*
X8830928Y-20192214D01*
X8859500Y-20206500D01*
X8873786Y-20220786D01*
X8888071Y-20249357D01*
X8902357Y-20306500D01*
X8902357Y-20377929D01*
X8888071Y-20435072D01*
X8873786Y-20463643D01*
X8859500Y-20477929D01*
X8830928Y-20492214D01*
X8802357Y-20492214D01*
X8773786Y-20477929D01*
X8759500Y-20463643D01*
X8745214Y-20435072D01*
X8730928Y-20377929D01*
X8730928Y-20306500D01*
X8745214Y-20249357D01*
X8759500Y-20220786D01*
X8773786Y-20206500D01*
X8802357Y-20192214D01*
X9030928Y-20492214D02*
X9030928Y-20292214D01*
X9030928Y-20320786D02*
X9045214Y-20306500D01*
X9073786Y-20292214D01*
X9116643Y-20292214D01*
X9145214Y-20306500D01*
X9159500Y-20335072D01*
X9159500Y-20492214D01*
X9159500Y-20335072D02*
X9173786Y-20306500D01*
X9202357Y-20292214D01*
X9245214Y-20292214D01*
X9273786Y-20306500D01*
X9288071Y-20335072D01*
X9288071Y-20492214D01*
X9430928Y-20492214D02*
X9430928Y-20292214D01*
X9430928Y-20320786D02*
X9445214Y-20306500D01*
X9473786Y-20292214D01*
X9516643Y-20292214D01*
X9545214Y-20306500D01*
X9559500Y-20335072D01*
X9559500Y-20492214D01*
X9559500Y-20335072D02*
X9573786Y-20306500D01*
X9602357Y-20292214D01*
X9645214Y-20292214D01*
X9673786Y-20306500D01*
X9688071Y-20335072D01*
X9688071Y-20492214D01*
X10273786Y-20177929D02*
X10016643Y-20563643D01*
X10659500Y-20192214D02*
X10688071Y-20192214D01*
X10716643Y-20206500D01*
X10730928Y-20220786D01*
X10745214Y-20249357D01*
X10759500Y-20306500D01*
X10759500Y-20377929D01*
X10745214Y-20435072D01*
X10730928Y-20463643D01*
X10716643Y-20477929D01*
X10688071Y-20492214D01*
X10659500Y-20492214D01*
X10630928Y-20477929D01*
X10616643Y-20463643D01*
X10602357Y-20435072D01*
X10588071Y-20377929D01*
X10588071Y-20306500D01*
X10602357Y-20249357D01*
X10616643Y-20220786D01*
X10630928Y-20206500D01*
X10659500Y-20192214D01*
X10888071Y-20463643D02*
X10902357Y-20477929D01*
X10888071Y-20492214D01*
X10873786Y-20477929D01*
X10888071Y-20463643D01*
X10888071Y-20492214D01*
X11088071Y-20192214D02*
X11116643Y-20192214D01*
X11145214Y-20206500D01*
X11159500Y-20220786D01*
X11173786Y-20249357D01*
X11188071Y-20306500D01*
X11188071Y-20377929D01*
X11173786Y-20435072D01*
X11159500Y-20463643D01*
X11145214Y-20477929D01*
X11116643Y-20492214D01*
X11088071Y-20492214D01*
X11059500Y-20477929D01*
X11045214Y-20463643D01*
X11030928Y-20435072D01*
X11016643Y-20377929D01*
X11016643Y-20306500D01*
X11030928Y-20249357D01*
X11045214Y-20220786D01*
X11059500Y-20206500D01*
X11088071Y-20192214D01*
X11288071Y-20192214D02*
X11473786Y-20192214D01*
X11373786Y-20306500D01*
X11416643Y-20306500D01*
X11445214Y-20320786D01*
X11459500Y-20335072D01*
X11473786Y-20363643D01*
X11473786Y-20435072D01*
X11459500Y-20463643D01*
X11445214Y-20477929D01*
X11416643Y-20492214D01*
X11330928Y-20492214D01*
X11302357Y-20477929D01*
X11288071Y-20463643D01*
X11745214Y-20192214D02*
X11602357Y-20192214D01*
X11588071Y-20335072D01*
X11602357Y-20320786D01*
X11630928Y-20306500D01*
X11702357Y-20306500D01*
X11730928Y-20320786D01*
X11745214Y-20335072D01*
X11759500Y-20363643D01*
X11759500Y-20435072D01*
X11745214Y-20463643D01*
X11730928Y-20477929D01*
X11702357Y-20492214D01*
X11630928Y-20492214D01*
X11602357Y-20477929D01*
X11588071Y-20463643D01*
X11873786Y-20192214D02*
X11873786Y-20249357D01*
X11988071Y-20192214D02*
X11988071Y-20249357D01*
X12430928Y-20606500D02*
X12416643Y-20592214D01*
X12388071Y-20549357D01*
X12373786Y-20520786D01*
X12359500Y-20477929D01*
X12345214Y-20406500D01*
X12345214Y-20349357D01*
X12359500Y-20277929D01*
X12373786Y-20235072D01*
X12388071Y-20206500D01*
X12416643Y-20163643D01*
X12430928Y-20149357D01*
X12530928Y-20220786D02*
X12545214Y-20206500D01*
X12573786Y-20192214D01*
X12645214Y-20192214D01*
X12673786Y-20206500D01*
X12688071Y-20220786D01*
X12702357Y-20249357D01*
X12702357Y-20277929D01*
X12688071Y-20320786D01*
X12516643Y-20492214D01*
X12702357Y-20492214D01*
X13059500Y-20492214D02*
X13059500Y-20192214D01*
X13188071Y-20492214D02*
X13188071Y-20335072D01*
X13173786Y-20306500D01*
X13145214Y-20292214D01*
X13102357Y-20292214D01*
X13073786Y-20306500D01*
X13059500Y-20320786D01*
X13373786Y-20492214D02*
X13345214Y-20477929D01*
X13330928Y-20463643D01*
X13316643Y-20435072D01*
X13316643Y-20349357D01*
X13330928Y-20320786D01*
X13345214Y-20306500D01*
X13373786Y-20292214D01*
X13416643Y-20292214D01*
X13445214Y-20306500D01*
X13459500Y-20320786D01*
X13473786Y-20349357D01*
X13473786Y-20435072D01*
X13459500Y-20463643D01*
X13445214Y-20477929D01*
X13416643Y-20492214D01*
X13373786Y-20492214D01*
X13645214Y-20492214D02*
X13616643Y-20477929D01*
X13602357Y-20449357D01*
X13602357Y-20192214D01*
X13873786Y-20477929D02*
X13845214Y-20492214D01*
X13788071Y-20492214D01*
X13759500Y-20477929D01*
X13745214Y-20449357D01*
X13745214Y-20335072D01*
X13759500Y-20306500D01*
X13788071Y-20292214D01*
X13845214Y-20292214D01*
X13873786Y-20306500D01*
X13888071Y-20335072D01*
X13888071Y-20363643D01*
X13745214Y-20392214D01*
X14002357Y-20477929D02*
X14030928Y-20492214D01*
X14088071Y-20492214D01*
X14116643Y-20477929D01*
X14130928Y-20449357D01*
X14130928Y-20435072D01*
X14116643Y-20406500D01*
X14088071Y-20392214D01*
X14045214Y-20392214D01*
X14016643Y-20377929D01*
X14002357Y-20349357D01*
X14002357Y-20335072D01*
X14016643Y-20306500D01*
X14045214Y-20292214D01*
X14088071Y-20292214D01*
X14116643Y-20306500D01*
X14230928Y-20606500D02*
X14245214Y-20592214D01*
X14273786Y-20549357D01*
X14288071Y-20520786D01*
X14302357Y-20477929D01*
X14316643Y-20406500D01*
X14316643Y-20349357D01*
X14302357Y-20277929D01*
X14288071Y-20235072D01*
X14273786Y-20206500D01*
X14245214Y-20163643D01*
X14230928Y-20149357D01*
X7644500Y-20702500D02*
X7744500Y-20802500D01*
X7744500Y-20702500D02*
X7644500Y-20802500D01*
X7729856Y-20787856D02*
X7729856Y-20717144D01*
X7659144Y-20717144D01*
X7659144Y-20787856D01*
X7729856Y-20787856D01*
X8188071Y-20888214D02*
X8016643Y-20888214D01*
X8102357Y-20888214D02*
X8102357Y-20588214D01*
X8073786Y-20631072D01*
X8045214Y-20659643D01*
X8016643Y-20673929D01*
X8316643Y-20859643D02*
X8330928Y-20873929D01*
X8316643Y-20888214D01*
X8302357Y-20873929D01*
X8316643Y-20859643D01*
X8316643Y-20888214D01*
X8516643Y-20588214D02*
X8545214Y-20588214D01*
X8573786Y-20602500D01*
X8588071Y-20616786D01*
X8602357Y-20645357D01*
X8616643Y-20702500D01*
X8616643Y-20773929D01*
X8602357Y-20831072D01*
X8588071Y-20859643D01*
X8573786Y-20873929D01*
X8545214Y-20888214D01*
X8516643Y-20888214D01*
X8488071Y-20873929D01*
X8473786Y-20859643D01*
X8459500Y-20831072D01*
X8445214Y-20773929D01*
X8445214Y-20702500D01*
X8459500Y-20645357D01*
X8473786Y-20616786D01*
X8488071Y-20602500D01*
X8516643Y-20588214D01*
X8802357Y-20588214D02*
X8830928Y-20588214D01*
X8859500Y-20602500D01*
X8873786Y-20616786D01*
X8888071Y-20645357D01*
X8902357Y-20702500D01*
X8902357Y-20773929D01*
X8888071Y-20831072D01*
X8873786Y-20859643D01*
X8859500Y-20873929D01*
X8830928Y-20888214D01*
X8802357Y-20888214D01*
X8773786Y-20873929D01*
X8759500Y-20859643D01*
X8745214Y-20831072D01*
X8730928Y-20773929D01*
X8730928Y-20702500D01*
X8745214Y-20645357D01*
X8759500Y-20616786D01*
X8773786Y-20602500D01*
X8802357Y-20588214D01*
X9030928Y-20888214D02*
X9030928Y-20688214D01*
X9030928Y-20716786D02*
X9045214Y-20702500D01*
X9073786Y-20688214D01*
X9116643Y-20688214D01*
X9145214Y-20702500D01*
X9159500Y-20731072D01*
X9159500Y-20888214D01*
X9159500Y-20731072D02*
X9173786Y-20702500D01*
X9202357Y-20688214D01*
X9245214Y-20688214D01*
X9273786Y-20702500D01*
X9288071Y-20731072D01*
X9288071Y-20888214D01*
X9430928Y-20888214D02*
X9430928Y-20688214D01*
X9430928Y-20716786D02*
X9445214Y-20702500D01*
X9473786Y-20688214D01*
X9516643Y-20688214D01*
X9545214Y-20702500D01*
X9559500Y-20731072D01*
X9559500Y-20888214D01*
X9559500Y-20731072D02*
X9573786Y-20702500D01*
X9602357Y-20688214D01*
X9645214Y-20688214D01*
X9673786Y-20702500D01*
X9688071Y-20731072D01*
X9688071Y-20888214D01*
X10273786Y-20573929D02*
X10016643Y-20959643D01*
X10659500Y-20588214D02*
X10688071Y-20588214D01*
X10716643Y-20602500D01*
X10730928Y-20616786D01*
X10745214Y-20645357D01*
X10759500Y-20702500D01*
X10759500Y-20773929D01*
X10745214Y-20831072D01*
X10730928Y-20859643D01*
X10716643Y-20873929D01*
X10688071Y-20888214D01*
X10659500Y-20888214D01*
X10630928Y-20873929D01*
X10616643Y-20859643D01*
X10602357Y-20831072D01*
X10588071Y-20773929D01*
X10588071Y-20702500D01*
X10602357Y-20645357D01*
X10616643Y-20616786D01*
X10630928Y-20602500D01*
X10659500Y-20588214D01*
X10888071Y-20859643D02*
X10902357Y-20873929D01*
X10888071Y-20888214D01*
X10873786Y-20873929D01*
X10888071Y-20859643D01*
X10888071Y-20888214D01*
X11088071Y-20588214D02*
X11116643Y-20588214D01*
X11145214Y-20602500D01*
X11159500Y-20616786D01*
X11173786Y-20645357D01*
X11188071Y-20702500D01*
X11188071Y-20773929D01*
X11173786Y-20831072D01*
X11159500Y-20859643D01*
X11145214Y-20873929D01*
X11116643Y-20888214D01*
X11088071Y-20888214D01*
X11059500Y-20873929D01*
X11045214Y-20859643D01*
X11030928Y-20831072D01*
X11016643Y-20773929D01*
X11016643Y-20702500D01*
X11030928Y-20645357D01*
X11045214Y-20616786D01*
X11059500Y-20602500D01*
X11088071Y-20588214D01*
X11288071Y-20588214D02*
X11473786Y-20588214D01*
X11373786Y-20702500D01*
X11416643Y-20702500D01*
X11445214Y-20716786D01*
X11459500Y-20731072D01*
X11473786Y-20759643D01*
X11473786Y-20831072D01*
X11459500Y-20859643D01*
X11445214Y-20873929D01*
X11416643Y-20888214D01*
X11330928Y-20888214D01*
X11302357Y-20873929D01*
X11288071Y-20859643D01*
X11616643Y-20888214D02*
X11673786Y-20888214D01*
X11702357Y-20873929D01*
X11716643Y-20859643D01*
X11745214Y-20816786D01*
X11759500Y-20759643D01*
X11759500Y-20645357D01*
X11745214Y-20616786D01*
X11730928Y-20602500D01*
X11702357Y-20588214D01*
X11645214Y-20588214D01*
X11616643Y-20602500D01*
X11602357Y-20616786D01*
X11588071Y-20645357D01*
X11588071Y-20716786D01*
X11602357Y-20745357D01*
X11616643Y-20759643D01*
X11645214Y-20773929D01*
X11702357Y-20773929D01*
X11730928Y-20759643D01*
X11745214Y-20745357D01*
X11759500Y-20716786D01*
X11873786Y-20588214D02*
X11873786Y-20645357D01*
X11988071Y-20588214D02*
X11988071Y-20645357D01*
X12430928Y-21002500D02*
X12416643Y-20988214D01*
X12388071Y-20945357D01*
X12373786Y-20916786D01*
X12359500Y-20873929D01*
X12345214Y-20802500D01*
X12345214Y-20745357D01*
X12359500Y-20673929D01*
X12373786Y-20631072D01*
X12388071Y-20602500D01*
X12416643Y-20559643D01*
X12430928Y-20545357D01*
X12516643Y-20588214D02*
X12716643Y-20588214D01*
X12588071Y-20888214D01*
X12959500Y-20688214D02*
X12959500Y-20888214D01*
X12888071Y-20573929D02*
X12816643Y-20788214D01*
X13002357Y-20788214D01*
X13345214Y-20888214D02*
X13345214Y-20588214D01*
X13473786Y-20888214D02*
X13473786Y-20731072D01*
X13459500Y-20702500D01*
X13430928Y-20688214D01*
X13388071Y-20688214D01*
X13359500Y-20702500D01*
X13345214Y-20716786D01*
X13659500Y-20888214D02*
X13630928Y-20873929D01*
X13616643Y-20859643D01*
X13602357Y-20831072D01*
X13602357Y-20745357D01*
X13616643Y-20716786D01*
X13630928Y-20702500D01*
X13659500Y-20688214D01*
X13702357Y-20688214D01*
X13730928Y-20702500D01*
X13745214Y-20716786D01*
X13759500Y-20745357D01*
X13759500Y-20831072D01*
X13745214Y-20859643D01*
X13730928Y-20873929D01*
X13702357Y-20888214D01*
X13659500Y-20888214D01*
X13930928Y-20888214D02*
X13902357Y-20873929D01*
X13888071Y-20845357D01*
X13888071Y-20588214D01*
X14159500Y-20873929D02*
X14130928Y-20888214D01*
X14073786Y-20888214D01*
X14045214Y-20873929D01*
X14030928Y-20845357D01*
X14030928Y-20731072D01*
X14045214Y-20702500D01*
X14073786Y-20688214D01*
X14130928Y-20688214D01*
X14159500Y-20702500D01*
X14173786Y-20731072D01*
X14173786Y-20759643D01*
X14030928Y-20788214D01*
X14288071Y-20873929D02*
X14316643Y-20888214D01*
X14373786Y-20888214D01*
X14402357Y-20873929D01*
X14416643Y-20845357D01*
X14416643Y-20831072D01*
X14402357Y-20802500D01*
X14373786Y-20788214D01*
X14330928Y-20788214D01*
X14302357Y-20773929D01*
X14288071Y-20745357D01*
X14288071Y-20731072D01*
X14302357Y-20702500D01*
X14330928Y-20688214D01*
X14373786Y-20688214D01*
X14402357Y-20702500D01*
X14773786Y-20773929D02*
X15002357Y-20773929D01*
X14888071Y-20888214D02*
X14888071Y-20659643D01*
X15345214Y-20588214D02*
X15530928Y-20588214D01*
X15430928Y-20702500D01*
X15473786Y-20702500D01*
X15502357Y-20716786D01*
X15516643Y-20731072D01*
X15530928Y-20759643D01*
X15530928Y-20831072D01*
X15516643Y-20859643D01*
X15502357Y-20873929D01*
X15473786Y-20888214D01*
X15388071Y-20888214D01*
X15359500Y-20873929D01*
X15345214Y-20859643D01*
X15873786Y-20873929D02*
X15902357Y-20888214D01*
X15959500Y-20888214D01*
X15988071Y-20873929D01*
X16002357Y-20845357D01*
X16002357Y-20831072D01*
X15988071Y-20802500D01*
X15959500Y-20788214D01*
X15916643Y-20788214D01*
X15888071Y-20773929D01*
X15873786Y-20745357D01*
X15873786Y-20731072D01*
X15888071Y-20702500D01*
X15916643Y-20688214D01*
X15959500Y-20688214D01*
X15988071Y-20702500D01*
X16173786Y-20888214D02*
X16145214Y-20873929D01*
X16130928Y-20845357D01*
X16130928Y-20588214D01*
X16330928Y-20888214D02*
X16302357Y-20873929D01*
X16288071Y-20859643D01*
X16273786Y-20831072D01*
X16273786Y-20745357D01*
X16288071Y-20716786D01*
X16302357Y-20702500D01*
X16330928Y-20688214D01*
X16373786Y-20688214D01*
X16402357Y-20702500D01*
X16416643Y-20716786D01*
X16430928Y-20745357D01*
X16430928Y-20831072D01*
X16416643Y-20859643D01*
X16402357Y-20873929D01*
X16373786Y-20888214D01*
X16330928Y-20888214D01*
X16516643Y-20688214D02*
X16630928Y-20688214D01*
X16559500Y-20588214D02*
X16559500Y-20845357D01*
X16573786Y-20873929D01*
X16602357Y-20888214D01*
X16630928Y-20888214D01*
X16716643Y-20873929D02*
X16745214Y-20888214D01*
X16802357Y-20888214D01*
X16830928Y-20873929D01*
X16845214Y-20845357D01*
X16845214Y-20831072D01*
X16830928Y-20802500D01*
X16802357Y-20788214D01*
X16759500Y-20788214D01*
X16730928Y-20773929D01*
X16716643Y-20745357D01*
X16716643Y-20731072D01*
X16730928Y-20702500D01*
X16759500Y-20688214D01*
X16802357Y-20688214D01*
X16830928Y-20702500D01*
X16945214Y-21002500D02*
X16959500Y-20988214D01*
X16988071Y-20945357D01*
X17002357Y-20916786D01*
X17016643Y-20873929D01*
X17030928Y-20802500D01*
X17030928Y-20745357D01*
X17016643Y-20673929D01*
X17002357Y-20631072D01*
X16988071Y-20602500D01*
X16959500Y-20559643D01*
X16945214Y-20545357D01*
X7634500Y-21093500D02*
X7744500Y-21203500D01*
X7744500Y-21093500D02*
X7634500Y-21203500D01*
X7689500Y-21203500D02*
X7744500Y-21148500D01*
X7689500Y-21093500D01*
X7634500Y-21148500D01*
X7689500Y-21203500D01*
X8188071Y-21284214D02*
X8016643Y-21284214D01*
X8102357Y-21284214D02*
X8102357Y-20984214D01*
X8073786Y-21027072D01*
X8045214Y-21055643D01*
X8016643Y-21069929D01*
X8316643Y-21255643D02*
X8330928Y-21269929D01*
X8316643Y-21284214D01*
X8302357Y-21269929D01*
X8316643Y-21255643D01*
X8316643Y-21284214D01*
X8616643Y-21284214D02*
X8445214Y-21284214D01*
X8530928Y-21284214D02*
X8530928Y-20984214D01*
X8502357Y-21027072D01*
X8473786Y-21055643D01*
X8445214Y-21069929D01*
X8802357Y-20984214D02*
X8830928Y-20984214D01*
X8859500Y-20998500D01*
X8873786Y-21012786D01*
X8888071Y-21041357D01*
X8902357Y-21098500D01*
X8902357Y-21169929D01*
X8888071Y-21227072D01*
X8873786Y-21255643D01*
X8859500Y-21269929D01*
X8830928Y-21284214D01*
X8802357Y-21284214D01*
X8773786Y-21269929D01*
X8759500Y-21255643D01*
X8745214Y-21227072D01*
X8730928Y-21169929D01*
X8730928Y-21098500D01*
X8745214Y-21041357D01*
X8759500Y-21012786D01*
X8773786Y-20998500D01*
X8802357Y-20984214D01*
X9030928Y-21284214D02*
X9030928Y-21084214D01*
X9030928Y-21112786D02*
X9045214Y-21098500D01*
X9073786Y-21084214D01*
X9116643Y-21084214D01*
X9145214Y-21098500D01*
X9159500Y-21127072D01*
X9159500Y-21284214D01*
X9159500Y-21127072D02*
X9173786Y-21098500D01*
X9202357Y-21084214D01*
X9245214Y-21084214D01*
X9273786Y-21098500D01*
X9288071Y-21127072D01*
X9288071Y-21284214D01*
X9430928Y-21284214D02*
X9430928Y-21084214D01*
X9430928Y-21112786D02*
X9445214Y-21098500D01*
X9473786Y-21084214D01*
X9516643Y-21084214D01*
X9545214Y-21098500D01*
X9559500Y-21127072D01*
X9559500Y-21284214D01*
X9559500Y-21127072D02*
X9573786Y-21098500D01*
X9602357Y-21084214D01*
X9645214Y-21084214D01*
X9673786Y-21098500D01*
X9688071Y-21127072D01*
X9688071Y-21284214D01*
X10273786Y-20969929D02*
X10016643Y-21355643D01*
X10659500Y-20984214D02*
X10688071Y-20984214D01*
X10716643Y-20998500D01*
X10730928Y-21012786D01*
X10745214Y-21041357D01*
X10759500Y-21098500D01*
X10759500Y-21169929D01*
X10745214Y-21227072D01*
X10730928Y-21255643D01*
X10716643Y-21269929D01*
X10688071Y-21284214D01*
X10659500Y-21284214D01*
X10630928Y-21269929D01*
X10616643Y-21255643D01*
X10602357Y-21227072D01*
X10588071Y-21169929D01*
X10588071Y-21098500D01*
X10602357Y-21041357D01*
X10616643Y-21012786D01*
X10630928Y-20998500D01*
X10659500Y-20984214D01*
X10888071Y-21255643D02*
X10902357Y-21269929D01*
X10888071Y-21284214D01*
X10873786Y-21269929D01*
X10888071Y-21255643D01*
X10888071Y-21284214D01*
X11088071Y-20984214D02*
X11116643Y-20984214D01*
X11145214Y-20998500D01*
X11159500Y-21012786D01*
X11173786Y-21041357D01*
X11188071Y-21098500D01*
X11188071Y-21169929D01*
X11173786Y-21227072D01*
X11159500Y-21255643D01*
X11145214Y-21269929D01*
X11116643Y-21284214D01*
X11088071Y-21284214D01*
X11059500Y-21269929D01*
X11045214Y-21255643D01*
X11030928Y-21227072D01*
X11016643Y-21169929D01*
X11016643Y-21098500D01*
X11030928Y-21041357D01*
X11045214Y-21012786D01*
X11059500Y-20998500D01*
X11088071Y-20984214D01*
X11445214Y-21084214D02*
X11445214Y-21284214D01*
X11373786Y-20969929D02*
X11302357Y-21184214D01*
X11488071Y-21184214D01*
X11573786Y-20984214D02*
X11759500Y-20984214D01*
X11659500Y-21098500D01*
X11702357Y-21098500D01*
X11730928Y-21112786D01*
X11745214Y-21127072D01*
X11759500Y-21155643D01*
X11759500Y-21227072D01*
X11745214Y-21255643D01*
X11730928Y-21269929D01*
X11702357Y-21284214D01*
X11616643Y-21284214D01*
X11588071Y-21269929D01*
X11573786Y-21255643D01*
X11873786Y-20984214D02*
X11873786Y-21041357D01*
X11988071Y-20984214D02*
X11988071Y-21041357D01*
X12430928Y-21398500D02*
X12416643Y-21384214D01*
X12388071Y-21341357D01*
X12373786Y-21312786D01*
X12359500Y-21269929D01*
X12345214Y-21198500D01*
X12345214Y-21141357D01*
X12359500Y-21069929D01*
X12373786Y-21027072D01*
X12388071Y-20998500D01*
X12416643Y-20955643D01*
X12430928Y-20941357D01*
X12688071Y-20984214D02*
X12545214Y-20984214D01*
X12530928Y-21127072D01*
X12545214Y-21112786D01*
X12573786Y-21098500D01*
X12645214Y-21098500D01*
X12673786Y-21112786D01*
X12688071Y-21127072D01*
X12702357Y-21155643D01*
X12702357Y-21227072D01*
X12688071Y-21255643D01*
X12673786Y-21269929D01*
X12645214Y-21284214D01*
X12573786Y-21284214D01*
X12545214Y-21269929D01*
X12530928Y-21255643D01*
X13059500Y-21284214D02*
X13059500Y-20984214D01*
X13188071Y-21284214D02*
X13188071Y-21127072D01*
X13173786Y-21098500D01*
X13145214Y-21084214D01*
X13102357Y-21084214D01*
X13073786Y-21098500D01*
X13059500Y-21112786D01*
X13373786Y-21284214D02*
X13345214Y-21269929D01*
X13330928Y-21255643D01*
X13316643Y-21227072D01*
X13316643Y-21141357D01*
X13330928Y-21112786D01*
X13345214Y-21098500D01*
X13373786Y-21084214D01*
X13416643Y-21084214D01*
X13445214Y-21098500D01*
X13459500Y-21112786D01*
X13473786Y-21141357D01*
X13473786Y-21227072D01*
X13459500Y-21255643D01*
X13445214Y-21269929D01*
X13416643Y-21284214D01*
X13373786Y-21284214D01*
X13645214Y-21284214D02*
X13616643Y-21269929D01*
X13602357Y-21241357D01*
X13602357Y-20984214D01*
X13873786Y-21269929D02*
X13845214Y-21284214D01*
X13788071Y-21284214D01*
X13759500Y-21269929D01*
X13745214Y-21241357D01*
X13745214Y-21127072D01*
X13759500Y-21098500D01*
X13788071Y-21084214D01*
X13845214Y-21084214D01*
X13873786Y-21098500D01*
X13888071Y-21127072D01*
X13888071Y-21155643D01*
X13745214Y-21184214D01*
X14002357Y-21269929D02*
X14030928Y-21284214D01*
X14088071Y-21284214D01*
X14116643Y-21269929D01*
X14130928Y-21241357D01*
X14130928Y-21227072D01*
X14116643Y-21198500D01*
X14088071Y-21184214D01*
X14045214Y-21184214D01*
X14016643Y-21169929D01*
X14002357Y-21141357D01*
X14002357Y-21127072D01*
X14016643Y-21098500D01*
X14045214Y-21084214D01*
X14088071Y-21084214D01*
X14116643Y-21098500D01*
X14230928Y-21398500D02*
X14245214Y-21384214D01*
X14273786Y-21341357D01*
X14288071Y-21312786D01*
X14302357Y-21269929D01*
X14316643Y-21198500D01*
X14316643Y-21141357D01*
X14302357Y-21069929D01*
X14288071Y-21027072D01*
X14273786Y-20998500D01*
X14245214Y-20955643D01*
X14230928Y-20941357D01*
X7584500Y-21384500D02*
X7584500Y-21704500D01*
X7424500Y-21544500D02*
X7744500Y-21544500D01*
X7744500Y-21544500D02*
G75*
G03*
X7744500Y-21544500I-160000J0D01*
G01*
X8002357Y-21380214D02*
X8188071Y-21380214D01*
X8088071Y-21494500D01*
X8130928Y-21494500D01*
X8159500Y-21508786D01*
X8173786Y-21523072D01*
X8188071Y-21551643D01*
X8188071Y-21623072D01*
X8173786Y-21651643D01*
X8159500Y-21665929D01*
X8130928Y-21680214D01*
X8045214Y-21680214D01*
X8016643Y-21665929D01*
X8002357Y-21651643D01*
X8316643Y-21651643D02*
X8330928Y-21665929D01*
X8316643Y-21680214D01*
X8302357Y-21665929D01*
X8316643Y-21651643D01*
X8316643Y-21680214D01*
X8445214Y-21408786D02*
X8459500Y-21394500D01*
X8488071Y-21380214D01*
X8559500Y-21380214D01*
X8588071Y-21394500D01*
X8602357Y-21408786D01*
X8616643Y-21437357D01*
X8616643Y-21465929D01*
X8602357Y-21508786D01*
X8430928Y-21680214D01*
X8616643Y-21680214D01*
X8802357Y-21380214D02*
X8830928Y-21380214D01*
X8859500Y-21394500D01*
X8873786Y-21408786D01*
X8888071Y-21437357D01*
X8902357Y-21494500D01*
X8902357Y-21565929D01*
X8888071Y-21623072D01*
X8873786Y-21651643D01*
X8859500Y-21665929D01*
X8830928Y-21680214D01*
X8802357Y-21680214D01*
X8773786Y-21665929D01*
X8759500Y-21651643D01*
X8745214Y-21623072D01*
X8730928Y-21565929D01*
X8730928Y-21494500D01*
X8745214Y-21437357D01*
X8759500Y-21408786D01*
X8773786Y-21394500D01*
X8802357Y-21380214D01*
X9030928Y-21680214D02*
X9030928Y-21480214D01*
X9030928Y-21508786D02*
X9045214Y-21494500D01*
X9073786Y-21480214D01*
X9116643Y-21480214D01*
X9145214Y-21494500D01*
X9159500Y-21523072D01*
X9159500Y-21680214D01*
X9159500Y-21523072D02*
X9173786Y-21494500D01*
X9202357Y-21480214D01*
X9245214Y-21480214D01*
X9273786Y-21494500D01*
X9288071Y-21523072D01*
X9288071Y-21680214D01*
X9430928Y-21680214D02*
X9430928Y-21480214D01*
X9430928Y-21508786D02*
X9445214Y-21494500D01*
X9473786Y-21480214D01*
X9516643Y-21480214D01*
X9545214Y-21494500D01*
X9559500Y-21523072D01*
X9559500Y-21680214D01*
X9559500Y-21523072D02*
X9573786Y-21494500D01*
X9602357Y-21480214D01*
X9645214Y-21480214D01*
X9673786Y-21494500D01*
X9688071Y-21523072D01*
X9688071Y-21680214D01*
X10273786Y-21365929D02*
X10016643Y-21751643D01*
X10659500Y-21380214D02*
X10688071Y-21380214D01*
X10716643Y-21394500D01*
X10730928Y-21408786D01*
X10745214Y-21437357D01*
X10759500Y-21494500D01*
X10759500Y-21565929D01*
X10745214Y-21623072D01*
X10730928Y-21651643D01*
X10716643Y-21665929D01*
X10688071Y-21680214D01*
X10659500Y-21680214D01*
X10630928Y-21665929D01*
X10616643Y-21651643D01*
X10602357Y-21623072D01*
X10588071Y-21565929D01*
X10588071Y-21494500D01*
X10602357Y-21437357D01*
X10616643Y-21408786D01*
X10630928Y-21394500D01*
X10659500Y-21380214D01*
X10888071Y-21651643D02*
X10902357Y-21665929D01*
X10888071Y-21680214D01*
X10873786Y-21665929D01*
X10888071Y-21651643D01*
X10888071Y-21680214D01*
X11188071Y-21680214D02*
X11016643Y-21680214D01*
X11102357Y-21680214D02*
X11102357Y-21380214D01*
X11073786Y-21423072D01*
X11045214Y-21451643D01*
X11016643Y-21465929D01*
X11302357Y-21408786D02*
X11316643Y-21394500D01*
X11345214Y-21380214D01*
X11416643Y-21380214D01*
X11445214Y-21394500D01*
X11459500Y-21408786D01*
X11473786Y-21437357D01*
X11473786Y-21465929D01*
X11459500Y-21508786D01*
X11288071Y-21680214D01*
X11473786Y-21680214D01*
X11730928Y-21380214D02*
X11673786Y-21380214D01*
X11645214Y-21394500D01*
X11630928Y-21408786D01*
X11602357Y-21451643D01*
X11588071Y-21508786D01*
X11588071Y-21623072D01*
X11602357Y-21651643D01*
X11616643Y-21665929D01*
X11645214Y-21680214D01*
X11702357Y-21680214D01*
X11730928Y-21665929D01*
X11745214Y-21651643D01*
X11759500Y-21623072D01*
X11759500Y-21551643D01*
X11745214Y-21523072D01*
X11730928Y-21508786D01*
X11702357Y-21494500D01*
X11645214Y-21494500D01*
X11616643Y-21508786D01*
X11602357Y-21523072D01*
X11588071Y-21551643D01*
X11873786Y-21380214D02*
X11873786Y-21437357D01*
X11988071Y-21380214D02*
X11988071Y-21437357D01*
X12430928Y-21794500D02*
X12416643Y-21780214D01*
X12388071Y-21737357D01*
X12373786Y-21708786D01*
X12359500Y-21665929D01*
X12345214Y-21594500D01*
X12345214Y-21537357D01*
X12359500Y-21465929D01*
X12373786Y-21423072D01*
X12388071Y-21394500D01*
X12416643Y-21351643D01*
X12430928Y-21337357D01*
X12673786Y-21480214D02*
X12673786Y-21680214D01*
X12602357Y-21365929D02*
X12530928Y-21580214D01*
X12716643Y-21580214D01*
X13059500Y-21680214D02*
X13059500Y-21380214D01*
X13188071Y-21680214D02*
X13188071Y-21523072D01*
X13173786Y-21494500D01*
X13145214Y-21480214D01*
X13102357Y-21480214D01*
X13073786Y-21494500D01*
X13059500Y-21508786D01*
X13373786Y-21680214D02*
X13345214Y-21665929D01*
X13330928Y-21651643D01*
X13316643Y-21623072D01*
X13316643Y-21537357D01*
X13330928Y-21508786D01*
X13345214Y-21494500D01*
X13373786Y-21480214D01*
X13416643Y-21480214D01*
X13445214Y-21494500D01*
X13459500Y-21508786D01*
X13473786Y-21537357D01*
X13473786Y-21623072D01*
X13459500Y-21651643D01*
X13445214Y-21665929D01*
X13416643Y-21680214D01*
X13373786Y-21680214D01*
X13645214Y-21680214D02*
X13616643Y-21665929D01*
X13602357Y-21637357D01*
X13602357Y-21380214D01*
X13873786Y-21665929D02*
X13845214Y-21680214D01*
X13788071Y-21680214D01*
X13759500Y-21665929D01*
X13745214Y-21637357D01*
X13745214Y-21523072D01*
X13759500Y-21494500D01*
X13788071Y-21480214D01*
X13845214Y-21480214D01*
X13873786Y-21494500D01*
X13888071Y-21523072D01*
X13888071Y-21551643D01*
X13745214Y-21580214D01*
X14002357Y-21665929D02*
X14030928Y-21680214D01*
X14088071Y-21680214D01*
X14116643Y-21665929D01*
X14130928Y-21637357D01*
X14130928Y-21623072D01*
X14116643Y-21594500D01*
X14088071Y-21580214D01*
X14045214Y-21580214D01*
X14016643Y-21565929D01*
X14002357Y-21537357D01*
X14002357Y-21523072D01*
X14016643Y-21494500D01*
X14045214Y-21480214D01*
X14088071Y-21480214D01*
X14116643Y-21494500D01*
X14230928Y-21794500D02*
X14245214Y-21780214D01*
X14273786Y-21737357D01*
X14288071Y-21708786D01*
X14302357Y-21665929D01*
X14316643Y-21594500D01*
X14316643Y-21537357D01*
X14302357Y-21465929D01*
X14288071Y-21423072D01*
X14273786Y-21394500D01*
X14245214Y-21351643D01*
X14230928Y-21337357D01*
M02*
