M48
; DRILL file {KiCad 5.1.9+dfsg1-1} date Sun Aug  1 20:01:57 2021
; FORMAT={-:-/ absolute / metric / decimal}
; #@! TF.CreationDate,2021-08-01T20:01:57+10:00
; #@! TF.GenerationSoftware,Kicad,Pcbnew,5.1.9+dfsg1-1
; #@! TF.FileFunction,Plated,1,2,PTH
FMAT,2
METRIC
T1C0.400
T2C0.500
T3C0.600
T4C0.750
T5C0.800
T6C0.813
T7C0.900
T8C1.000
T9C1.100
T10C3.200
%
G90
G05
T1
X86.36Y-153.67
X87.662Y-104.235
X88.797Y-116.562
X90.551Y-132.969
X90.551Y-134.112
X92.138Y-144.208
X92.693Y-110.346
X92.837Y-144.907
X93.599Y-98.171
X95.476Y-117.946
X96.252Y-118.577
X96.266Y-117.221
X97.409Y-154.051
X97.536Y-137.541
X98.26Y-149.33
X99.822Y-137.414
X100.203Y-117.602
X100.457Y-148.717
X100.965Y-154.051
X101.346Y-117.602
X105.41Y-162.052
X105.41Y-164.465
X107.315Y-106.934
X107.315Y-115.824
X108.712Y-119.507
X109.347Y-127.508
X109.347Y-127.508
X113.538Y-119.38
X114.046Y-96.647
X114.046Y-106.1
X115.062Y-97.409
X115.443Y-117.602
X116.713Y-109.3
X117.094Y-127.0
X117.221Y-117.602
X117.983Y-126.238
X118.872Y-117.602
X123.317Y-132.588
X124.46Y-133.858
X125.857Y-104.88
X126.746Y-133.096
X127.127Y-96.647
X127.508Y-143.256
X129.667Y-96.012
X130.556Y-112.014
X135.763Y-119.38
X136.271Y-111.252
X137.033Y-110.49
X137.16Y-119.38
X138.176Y-110.49
X143.451Y-111.701
X143.51Y-133.604
X143.923Y-112.583
X144.526Y-137.795
X145.034Y-104.521
X145.513Y-133.096
X145.542Y-100.076
X145.923Y-110.49
X145.923Y-116.078
X146.05Y-96.012
X146.238Y-131.501
X146.245Y-111.438
X146.584Y-128.397
X146.685Y-115.062
X147.034Y-130.048
X147.193Y-77.089
X147.574Y-159.258
X147.701Y-109.22
X147.891Y-84.772
X148.399Y-86.804
X148.463Y-116.078
X148.907Y-88.837
X148.971Y-75.819
X149.352Y-90.551
X150.114Y-125.984
X153.035Y-146.05
X154.051Y-72.517
X154.239Y-119.584
X155.101Y-118.721
X155.575Y-146.05
X155.916Y-117.906
X155.956Y-110.49
X156.693Y-117.13
X156.972Y-111.379
X157.734Y-116.676
X158.115Y-137.405
X158.115Y-146.05
X160.655Y-146.05
X160.909Y-123.481
X161.925Y-124.333
X163.195Y-146.05
X163.323Y-123.589
X165.608Y-146.05
X168.275Y-146.05
X168.719Y-140.653
X170.815Y-146.05
X171.704Y-122.301
X172.466Y-121.539
X173.487Y-123.058
X174.244Y-138.049
X175.133Y-123.952
X177.551Y-146.68
X177.673Y-149.098
X184.531Y-118.364
X186.055Y-162.433
T2
X79.642Y-75.057
X79.642Y-165.608
X80.345Y-73.36
X80.345Y-76.754
X80.345Y-163.911
X80.345Y-167.305
X82.042Y-72.657
X82.042Y-77.457
X82.042Y-163.208
X82.042Y-168.008
X83.739Y-73.36
X83.739Y-76.754
X83.739Y-163.911
X83.739Y-167.305
X84.442Y-75.057
X84.442Y-165.608
X187.338Y-75.057
X187.338Y-165.608
X188.041Y-73.36
X188.041Y-76.754
X188.041Y-163.911
X188.041Y-167.305
X189.738Y-72.657
X189.738Y-77.457
X189.738Y-163.208
X189.738Y-168.008
X191.435Y-73.36
X191.435Y-76.754
X191.435Y-163.911
X191.435Y-167.305
X192.138Y-75.057
X192.138Y-165.608
T3
X118.11Y-77.47
X119.61Y-77.47
T4
X123.19Y-91.44
X124.46Y-90.17
X124.46Y-92.71
T5
X83.82Y-87.035
X83.82Y-89.535
X83.82Y-92.035
X90.297Y-127.421
X90.297Y-129.921
X90.805Y-105.45
X90.805Y-107.95
X90.805Y-148.63
X90.805Y-151.13
X95.885Y-100.33
X95.885Y-107.95
X95.885Y-114.3
X95.885Y-129.54
X95.885Y-135.89
X95.885Y-151.13
X98.425Y-100.33
X98.425Y-107.95
X98.425Y-114.3
X98.425Y-129.54
X98.425Y-135.89
X98.425Y-151.13
X100.965Y-100.33
X100.965Y-107.95
X100.965Y-114.3
X100.965Y-129.54
X100.965Y-135.89
X100.965Y-151.13
X101.6Y-75.605
X101.6Y-78.105
X103.505Y-100.33
X103.505Y-107.95
X103.505Y-114.3
X103.505Y-129.54
X103.505Y-135.89
X103.505Y-151.13
X106.045Y-100.33
X106.045Y-107.95
X106.045Y-114.3
X106.045Y-129.54
X106.045Y-135.89
X106.045Y-151.13
X108.585Y-100.33
X108.585Y-107.95
X108.585Y-114.3
X108.585Y-129.54
X108.585Y-135.89
X108.585Y-151.13
X111.125Y-100.33
X111.125Y-107.95
X111.125Y-114.3
X111.125Y-129.54
X111.125Y-135.89
X111.125Y-151.13
X113.665Y-114.3
X113.665Y-129.54
X113.665Y-135.89
X113.665Y-151.13
X116.205Y-114.3
X116.205Y-129.54
X116.205Y-135.89
X116.205Y-151.13
X118.745Y-114.3
X118.745Y-129.54
X118.745Y-135.89
X118.745Y-151.13
X120.015Y-105.45
X120.015Y-107.95
X121.285Y-114.3
X121.285Y-129.54
X121.285Y-135.89
X121.285Y-151.13
X123.825Y-114.3
X123.825Y-129.54
X123.825Y-135.89
X123.825Y-151.13
X125.095Y-82.59
X125.095Y-85.09
X125.095Y-100.33
X125.095Y-107.95
X126.365Y-114.3
X126.365Y-129.54
X126.365Y-135.89
X126.365Y-151.13
X127.635Y-100.33
X127.635Y-107.95
X128.905Y-114.3
X128.905Y-129.54
X128.905Y-135.89
X128.905Y-151.13
X130.175Y-83.82
X130.175Y-91.44
X130.175Y-100.33
X130.175Y-107.95
X131.445Y-114.3
X131.445Y-129.54
X131.445Y-135.89
X131.445Y-151.13
X131.525Y-77.47
X132.715Y-100.33
X132.715Y-107.95
X133.985Y-114.3
X133.985Y-129.54
X133.985Y-135.89
X133.985Y-151.13
X134.025Y-77.47
X135.255Y-100.33
X135.255Y-107.95
X136.525Y-77.47
X136.525Y-114.3
X136.525Y-129.54
X136.525Y-135.89
X136.525Y-151.13
X137.795Y-83.82
X137.795Y-91.44
X137.795Y-100.33
X137.795Y-107.95
X139.065Y-114.3
X139.065Y-129.54
X139.065Y-135.89
X139.065Y-151.13
X140.335Y-100.33
X140.335Y-107.95
X141.605Y-114.3
X141.605Y-129.54
X141.605Y-135.89
X141.605Y-151.13
X142.875Y-100.33
X142.875Y-107.95
X144.145Y-114.3
X144.145Y-129.54
X144.145Y-135.89
X144.145Y-151.13
X150.495Y-114.3
X150.495Y-129.54
X150.495Y-135.89
X150.495Y-151.13
X151.384Y-78.74
X151.384Y-93.98
X153.035Y-101.854
X153.035Y-106.934
X153.035Y-114.3
X153.035Y-129.54
X153.035Y-135.89
X153.035Y-151.13
X153.924Y-78.74
X153.924Y-93.98
X155.575Y-114.3
X155.575Y-129.54
X155.575Y-135.89
X155.575Y-151.13
X156.464Y-78.74
X156.464Y-93.98
X158.115Y-114.3
X158.115Y-129.54
X158.115Y-135.89
X158.115Y-151.13
X159.004Y-78.74
X159.004Y-93.98
X160.655Y-114.3
X160.655Y-129.54
X160.655Y-135.89
X160.655Y-151.13
X161.544Y-78.74
X161.544Y-93.98
X163.195Y-101.854
X163.195Y-106.934
X163.195Y-114.3
X163.195Y-129.54
X163.195Y-135.89
X163.195Y-151.13
X164.084Y-78.74
X164.084Y-93.98
X165.735Y-114.3
X165.735Y-129.54
X165.735Y-135.89
X165.735Y-151.13
X166.624Y-78.74
X166.624Y-93.98
X168.275Y-101.854
X168.275Y-106.934
X168.275Y-114.3
X168.275Y-129.54
X168.275Y-135.89
X168.275Y-151.13
X169.164Y-78.74
X169.164Y-93.98
X170.815Y-114.3
X170.815Y-129.54
X170.815Y-135.89
X170.815Y-151.13
X171.704Y-78.74
X171.704Y-93.98
X173.355Y-114.3
X173.355Y-129.54
X173.355Y-135.89
X173.355Y-151.13
X174.244Y-78.74
X174.244Y-93.98
X175.895Y-114.3
X175.895Y-129.54
X175.895Y-135.89
X175.895Y-151.13
X176.784Y-78.74
X176.784Y-93.98
X178.435Y-101.854
X178.435Y-106.934
X178.435Y-114.3
X178.435Y-129.54
X178.435Y-135.89
X178.435Y-151.13
X179.324Y-78.74
X179.324Y-93.98
X180.975Y-114.3
X180.975Y-129.54
X180.975Y-135.89
X180.975Y-151.13
X181.864Y-78.74
X181.864Y-93.98
X183.515Y-114.3
X183.515Y-129.54
X183.515Y-135.89
X183.515Y-151.13
X184.404Y-78.74
X184.404Y-93.98
X184.404Y-104.053
X184.404Y-106.553
X188.595Y-114.3
X188.595Y-116.8
X188.595Y-135.89
X188.595Y-138.39
T6
X94.615Y-158.75
X94.615Y-163.83
X102.235Y-158.75
X102.235Y-163.83
T7
X178.054Y-160.274
X178.054Y-162.814
T8
X83.185Y-102.87
X83.185Y-105.41
X83.185Y-107.95
X83.185Y-110.49
X83.185Y-113.03
X83.185Y-115.57
X83.185Y-118.11
X83.185Y-120.65
X83.185Y-123.19
X83.185Y-125.73
X83.185Y-128.27
X83.185Y-130.81
X83.185Y-133.35
X83.185Y-135.89
X83.185Y-138.43
X83.185Y-140.97
X83.185Y-143.51
X83.185Y-146.05
X83.185Y-148.59
X83.185Y-151.13
X85.725Y-102.87
X85.725Y-105.41
X85.725Y-107.95
X85.725Y-110.49
X85.725Y-113.03
X85.725Y-115.57
X85.725Y-118.11
X85.725Y-120.65
X85.725Y-123.19
X85.725Y-125.73
X85.725Y-128.27
X85.725Y-130.81
X85.725Y-133.35
X85.725Y-135.89
X85.725Y-138.43
X85.725Y-140.97
X85.725Y-143.51
X85.725Y-146.05
X85.725Y-148.59
X85.725Y-151.13
X107.315Y-160.02
X107.315Y-162.56
X109.855Y-160.02
X109.855Y-162.56
X112.395Y-160.02
X112.395Y-162.56
X114.935Y-160.02
X114.935Y-162.56
X117.475Y-160.02
X117.475Y-162.56
X120.015Y-160.02
X120.015Y-162.56
X130.175Y-160.02
X130.175Y-162.56
X132.715Y-160.02
X132.715Y-162.56
X135.255Y-160.02
X135.255Y-162.56
X137.795Y-160.02
X137.795Y-162.56
X140.335Y-160.02
X140.335Y-162.56
X142.875Y-160.02
X142.875Y-162.56
X150.495Y-161.29
X153.035Y-161.29
X155.575Y-161.29
X158.115Y-161.29
X160.655Y-161.29
X163.195Y-161.29
X168.91Y-160.274
X168.91Y-162.814
X171.45Y-160.274
X171.45Y-162.814
T9
X89.535Y-93.98
X99.695Y-93.98
X106.68Y-75.565
X109.22Y-75.565
X111.76Y-75.565
T10
X82.042Y-75.057
X82.042Y-165.608
X189.738Y-75.057
X189.738Y-165.608
T8
X89.28Y-80.455G85X89.28Y-82.455
G05
X94.98Y-78.455G85X92.98Y-78.455
G05
X94.98Y-84.455G85X92.98Y-84.455
G05
T0
M30
