%TF.GenerationSoftware,KiCad,Pcbnew,5.1.9+dfsg1-1*%
%TF.CreationDate,2021-08-01T20:01:47+10:00*%
%TF.ProjectId,6502-computer,36353032-2d63-46f6-9d70-757465722e6b,rev?*%
%TF.SameCoordinates,Original*%
%TF.FileFunction,Legend,Top*%
%TF.FilePolarity,Positive*%
%FSLAX46Y46*%
G04 Gerber Fmt 4.6, Leading zero omitted, Abs format (unit mm)*
G04 Created by KiCad (PCBNEW 5.1.9+dfsg1-1) date 2021-08-01 20:01:47*
%MOMM*%
%LPD*%
G01*
G04 APERTURE LIST*
%ADD10C,0.153000*%
%ADD11C,0.200000*%
%ADD12C,0.120000*%
%ADD13C,0.150000*%
%ADD14R,1.600000X1.600000*%
%ADD15O,1.600000X1.600000*%
%ADD16C,1.300000*%
%ADD17R,1.300000X1.300000*%
%ADD18R,1.700000X1.700000*%
%ADD19O,1.700000X1.700000*%
%ADD20C,1.397000*%
%ADD21C,1.600000*%
%ADD22R,1.800000X1.800000*%
%ADD23C,1.800000*%
%ADD24C,0.800000*%
%ADD25C,6.400000*%
%ADD26O,1.905000X2.000000*%
%ADD27R,1.905000X2.000000*%
%ADD28O,3.500000X3.500000*%
%ADD29C,1.200000*%
%ADD30R,2.200000X2.200000*%
%ADD31O,2.200000X2.200000*%
%ADD32R,3.500000X3.500000*%
G04 APERTURE END LIST*
D10*
X190952476Y-105551761D02*
X190904857Y-105647000D01*
X190904857Y-105837476D01*
X190952476Y-105932714D01*
X191047714Y-106027952D01*
X191142952Y-106075571D01*
X191333428Y-106075571D01*
X191428666Y-106027952D01*
X191523904Y-105932714D01*
X191571523Y-105837476D01*
X191571523Y-105647000D01*
X191523904Y-105551761D01*
X190571523Y-105742238D02*
X190619142Y-105980333D01*
X190762000Y-106218428D01*
X191000095Y-106361285D01*
X191238190Y-106408904D01*
X191476285Y-106361285D01*
X191714380Y-106218428D01*
X191857238Y-105980333D01*
X191904857Y-105742238D01*
X191857238Y-105504142D01*
X191714380Y-105266047D01*
X191476285Y-105123190D01*
X191238190Y-105075571D01*
X191000095Y-105123190D01*
X190762000Y-105266047D01*
X190619142Y-105504142D01*
X190571523Y-105742238D01*
X190809619Y-103932714D02*
X190762000Y-103885095D01*
X190714380Y-103789857D01*
X190714380Y-103551761D01*
X190762000Y-103456523D01*
X190809619Y-103408904D01*
X190904857Y-103361285D01*
X191000095Y-103361285D01*
X191142952Y-103408904D01*
X191714380Y-103980333D01*
X191714380Y-103361285D01*
X190714380Y-102742238D02*
X190714380Y-102647000D01*
X190762000Y-102551761D01*
X190809619Y-102504142D01*
X190904857Y-102456523D01*
X191095333Y-102408904D01*
X191333428Y-102408904D01*
X191523904Y-102456523D01*
X191619142Y-102504142D01*
X191666761Y-102551761D01*
X191714380Y-102647000D01*
X191714380Y-102742238D01*
X191666761Y-102837476D01*
X191619142Y-102885095D01*
X191523904Y-102932714D01*
X191333428Y-102980333D01*
X191095333Y-102980333D01*
X190904857Y-102932714D01*
X190809619Y-102885095D01*
X190762000Y-102837476D01*
X190714380Y-102742238D01*
X190809619Y-102027952D02*
X190762000Y-101980333D01*
X190714380Y-101885095D01*
X190714380Y-101647000D01*
X190762000Y-101551761D01*
X190809619Y-101504142D01*
X190904857Y-101456523D01*
X191000095Y-101456523D01*
X191142952Y-101504142D01*
X191714380Y-102075571D01*
X191714380Y-101456523D01*
X191714380Y-100504142D02*
X191714380Y-101075571D01*
X191714380Y-100789857D02*
X190714380Y-100789857D01*
X190857238Y-100885095D01*
X190952476Y-100980333D01*
X191000095Y-101075571D01*
X191714380Y-99313666D02*
X190714380Y-99313666D01*
X191428666Y-98980333D01*
X190714380Y-98647000D01*
X191714380Y-98647000D01*
X191714380Y-98170809D02*
X191047714Y-98170809D01*
X190714380Y-98170809D02*
X190762000Y-98218428D01*
X190809619Y-98170809D01*
X190762000Y-98123190D01*
X190714380Y-98170809D01*
X190809619Y-98170809D01*
X191666761Y-97266047D02*
X191714380Y-97361285D01*
X191714380Y-97551761D01*
X191666761Y-97647000D01*
X191619142Y-97694619D01*
X191523904Y-97742238D01*
X191238190Y-97742238D01*
X191142952Y-97694619D01*
X191095333Y-97647000D01*
X191047714Y-97551761D01*
X191047714Y-97361285D01*
X191095333Y-97266047D01*
X191714380Y-96837476D02*
X190714380Y-96837476D01*
X191714380Y-96408904D02*
X191190571Y-96408904D01*
X191095333Y-96456523D01*
X191047714Y-96551761D01*
X191047714Y-96694619D01*
X191095333Y-96789857D01*
X191142952Y-96837476D01*
X191714380Y-95504142D02*
X191190571Y-95504142D01*
X191095333Y-95551761D01*
X191047714Y-95647000D01*
X191047714Y-95837476D01*
X191095333Y-95932714D01*
X191666761Y-95504142D02*
X191714380Y-95599380D01*
X191714380Y-95837476D01*
X191666761Y-95932714D01*
X191571523Y-95980333D01*
X191476285Y-95980333D01*
X191381047Y-95932714D01*
X191333428Y-95837476D01*
X191333428Y-95599380D01*
X191285809Y-95504142D01*
X191666761Y-94647000D02*
X191714380Y-94742238D01*
X191714380Y-94932714D01*
X191666761Y-95027952D01*
X191571523Y-95075571D01*
X191190571Y-95075571D01*
X191095333Y-95027952D01*
X191047714Y-94932714D01*
X191047714Y-94742238D01*
X191095333Y-94647000D01*
X191190571Y-94599380D01*
X191285809Y-94599380D01*
X191381047Y-95075571D01*
X191714380Y-94027952D02*
X191666761Y-94123190D01*
X191571523Y-94170809D01*
X190714380Y-94170809D01*
X191190571Y-92551761D02*
X191238190Y-92408904D01*
X191285809Y-92361285D01*
X191381047Y-92313666D01*
X191523904Y-92313666D01*
X191619142Y-92361285D01*
X191666761Y-92408904D01*
X191714380Y-92504142D01*
X191714380Y-92885095D01*
X190714380Y-92885095D01*
X190714380Y-92551761D01*
X190762000Y-92456523D01*
X190809619Y-92408904D01*
X190904857Y-92361285D01*
X191000095Y-92361285D01*
X191095333Y-92408904D01*
X191142952Y-92456523D01*
X191190571Y-92551761D01*
X191190571Y-92885095D01*
X191714380Y-91885095D02*
X191047714Y-91885095D01*
X190714380Y-91885095D02*
X190762000Y-91932714D01*
X190809619Y-91885095D01*
X190762000Y-91837476D01*
X190714380Y-91885095D01*
X190809619Y-91885095D01*
X191714380Y-91266047D02*
X191666761Y-91361285D01*
X191571523Y-91408904D01*
X190714380Y-91408904D01*
X191714380Y-90742238D02*
X191666761Y-90837476D01*
X191571523Y-90885095D01*
X190714380Y-90885095D01*
X191714380Y-90361285D02*
X191047714Y-90361285D01*
X190714380Y-90361285D02*
X190762000Y-90408904D01*
X190809619Y-90361285D01*
X190762000Y-90313666D01*
X190714380Y-90361285D01*
X190809619Y-90361285D01*
X191047714Y-89885095D02*
X191714380Y-89885095D01*
X191142952Y-89885095D02*
X191095333Y-89837476D01*
X191047714Y-89742238D01*
X191047714Y-89599380D01*
X191095333Y-89504142D01*
X191190571Y-89456523D01*
X191714380Y-89456523D01*
X191047714Y-88551761D02*
X191857238Y-88551761D01*
X191952476Y-88599380D01*
X192000095Y-88647000D01*
X192047714Y-88742238D01*
X192047714Y-88885095D01*
X192000095Y-88980333D01*
X191666761Y-88551761D02*
X191714380Y-88647000D01*
X191714380Y-88837476D01*
X191666761Y-88932714D01*
X191619142Y-88980333D01*
X191523904Y-89027952D01*
X191238190Y-89027952D01*
X191142952Y-88980333D01*
X191095333Y-88932714D01*
X191047714Y-88837476D01*
X191047714Y-88647000D01*
X191095333Y-88551761D01*
X191047714Y-88218428D02*
X191047714Y-87837476D01*
X190714380Y-88075571D02*
X191571523Y-88075571D01*
X191666761Y-88027952D01*
X191714380Y-87932714D01*
X191714380Y-87837476D01*
X191714380Y-87361285D02*
X191666761Y-87456523D01*
X191619142Y-87504142D01*
X191523904Y-87551761D01*
X191238190Y-87551761D01*
X191142952Y-87504142D01*
X191095333Y-87456523D01*
X191047714Y-87361285D01*
X191047714Y-87218428D01*
X191095333Y-87123190D01*
X191142952Y-87075571D01*
X191238190Y-87027952D01*
X191523904Y-87027952D01*
X191619142Y-87075571D01*
X191666761Y-87123190D01*
X191714380Y-87218428D01*
X191714380Y-87361285D01*
X191047714Y-86599380D02*
X191714380Y-86599380D01*
X191142952Y-86599380D02*
X191095333Y-86551761D01*
X191047714Y-86456523D01*
X191047714Y-86313666D01*
X191095333Y-86218428D01*
X191190571Y-86170809D01*
X191714380Y-86170809D01*
D11*
X187646571Y-109404857D02*
X187646571Y-109690571D01*
X187718000Y-109833428D01*
X187789428Y-109904857D01*
X188003714Y-110047714D01*
X188289428Y-110119142D01*
X188860857Y-110119142D01*
X189003714Y-110047714D01*
X189075142Y-109976285D01*
X189146571Y-109833428D01*
X189146571Y-109547714D01*
X189075142Y-109404857D01*
X189003714Y-109333428D01*
X188860857Y-109262000D01*
X188503714Y-109262000D01*
X188360857Y-109333428D01*
X188289428Y-109404857D01*
X188218000Y-109547714D01*
X188218000Y-109833428D01*
X188289428Y-109976285D01*
X188360857Y-110047714D01*
X188503714Y-110119142D01*
X187646571Y-107904857D02*
X187646571Y-108619142D01*
X188360857Y-108690571D01*
X188289428Y-108619142D01*
X188218000Y-108476285D01*
X188218000Y-108119142D01*
X188289428Y-107976285D01*
X188360857Y-107904857D01*
X188503714Y-107833428D01*
X188860857Y-107833428D01*
X189003714Y-107904857D01*
X189075142Y-107976285D01*
X189146571Y-108119142D01*
X189146571Y-108476285D01*
X189075142Y-108619142D01*
X189003714Y-108690571D01*
X189003714Y-106333428D02*
X189075142Y-106404857D01*
X189146571Y-106619142D01*
X189146571Y-106762000D01*
X189075142Y-106976285D01*
X188932285Y-107119142D01*
X188789428Y-107190571D01*
X188503714Y-107262000D01*
X188289428Y-107262000D01*
X188003714Y-107190571D01*
X187860857Y-107119142D01*
X187718000Y-106976285D01*
X187646571Y-106762000D01*
X187646571Y-106619142D01*
X187718000Y-106404857D01*
X187789428Y-106333428D01*
X187646571Y-105404857D02*
X187646571Y-105262000D01*
X187718000Y-105119142D01*
X187789428Y-105047714D01*
X187932285Y-104976285D01*
X188218000Y-104904857D01*
X188575142Y-104904857D01*
X188860857Y-104976285D01*
X189003714Y-105047714D01*
X189075142Y-105119142D01*
X189146571Y-105262000D01*
X189146571Y-105404857D01*
X189075142Y-105547714D01*
X189003714Y-105619142D01*
X188860857Y-105690571D01*
X188575142Y-105762000D01*
X188218000Y-105762000D01*
X187932285Y-105690571D01*
X187789428Y-105619142D01*
X187718000Y-105547714D01*
X187646571Y-105404857D01*
X187789428Y-104333428D02*
X187718000Y-104262000D01*
X187646571Y-104119142D01*
X187646571Y-103762000D01*
X187718000Y-103619142D01*
X187789428Y-103547714D01*
X187932285Y-103476285D01*
X188075142Y-103476285D01*
X188289428Y-103547714D01*
X189146571Y-104404857D01*
X189146571Y-103476285D01*
X189003714Y-100833428D02*
X189075142Y-100904857D01*
X189146571Y-101119142D01*
X189146571Y-101262000D01*
X189075142Y-101476285D01*
X188932285Y-101619142D01*
X188789428Y-101690571D01*
X188503714Y-101762000D01*
X188289428Y-101762000D01*
X188003714Y-101690571D01*
X187860857Y-101619142D01*
X187718000Y-101476285D01*
X187646571Y-101262000D01*
X187646571Y-101119142D01*
X187718000Y-100904857D01*
X187789428Y-100833428D01*
X189146571Y-99976285D02*
X189075142Y-100119142D01*
X189003714Y-100190571D01*
X188860857Y-100262000D01*
X188432285Y-100262000D01*
X188289428Y-100190571D01*
X188218000Y-100119142D01*
X188146571Y-99976285D01*
X188146571Y-99762000D01*
X188218000Y-99619142D01*
X188289428Y-99547714D01*
X188432285Y-99476285D01*
X188860857Y-99476285D01*
X189003714Y-99547714D01*
X189075142Y-99619142D01*
X189146571Y-99762000D01*
X189146571Y-99976285D01*
X189146571Y-98833428D02*
X188146571Y-98833428D01*
X188289428Y-98833428D02*
X188218000Y-98762000D01*
X188146571Y-98619142D01*
X188146571Y-98404857D01*
X188218000Y-98262000D01*
X188360857Y-98190571D01*
X189146571Y-98190571D01*
X188360857Y-98190571D02*
X188218000Y-98119142D01*
X188146571Y-97976285D01*
X188146571Y-97762000D01*
X188218000Y-97619142D01*
X188360857Y-97547714D01*
X189146571Y-97547714D01*
X188146571Y-96833428D02*
X189646571Y-96833428D01*
X188218000Y-96833428D02*
X188146571Y-96690571D01*
X188146571Y-96404857D01*
X188218000Y-96262000D01*
X188289428Y-96190571D01*
X188432285Y-96119142D01*
X188860857Y-96119142D01*
X189003714Y-96190571D01*
X189075142Y-96262000D01*
X189146571Y-96404857D01*
X189146571Y-96690571D01*
X189075142Y-96833428D01*
X188146571Y-94833428D02*
X189146571Y-94833428D01*
X188146571Y-95476285D02*
X188932285Y-95476285D01*
X189075142Y-95404857D01*
X189146571Y-95262000D01*
X189146571Y-95047714D01*
X189075142Y-94904857D01*
X189003714Y-94833428D01*
X188146571Y-94333428D02*
X188146571Y-93762000D01*
X187646571Y-94119142D02*
X188932285Y-94119142D01*
X189075142Y-94047714D01*
X189146571Y-93904857D01*
X189146571Y-93762000D01*
X189075142Y-92690571D02*
X189146571Y-92833428D01*
X189146571Y-93119142D01*
X189075142Y-93262000D01*
X188932285Y-93333428D01*
X188360857Y-93333428D01*
X188218000Y-93262000D01*
X188146571Y-93119142D01*
X188146571Y-92833428D01*
X188218000Y-92690571D01*
X188360857Y-92619142D01*
X188503714Y-92619142D01*
X188646571Y-93333428D01*
X189146571Y-91976285D02*
X188146571Y-91976285D01*
X188432285Y-91976285D02*
X188289428Y-91904857D01*
X188218000Y-91833428D01*
X188146571Y-91690571D01*
X188146571Y-91547714D01*
X189146571Y-89047714D02*
X188432285Y-89547714D01*
X189146571Y-89904857D02*
X187646571Y-89904857D01*
X187646571Y-89333428D01*
X187718000Y-89190571D01*
X187789428Y-89119142D01*
X187932285Y-89047714D01*
X188146571Y-89047714D01*
X188289428Y-89119142D01*
X188360857Y-89190571D01*
X188432285Y-89333428D01*
X188432285Y-89904857D01*
X189075142Y-87833428D02*
X189146571Y-87976285D01*
X189146571Y-88262000D01*
X189075142Y-88404857D01*
X188932285Y-88476285D01*
X188360857Y-88476285D01*
X188218000Y-88404857D01*
X188146571Y-88262000D01*
X188146571Y-87976285D01*
X188218000Y-87833428D01*
X188360857Y-87762000D01*
X188503714Y-87762000D01*
X188646571Y-88476285D01*
X188146571Y-87262000D02*
X189146571Y-86904857D01*
X188146571Y-86547714D01*
X189146571Y-84047714D02*
X189146571Y-84904857D01*
X189146571Y-84476285D02*
X187646571Y-84476285D01*
X187860857Y-84619142D01*
X188003714Y-84762000D01*
X188075142Y-84904857D01*
X189003714Y-83404857D02*
X189075142Y-83333428D01*
X189146571Y-83404857D01*
X189075142Y-83476285D01*
X189003714Y-83404857D01*
X189146571Y-83404857D01*
X187646571Y-82404857D02*
X187646571Y-82262000D01*
X187718000Y-82119142D01*
X187789428Y-82047714D01*
X187932285Y-81976285D01*
X188218000Y-81904857D01*
X188575142Y-81904857D01*
X188860857Y-81976285D01*
X189003714Y-82047714D01*
X189075142Y-82119142D01*
X189146571Y-82262000D01*
X189146571Y-82404857D01*
X189075142Y-82547714D01*
X189003714Y-82619142D01*
X188860857Y-82690571D01*
X188575142Y-82762000D01*
X188218000Y-82762000D01*
X187932285Y-82690571D01*
X187789428Y-82619142D01*
X187718000Y-82547714D01*
X187646571Y-82404857D01*
D10*
X168135100Y-158514550D02*
X168135100Y-157828835D01*
X168471904Y-158438359D02*
X169271904Y-158171692D01*
X168471904Y-157905026D01*
X168135100Y-157828835D02*
X168135100Y-157447883D01*
X169271904Y-157638359D02*
X168471904Y-157638359D01*
X168135100Y-157447883D02*
X168135100Y-156762169D01*
X169043333Y-157295502D02*
X169043333Y-156914550D01*
X169271904Y-157371692D02*
X168471904Y-157105026D01*
X169271904Y-156838359D01*
X168135100Y-167165830D02*
X168135100Y-166480116D01*
X169043333Y-167013450D02*
X169043333Y-166632497D01*
X169271904Y-167089640D02*
X168471904Y-166822973D01*
X169271904Y-166556307D01*
X168135100Y-166480116D02*
X168135100Y-165680116D01*
X169195714Y-165832497D02*
X169233809Y-165870592D01*
X169271904Y-165984878D01*
X169271904Y-166061069D01*
X169233809Y-166175354D01*
X169157619Y-166251545D01*
X169081428Y-166289640D01*
X168929047Y-166327735D01*
X168814761Y-166327735D01*
X168662380Y-166289640D01*
X168586190Y-166251545D01*
X168510000Y-166175354D01*
X168471904Y-166061069D01*
X168471904Y-165984878D01*
X168510000Y-165870592D01*
X168548095Y-165832497D01*
X168135100Y-165680116D02*
X168135100Y-165299164D01*
X169271904Y-165489640D02*
X168471904Y-165489640D01*
X168135100Y-165299164D02*
X168135100Y-164613450D01*
X169043333Y-165146783D02*
X169043333Y-164765830D01*
X169271904Y-165222973D02*
X168471904Y-164956307D01*
X169271904Y-164689640D01*
X170675100Y-166746783D02*
X170675100Y-165908688D01*
X171811904Y-166556307D02*
X171011904Y-166556307D01*
X171811904Y-166099164D01*
X171011904Y-166099164D01*
X170675100Y-165908688D02*
X170675100Y-164994402D01*
X171811904Y-165718211D02*
X171011904Y-165718211D01*
X171583333Y-165451545D01*
X171011904Y-165184878D01*
X171811904Y-165184878D01*
X170675100Y-164994402D02*
X170675100Y-164613450D01*
X171811904Y-164803926D02*
X171011904Y-164803926D01*
X170675100Y-158514550D02*
X170675100Y-158133597D01*
X171811904Y-158324073D02*
X171011904Y-158324073D01*
X170675100Y-158133597D02*
X170675100Y-157333597D01*
X171811904Y-157485978D02*
X171430952Y-157752645D01*
X171811904Y-157943121D02*
X171011904Y-157943121D01*
X171011904Y-157638359D01*
X171050000Y-157562169D01*
X171088095Y-157524073D01*
X171164285Y-157485978D01*
X171278571Y-157485978D01*
X171354761Y-157524073D01*
X171392857Y-157562169D01*
X171430952Y-157638359D01*
X171430952Y-157943121D01*
X170675100Y-157333597D02*
X170675100Y-156495502D01*
X171888095Y-156609788D02*
X171850000Y-156685978D01*
X171773809Y-156762169D01*
X171659523Y-156876454D01*
X171621428Y-156952645D01*
X171621428Y-157028835D01*
X171811904Y-156990740D02*
X171773809Y-157066930D01*
X171697619Y-157143121D01*
X171545238Y-157181216D01*
X171278571Y-157181216D01*
X171126190Y-157143121D01*
X171050000Y-157066930D01*
X171011904Y-156990740D01*
X171011904Y-156838359D01*
X171050000Y-156762169D01*
X171126190Y-156685978D01*
X171278571Y-156647883D01*
X171545238Y-156647883D01*
X171697619Y-156685978D01*
X171773809Y-156762169D01*
X171811904Y-156838359D01*
X171811904Y-156990740D01*
X155221978Y-157440380D02*
X155221978Y-158249904D01*
X155269597Y-158345142D01*
X155317216Y-158392761D01*
X155412454Y-158440380D01*
X155602930Y-158440380D01*
X155698169Y-158392761D01*
X155745788Y-158345142D01*
X155793407Y-158249904D01*
X155793407Y-157440380D01*
X156221978Y-158154666D02*
X156698169Y-158154666D01*
X156126740Y-158440380D02*
X156460073Y-157440380D01*
X156793407Y-158440380D01*
X157698169Y-158440380D02*
X157364835Y-157964190D01*
X157126740Y-158440380D02*
X157126740Y-157440380D01*
X157507692Y-157440380D01*
X157602930Y-157488000D01*
X157650550Y-157535619D01*
X157698169Y-157630857D01*
X157698169Y-157773714D01*
X157650550Y-157868952D01*
X157602930Y-157916571D01*
X157507692Y-157964190D01*
X157126740Y-157964190D01*
X157983883Y-157440380D02*
X158555311Y-157440380D01*
X158269597Y-158440380D02*
X158269597Y-157440380D01*
X162795000Y-164918021D02*
X162756904Y-164994211D01*
X162756904Y-165108497D01*
X162795000Y-165222783D01*
X162871190Y-165298973D01*
X162947380Y-165337069D01*
X163099761Y-165375164D01*
X163214047Y-165375164D01*
X163366428Y-165337069D01*
X163442619Y-165298973D01*
X163518809Y-165222783D01*
X163556904Y-165108497D01*
X163556904Y-165032307D01*
X163518809Y-164918021D01*
X163480714Y-164879926D01*
X163214047Y-164879926D01*
X163214047Y-165032307D01*
X163556904Y-164537069D02*
X162756904Y-164537069D01*
X163556904Y-164079926D01*
X162756904Y-164079926D01*
X163556904Y-163698973D02*
X162756904Y-163698973D01*
X162756904Y-163508497D01*
X162795000Y-163394211D01*
X162871190Y-163318021D01*
X162947380Y-163279926D01*
X163099761Y-163241830D01*
X163214047Y-163241830D01*
X163366428Y-163279926D01*
X163442619Y-163318021D01*
X163518809Y-163394211D01*
X163556904Y-163508497D01*
X163556904Y-163698973D01*
X159880100Y-165260878D02*
X159880100Y-164460878D01*
X161016904Y-164613259D02*
X160635952Y-164879926D01*
X161016904Y-165070402D02*
X160216904Y-165070402D01*
X160216904Y-164765640D01*
X160255000Y-164689450D01*
X160293095Y-164651354D01*
X160369285Y-164613259D01*
X160483571Y-164613259D01*
X160559761Y-164651354D01*
X160597857Y-164689450D01*
X160635952Y-164765640D01*
X160635952Y-165070402D01*
X159880100Y-164460878D02*
X159880100Y-163851354D01*
X160216904Y-164384688D02*
X160216904Y-163927545D01*
X161016904Y-164156116D02*
X160216904Y-164156116D01*
X159880100Y-163851354D02*
X159880100Y-163089450D01*
X160978809Y-163698973D02*
X161016904Y-163584688D01*
X161016904Y-163394211D01*
X160978809Y-163318021D01*
X160940714Y-163279926D01*
X160864523Y-163241830D01*
X160788333Y-163241830D01*
X160712142Y-163279926D01*
X160674047Y-163318021D01*
X160635952Y-163394211D01*
X160597857Y-163546592D01*
X160559761Y-163622783D01*
X160521666Y-163660878D01*
X160445476Y-163698973D01*
X160369285Y-163698973D01*
X160293095Y-163660878D01*
X160255000Y-163622783D01*
X160216904Y-163546592D01*
X160216904Y-163356116D01*
X160255000Y-163241830D01*
X153396904Y-164003735D02*
X153015952Y-164270402D01*
X153396904Y-164460878D02*
X152596904Y-164460878D01*
X152596904Y-164156116D01*
X152635000Y-164079926D01*
X152673095Y-164041830D01*
X152749285Y-164003735D01*
X152863571Y-164003735D01*
X152939761Y-164041830D01*
X152977857Y-164079926D01*
X153015952Y-164156116D01*
X153015952Y-164460878D01*
X152596904Y-163737069D02*
X153396904Y-163203735D01*
X152596904Y-163203735D02*
X153396904Y-163737069D01*
X155136904Y-164384688D02*
X155136904Y-163927545D01*
X155936904Y-164156116D02*
X155136904Y-164156116D01*
X155136904Y-163737069D02*
X155936904Y-163203735D01*
X155136904Y-163203735D02*
X155936904Y-163737069D01*
X158476904Y-164537069D02*
X157676904Y-164537069D01*
X158476904Y-164079926D01*
X157676904Y-164079926D01*
X158400714Y-163241830D02*
X158438809Y-163279926D01*
X158476904Y-163394211D01*
X158476904Y-163470402D01*
X158438809Y-163584688D01*
X158362619Y-163660878D01*
X158286428Y-163698973D01*
X158134047Y-163737069D01*
X158019761Y-163737069D01*
X157867380Y-163698973D01*
X157791190Y-163660878D01*
X157715000Y-163584688D01*
X157676904Y-163470402D01*
X157676904Y-163394211D01*
X157715000Y-163279926D01*
X157753095Y-163241830D01*
X150095000Y-164918021D02*
X150056904Y-164994211D01*
X150056904Y-165108497D01*
X150095000Y-165222783D01*
X150171190Y-165298973D01*
X150247380Y-165337069D01*
X150399761Y-165375164D01*
X150514047Y-165375164D01*
X150666428Y-165337069D01*
X150742619Y-165298973D01*
X150818809Y-165222783D01*
X150856904Y-165108497D01*
X150856904Y-165032307D01*
X150818809Y-164918021D01*
X150780714Y-164879926D01*
X150514047Y-164879926D01*
X150514047Y-165032307D01*
X150856904Y-164537069D02*
X150056904Y-164537069D01*
X150856904Y-164079926D01*
X150056904Y-164079926D01*
X150856904Y-163698973D02*
X150056904Y-163698973D01*
X150056904Y-163508497D01*
X150095000Y-163394211D01*
X150171190Y-163318021D01*
X150247380Y-163279926D01*
X150399761Y-163241830D01*
X150514047Y-163241830D01*
X150666428Y-163279926D01*
X150742619Y-163318021D01*
X150818809Y-163394211D01*
X150856904Y-163508497D01*
X150856904Y-163698973D01*
X129736904Y-165235640D02*
X129736904Y-165616592D01*
X130117857Y-165654688D01*
X130079761Y-165616592D01*
X130041666Y-165540402D01*
X130041666Y-165349926D01*
X130079761Y-165273735D01*
X130117857Y-165235640D01*
X130194047Y-165197545D01*
X130384523Y-165197545D01*
X130460714Y-165235640D01*
X130498809Y-165273735D01*
X130536904Y-165349926D01*
X130536904Y-165540402D01*
X130498809Y-165616592D01*
X130460714Y-165654688D01*
X129736904Y-164968973D02*
X130536904Y-164702307D01*
X129736904Y-164435640D01*
X143236904Y-166530878D02*
X142436904Y-166530878D01*
X142436904Y-166226116D01*
X142475000Y-166149926D01*
X142513095Y-166111830D01*
X142589285Y-166073735D01*
X142703571Y-166073735D01*
X142779761Y-166111830D01*
X142817857Y-166149926D01*
X142855952Y-166226116D01*
X142855952Y-166530878D01*
X142817857Y-165464211D02*
X142855952Y-165349926D01*
X142894047Y-165311830D01*
X142970238Y-165273735D01*
X143084523Y-165273735D01*
X143160714Y-165311830D01*
X143198809Y-165349926D01*
X143236904Y-165426116D01*
X143236904Y-165730878D01*
X142436904Y-165730878D01*
X142436904Y-165464211D01*
X142475000Y-165388021D01*
X142513095Y-165349926D01*
X142589285Y-165311830D01*
X142665476Y-165311830D01*
X142741666Y-165349926D01*
X142779761Y-165388021D01*
X142817857Y-165464211D01*
X142817857Y-165730878D01*
X142436904Y-164588021D02*
X142436904Y-164740402D01*
X142475000Y-164816592D01*
X142513095Y-164854688D01*
X142627380Y-164930878D01*
X142779761Y-164968973D01*
X143084523Y-164968973D01*
X143160714Y-164930878D01*
X143198809Y-164892783D01*
X143236904Y-164816592D01*
X143236904Y-164664211D01*
X143198809Y-164588021D01*
X143160714Y-164549926D01*
X143084523Y-164511830D01*
X142894047Y-164511830D01*
X142817857Y-164549926D01*
X142779761Y-164588021D01*
X142741666Y-164664211D01*
X142741666Y-164816592D01*
X142779761Y-164892783D01*
X142817857Y-164930878D01*
X142894047Y-164968973D01*
X133000714Y-166073735D02*
X133038809Y-166111830D01*
X133076904Y-166226116D01*
X133076904Y-166302307D01*
X133038809Y-166416592D01*
X132962619Y-166492783D01*
X132886428Y-166530878D01*
X132734047Y-166568973D01*
X132619761Y-166568973D01*
X132467380Y-166530878D01*
X132391190Y-166492783D01*
X132315000Y-166416592D01*
X132276904Y-166302307D01*
X132276904Y-166226116D01*
X132315000Y-166111830D01*
X132353095Y-166073735D01*
X132657857Y-165464211D02*
X132695952Y-165349926D01*
X132734047Y-165311830D01*
X132810238Y-165273735D01*
X132924523Y-165273735D01*
X133000714Y-165311830D01*
X133038809Y-165349926D01*
X133076904Y-165426116D01*
X133076904Y-165730878D01*
X132276904Y-165730878D01*
X132276904Y-165464211D01*
X132315000Y-165388021D01*
X132353095Y-165349926D01*
X132429285Y-165311830D01*
X132505476Y-165311830D01*
X132581666Y-165349926D01*
X132619761Y-165388021D01*
X132657857Y-165464211D01*
X132657857Y-165730878D01*
X133076904Y-164511830D02*
X133076904Y-164968973D01*
X133076904Y-164740402D02*
X132276904Y-164740402D01*
X132391190Y-164816592D01*
X132467380Y-164892783D01*
X132505476Y-164968973D01*
X138156904Y-166530878D02*
X137356904Y-166530878D01*
X137356904Y-166226116D01*
X137395000Y-166149926D01*
X137433095Y-166111830D01*
X137509285Y-166073735D01*
X137623571Y-166073735D01*
X137699761Y-166111830D01*
X137737857Y-166149926D01*
X137775952Y-166226116D01*
X137775952Y-166530878D01*
X137737857Y-165464211D02*
X137775952Y-165349926D01*
X137814047Y-165311830D01*
X137890238Y-165273735D01*
X138004523Y-165273735D01*
X138080714Y-165311830D01*
X138118809Y-165349926D01*
X138156904Y-165426116D01*
X138156904Y-165730878D01*
X137356904Y-165730878D01*
X137356904Y-165464211D01*
X137395000Y-165388021D01*
X137433095Y-165349926D01*
X137509285Y-165311830D01*
X137585476Y-165311830D01*
X137661666Y-165349926D01*
X137699761Y-165388021D01*
X137737857Y-165464211D01*
X137737857Y-165730878D01*
X137433095Y-164968973D02*
X137395000Y-164930878D01*
X137356904Y-164854688D01*
X137356904Y-164664211D01*
X137395000Y-164588021D01*
X137433095Y-164549926D01*
X137509285Y-164511830D01*
X137585476Y-164511830D01*
X137699761Y-164549926D01*
X138156904Y-165007069D01*
X138156904Y-164511830D01*
X140696904Y-166530878D02*
X139896904Y-166530878D01*
X139896904Y-166226116D01*
X139935000Y-166149926D01*
X139973095Y-166111830D01*
X140049285Y-166073735D01*
X140163571Y-166073735D01*
X140239761Y-166111830D01*
X140277857Y-166149926D01*
X140315952Y-166226116D01*
X140315952Y-166530878D01*
X140277857Y-165464211D02*
X140315952Y-165349926D01*
X140354047Y-165311830D01*
X140430238Y-165273735D01*
X140544523Y-165273735D01*
X140620714Y-165311830D01*
X140658809Y-165349926D01*
X140696904Y-165426116D01*
X140696904Y-165730878D01*
X139896904Y-165730878D01*
X139896904Y-165464211D01*
X139935000Y-165388021D01*
X139973095Y-165349926D01*
X140049285Y-165311830D01*
X140125476Y-165311830D01*
X140201666Y-165349926D01*
X140239761Y-165388021D01*
X140277857Y-165464211D01*
X140277857Y-165730878D01*
X140163571Y-164588021D02*
X140696904Y-164588021D01*
X139858809Y-164778497D02*
X140430238Y-164968973D01*
X140430238Y-164473735D01*
X135616904Y-166530878D02*
X134816904Y-166530878D01*
X134816904Y-166226116D01*
X134855000Y-166149926D01*
X134893095Y-166111830D01*
X134969285Y-166073735D01*
X135083571Y-166073735D01*
X135159761Y-166111830D01*
X135197857Y-166149926D01*
X135235952Y-166226116D01*
X135235952Y-166530878D01*
X135197857Y-165464211D02*
X135235952Y-165349926D01*
X135274047Y-165311830D01*
X135350238Y-165273735D01*
X135464523Y-165273735D01*
X135540714Y-165311830D01*
X135578809Y-165349926D01*
X135616904Y-165426116D01*
X135616904Y-165730878D01*
X134816904Y-165730878D01*
X134816904Y-165464211D01*
X134855000Y-165388021D01*
X134893095Y-165349926D01*
X134969285Y-165311830D01*
X135045476Y-165311830D01*
X135121666Y-165349926D01*
X135159761Y-165388021D01*
X135197857Y-165464211D01*
X135197857Y-165730878D01*
X134816904Y-164778497D02*
X134816904Y-164702307D01*
X134855000Y-164626116D01*
X134893095Y-164588021D01*
X134969285Y-164549926D01*
X135121666Y-164511830D01*
X135312142Y-164511830D01*
X135464523Y-164549926D01*
X135540714Y-164588021D01*
X135578809Y-164626116D01*
X135616904Y-164702307D01*
X135616904Y-164778497D01*
X135578809Y-164854688D01*
X135540714Y-164892783D01*
X135464523Y-164930878D01*
X135312142Y-164968973D01*
X135121666Y-164968973D01*
X134969285Y-164930878D01*
X134893095Y-164892783D01*
X134855000Y-164854688D01*
X134816904Y-164778497D01*
X135616904Y-158070073D02*
X134816904Y-158070073D01*
X134816904Y-157765311D01*
X134855000Y-157689121D01*
X134893095Y-157651026D01*
X134969285Y-157612930D01*
X135083571Y-157612930D01*
X135159761Y-157651026D01*
X135197857Y-157689121D01*
X135235952Y-157765311D01*
X135235952Y-158070073D01*
X135197857Y-157003407D02*
X135235952Y-156889121D01*
X135274047Y-156851026D01*
X135350238Y-156812930D01*
X135464523Y-156812930D01*
X135540714Y-156851026D01*
X135578809Y-156889121D01*
X135616904Y-156965311D01*
X135616904Y-157270073D01*
X134816904Y-157270073D01*
X134816904Y-157003407D01*
X134855000Y-156927216D01*
X134893095Y-156889121D01*
X134969285Y-156851026D01*
X135045476Y-156851026D01*
X135121666Y-156889121D01*
X135159761Y-156927216D01*
X135197857Y-157003407D01*
X135197857Y-157270073D01*
X135616904Y-156051026D02*
X135616904Y-156508169D01*
X135616904Y-156279597D02*
X134816904Y-156279597D01*
X134931190Y-156355788D01*
X135007380Y-156431978D01*
X135045476Y-156508169D01*
X138156904Y-158070073D02*
X137356904Y-158070073D01*
X137356904Y-157765311D01*
X137395000Y-157689121D01*
X137433095Y-157651026D01*
X137509285Y-157612930D01*
X137623571Y-157612930D01*
X137699761Y-157651026D01*
X137737857Y-157689121D01*
X137775952Y-157765311D01*
X137775952Y-158070073D01*
X137737857Y-157003407D02*
X137775952Y-156889121D01*
X137814047Y-156851026D01*
X137890238Y-156812930D01*
X138004523Y-156812930D01*
X138080714Y-156851026D01*
X138118809Y-156889121D01*
X138156904Y-156965311D01*
X138156904Y-157270073D01*
X137356904Y-157270073D01*
X137356904Y-157003407D01*
X137395000Y-156927216D01*
X137433095Y-156889121D01*
X137509285Y-156851026D01*
X137585476Y-156851026D01*
X137661666Y-156889121D01*
X137699761Y-156927216D01*
X137737857Y-157003407D01*
X137737857Y-157270073D01*
X137356904Y-156546264D02*
X137356904Y-156051026D01*
X137661666Y-156317692D01*
X137661666Y-156203407D01*
X137699761Y-156127216D01*
X137737857Y-156089121D01*
X137814047Y-156051026D01*
X138004523Y-156051026D01*
X138080714Y-156089121D01*
X138118809Y-156127216D01*
X138156904Y-156203407D01*
X138156904Y-156431978D01*
X138118809Y-156508169D01*
X138080714Y-156546264D01*
X129775000Y-157651026D02*
X129736904Y-157727216D01*
X129736904Y-157841502D01*
X129775000Y-157955788D01*
X129851190Y-158031978D01*
X129927380Y-158070073D01*
X130079761Y-158108169D01*
X130194047Y-158108169D01*
X130346428Y-158070073D01*
X130422619Y-158031978D01*
X130498809Y-157955788D01*
X130536904Y-157841502D01*
X130536904Y-157765311D01*
X130498809Y-157651026D01*
X130460714Y-157612930D01*
X130194047Y-157612930D01*
X130194047Y-157765311D01*
X130536904Y-157270073D02*
X129736904Y-157270073D01*
X130536904Y-156812930D01*
X129736904Y-156812930D01*
X130536904Y-156431978D02*
X129736904Y-156431978D01*
X129736904Y-156241502D01*
X129775000Y-156127216D01*
X129851190Y-156051026D01*
X129927380Y-156012930D01*
X130079761Y-155974835D01*
X130194047Y-155974835D01*
X130346428Y-156012930D01*
X130422619Y-156051026D01*
X130498809Y-156127216D01*
X130536904Y-156241502D01*
X130536904Y-156431978D01*
X140696904Y-158070073D02*
X139896904Y-158070073D01*
X139896904Y-157765311D01*
X139935000Y-157689121D01*
X139973095Y-157651026D01*
X140049285Y-157612930D01*
X140163571Y-157612930D01*
X140239761Y-157651026D01*
X140277857Y-157689121D01*
X140315952Y-157765311D01*
X140315952Y-158070073D01*
X140277857Y-157003407D02*
X140315952Y-156889121D01*
X140354047Y-156851026D01*
X140430238Y-156812930D01*
X140544523Y-156812930D01*
X140620714Y-156851026D01*
X140658809Y-156889121D01*
X140696904Y-156965311D01*
X140696904Y-157270073D01*
X139896904Y-157270073D01*
X139896904Y-157003407D01*
X139935000Y-156927216D01*
X139973095Y-156889121D01*
X140049285Y-156851026D01*
X140125476Y-156851026D01*
X140201666Y-156889121D01*
X140239761Y-156927216D01*
X140277857Y-157003407D01*
X140277857Y-157270073D01*
X139896904Y-156089121D02*
X139896904Y-156470073D01*
X140277857Y-156508169D01*
X140239761Y-156470073D01*
X140201666Y-156393883D01*
X140201666Y-156203407D01*
X140239761Y-156127216D01*
X140277857Y-156089121D01*
X140354047Y-156051026D01*
X140544523Y-156051026D01*
X140620714Y-156089121D01*
X140658809Y-156127216D01*
X140696904Y-156203407D01*
X140696904Y-156393883D01*
X140658809Y-156470073D01*
X140620714Y-156508169D01*
X143236904Y-158070073D02*
X142436904Y-158070073D01*
X142436904Y-157765311D01*
X142475000Y-157689121D01*
X142513095Y-157651026D01*
X142589285Y-157612930D01*
X142703571Y-157612930D01*
X142779761Y-157651026D01*
X142817857Y-157689121D01*
X142855952Y-157765311D01*
X142855952Y-158070073D01*
X142817857Y-157003407D02*
X142855952Y-156889121D01*
X142894047Y-156851026D01*
X142970238Y-156812930D01*
X143084523Y-156812930D01*
X143160714Y-156851026D01*
X143198809Y-156889121D01*
X143236904Y-156965311D01*
X143236904Y-157270073D01*
X142436904Y-157270073D01*
X142436904Y-157003407D01*
X142475000Y-156927216D01*
X142513095Y-156889121D01*
X142589285Y-156851026D01*
X142665476Y-156851026D01*
X142741666Y-156889121D01*
X142779761Y-156927216D01*
X142817857Y-157003407D01*
X142817857Y-157270073D01*
X142436904Y-156546264D02*
X142436904Y-156012930D01*
X143236904Y-156355788D01*
X133000714Y-157612930D02*
X133038809Y-157651026D01*
X133076904Y-157765311D01*
X133076904Y-157841502D01*
X133038809Y-157955788D01*
X132962619Y-158031978D01*
X132886428Y-158070073D01*
X132734047Y-158108169D01*
X132619761Y-158108169D01*
X132467380Y-158070073D01*
X132391190Y-158031978D01*
X132315000Y-157955788D01*
X132276904Y-157841502D01*
X132276904Y-157765311D01*
X132315000Y-157651026D01*
X132353095Y-157612930D01*
X132657857Y-157003407D02*
X132695952Y-156889121D01*
X132734047Y-156851026D01*
X132810238Y-156812930D01*
X132924523Y-156812930D01*
X133000714Y-156851026D01*
X133038809Y-156889121D01*
X133076904Y-156965311D01*
X133076904Y-157270073D01*
X132276904Y-157270073D01*
X132276904Y-157003407D01*
X132315000Y-156927216D01*
X132353095Y-156889121D01*
X132429285Y-156851026D01*
X132505476Y-156851026D01*
X132581666Y-156889121D01*
X132619761Y-156927216D01*
X132657857Y-157003407D01*
X132657857Y-157270073D01*
X132353095Y-156508169D02*
X132315000Y-156470073D01*
X132276904Y-156393883D01*
X132276904Y-156203407D01*
X132315000Y-156127216D01*
X132353095Y-156089121D01*
X132429285Y-156051026D01*
X132505476Y-156051026D01*
X132619761Y-156089121D01*
X133076904Y-156546264D01*
X133076904Y-156051026D01*
X120376904Y-166416592D02*
X119576904Y-166416592D01*
X119576904Y-166111830D01*
X119615000Y-166035640D01*
X119653095Y-165997545D01*
X119729285Y-165959450D01*
X119843571Y-165959450D01*
X119919761Y-165997545D01*
X119957857Y-166035640D01*
X119995952Y-166111830D01*
X119995952Y-166416592D01*
X120148333Y-165654688D02*
X120148333Y-165273735D01*
X120376904Y-165730878D02*
X119576904Y-165464211D01*
X120376904Y-165197545D01*
X119576904Y-164588021D02*
X119576904Y-164740402D01*
X119615000Y-164816592D01*
X119653095Y-164854688D01*
X119767380Y-164930878D01*
X119919761Y-164968973D01*
X120224523Y-164968973D01*
X120300714Y-164930878D01*
X120338809Y-164892783D01*
X120376904Y-164816592D01*
X120376904Y-164664211D01*
X120338809Y-164588021D01*
X120300714Y-164549926D01*
X120224523Y-164511830D01*
X120034047Y-164511830D01*
X119957857Y-164549926D01*
X119919761Y-164588021D01*
X119881666Y-164664211D01*
X119881666Y-164816592D01*
X119919761Y-164892783D01*
X119957857Y-164930878D01*
X120034047Y-164968973D01*
X117836904Y-166416592D02*
X117036904Y-166416592D01*
X117036904Y-166111830D01*
X117075000Y-166035640D01*
X117113095Y-165997545D01*
X117189285Y-165959450D01*
X117303571Y-165959450D01*
X117379761Y-165997545D01*
X117417857Y-166035640D01*
X117455952Y-166111830D01*
X117455952Y-166416592D01*
X117608333Y-165654688D02*
X117608333Y-165273735D01*
X117836904Y-165730878D02*
X117036904Y-165464211D01*
X117836904Y-165197545D01*
X117303571Y-164588021D02*
X117836904Y-164588021D01*
X116998809Y-164778497D02*
X117570238Y-164968973D01*
X117570238Y-164473735D01*
X115296904Y-166416592D02*
X114496904Y-166416592D01*
X114496904Y-166111830D01*
X114535000Y-166035640D01*
X114573095Y-165997545D01*
X114649285Y-165959450D01*
X114763571Y-165959450D01*
X114839761Y-165997545D01*
X114877857Y-166035640D01*
X114915952Y-166111830D01*
X114915952Y-166416592D01*
X115068333Y-165654688D02*
X115068333Y-165273735D01*
X115296904Y-165730878D02*
X114496904Y-165464211D01*
X115296904Y-165197545D01*
X114573095Y-164968973D02*
X114535000Y-164930878D01*
X114496904Y-164854688D01*
X114496904Y-164664211D01*
X114535000Y-164588021D01*
X114573095Y-164549926D01*
X114649285Y-164511830D01*
X114725476Y-164511830D01*
X114839761Y-164549926D01*
X115296904Y-165007069D01*
X115296904Y-164511830D01*
X112756904Y-166416592D02*
X111956904Y-166416592D01*
X111956904Y-166111830D01*
X111995000Y-166035640D01*
X112033095Y-165997545D01*
X112109285Y-165959450D01*
X112223571Y-165959450D01*
X112299761Y-165997545D01*
X112337857Y-166035640D01*
X112375952Y-166111830D01*
X112375952Y-166416592D01*
X112528333Y-165654688D02*
X112528333Y-165273735D01*
X112756904Y-165730878D02*
X111956904Y-165464211D01*
X112756904Y-165197545D01*
X111956904Y-164778497D02*
X111956904Y-164702307D01*
X111995000Y-164626116D01*
X112033095Y-164588021D01*
X112109285Y-164549926D01*
X112261666Y-164511830D01*
X112452142Y-164511830D01*
X112604523Y-164549926D01*
X112680714Y-164588021D01*
X112718809Y-164626116D01*
X112756904Y-164702307D01*
X112756904Y-164778497D01*
X112718809Y-164854688D01*
X112680714Y-164892783D01*
X112604523Y-164930878D01*
X112452142Y-164968973D01*
X112261666Y-164968973D01*
X112109285Y-164930878D01*
X112033095Y-164892783D01*
X111995000Y-164854688D01*
X111956904Y-164778497D01*
X110140714Y-165959450D02*
X110178809Y-165997545D01*
X110216904Y-166111830D01*
X110216904Y-166188021D01*
X110178809Y-166302307D01*
X110102619Y-166378497D01*
X110026428Y-166416592D01*
X109874047Y-166454688D01*
X109759761Y-166454688D01*
X109607380Y-166416592D01*
X109531190Y-166378497D01*
X109455000Y-166302307D01*
X109416904Y-166188021D01*
X109416904Y-166111830D01*
X109455000Y-165997545D01*
X109493095Y-165959450D01*
X109988333Y-165654688D02*
X109988333Y-165273735D01*
X110216904Y-165730878D02*
X109416904Y-165464211D01*
X110216904Y-165197545D01*
X110216904Y-164511830D02*
X110216904Y-164968973D01*
X110216904Y-164740402D02*
X109416904Y-164740402D01*
X109531190Y-164816592D01*
X109607380Y-164892783D01*
X109645476Y-164968973D01*
X106876904Y-165235640D02*
X106876904Y-165616592D01*
X107257857Y-165654688D01*
X107219761Y-165616592D01*
X107181666Y-165540402D01*
X107181666Y-165349926D01*
X107219761Y-165273735D01*
X107257857Y-165235640D01*
X107334047Y-165197545D01*
X107524523Y-165197545D01*
X107600714Y-165235640D01*
X107638809Y-165273735D01*
X107676904Y-165349926D01*
X107676904Y-165540402D01*
X107638809Y-165616592D01*
X107600714Y-165654688D01*
X106876904Y-164968973D02*
X107676904Y-164702307D01*
X106876904Y-164435640D01*
X120376904Y-158070073D02*
X119576904Y-158070073D01*
X119576904Y-157765311D01*
X119615000Y-157689121D01*
X119653095Y-157651026D01*
X119729285Y-157612930D01*
X119843571Y-157612930D01*
X119919761Y-157651026D01*
X119957857Y-157689121D01*
X119995952Y-157765311D01*
X119995952Y-158070073D01*
X120148333Y-157308169D02*
X120148333Y-156927216D01*
X120376904Y-157384359D02*
X119576904Y-157117692D01*
X120376904Y-156851026D01*
X119576904Y-156660550D02*
X119576904Y-156127216D01*
X120376904Y-156470073D01*
X117836904Y-158070073D02*
X117036904Y-158070073D01*
X117036904Y-157765311D01*
X117075000Y-157689121D01*
X117113095Y-157651026D01*
X117189285Y-157612930D01*
X117303571Y-157612930D01*
X117379761Y-157651026D01*
X117417857Y-157689121D01*
X117455952Y-157765311D01*
X117455952Y-158070073D01*
X117608333Y-157308169D02*
X117608333Y-156927216D01*
X117836904Y-157384359D02*
X117036904Y-157117692D01*
X117836904Y-156851026D01*
X117036904Y-156203407D02*
X117036904Y-156584359D01*
X117417857Y-156622454D01*
X117379761Y-156584359D01*
X117341666Y-156508169D01*
X117341666Y-156317692D01*
X117379761Y-156241502D01*
X117417857Y-156203407D01*
X117494047Y-156165311D01*
X117684523Y-156165311D01*
X117760714Y-156203407D01*
X117798809Y-156241502D01*
X117836904Y-156317692D01*
X117836904Y-156508169D01*
X117798809Y-156584359D01*
X117760714Y-156622454D01*
X115296904Y-158070073D02*
X114496904Y-158070073D01*
X114496904Y-157765311D01*
X114535000Y-157689121D01*
X114573095Y-157651026D01*
X114649285Y-157612930D01*
X114763571Y-157612930D01*
X114839761Y-157651026D01*
X114877857Y-157689121D01*
X114915952Y-157765311D01*
X114915952Y-158070073D01*
X115068333Y-157308169D02*
X115068333Y-156927216D01*
X115296904Y-157384359D02*
X114496904Y-157117692D01*
X115296904Y-156851026D01*
X114496904Y-156660550D02*
X114496904Y-156165311D01*
X114801666Y-156431978D01*
X114801666Y-156317692D01*
X114839761Y-156241502D01*
X114877857Y-156203407D01*
X114954047Y-156165311D01*
X115144523Y-156165311D01*
X115220714Y-156203407D01*
X115258809Y-156241502D01*
X115296904Y-156317692D01*
X115296904Y-156546264D01*
X115258809Y-156622454D01*
X115220714Y-156660550D01*
X112756904Y-158070073D02*
X111956904Y-158070073D01*
X111956904Y-157765311D01*
X111995000Y-157689121D01*
X112033095Y-157651026D01*
X112109285Y-157612930D01*
X112223571Y-157612930D01*
X112299761Y-157651026D01*
X112337857Y-157689121D01*
X112375952Y-157765311D01*
X112375952Y-158070073D01*
X112528333Y-157308169D02*
X112528333Y-156927216D01*
X112756904Y-157384359D02*
X111956904Y-157117692D01*
X112756904Y-156851026D01*
X112756904Y-156165311D02*
X112756904Y-156622454D01*
X112756904Y-156393883D02*
X111956904Y-156393883D01*
X112071190Y-156470073D01*
X112147380Y-156546264D01*
X112185476Y-156622454D01*
X110140714Y-157612930D02*
X110178809Y-157651026D01*
X110216904Y-157765311D01*
X110216904Y-157841502D01*
X110178809Y-157955788D01*
X110102619Y-158031978D01*
X110026428Y-158070073D01*
X109874047Y-158108169D01*
X109759761Y-158108169D01*
X109607380Y-158070073D01*
X109531190Y-158031978D01*
X109455000Y-157955788D01*
X109416904Y-157841502D01*
X109416904Y-157765311D01*
X109455000Y-157651026D01*
X109493095Y-157612930D01*
X109988333Y-157308169D02*
X109988333Y-156927216D01*
X110216904Y-157384359D02*
X109416904Y-157117692D01*
X110216904Y-156851026D01*
X109493095Y-156622454D02*
X109455000Y-156584359D01*
X109416904Y-156508169D01*
X109416904Y-156317692D01*
X109455000Y-156241502D01*
X109493095Y-156203407D01*
X109569285Y-156165311D01*
X109645476Y-156165311D01*
X109759761Y-156203407D01*
X110216904Y-156660550D01*
X110216904Y-156165311D01*
X106915000Y-157651026D02*
X106876904Y-157727216D01*
X106876904Y-157841502D01*
X106915000Y-157955788D01*
X106991190Y-158031978D01*
X107067380Y-158070073D01*
X107219761Y-158108169D01*
X107334047Y-158108169D01*
X107486428Y-158070073D01*
X107562619Y-158031978D01*
X107638809Y-157955788D01*
X107676904Y-157841502D01*
X107676904Y-157765311D01*
X107638809Y-157651026D01*
X107600714Y-157612930D01*
X107334047Y-157612930D01*
X107334047Y-157765311D01*
X107676904Y-157270073D02*
X106876904Y-157270073D01*
X107676904Y-156812930D01*
X106876904Y-156812930D01*
X107676904Y-156431978D02*
X106876904Y-156431978D01*
X106876904Y-156241502D01*
X106915000Y-156127216D01*
X106991190Y-156051026D01*
X107067380Y-156012930D01*
X107219761Y-155974835D01*
X107334047Y-155974835D01*
X107486428Y-156012930D01*
X107562619Y-156051026D01*
X107638809Y-156127216D01*
X107676904Y-156241502D01*
X107676904Y-156431978D01*
X156662619Y-101306380D02*
X157281666Y-101306380D01*
X156948333Y-101687333D01*
X157091190Y-101687333D01*
X157186428Y-101734952D01*
X157234047Y-101782571D01*
X157281666Y-101877809D01*
X157281666Y-102115904D01*
X157234047Y-102211142D01*
X157186428Y-102258761D01*
X157091190Y-102306380D01*
X156805476Y-102306380D01*
X156710238Y-102258761D01*
X156662619Y-102211142D01*
X157710238Y-102211142D02*
X157757857Y-102258761D01*
X157710238Y-102306380D01*
X157662619Y-102258761D01*
X157710238Y-102211142D01*
X157710238Y-102306380D01*
X158091190Y-101306380D02*
X158710238Y-101306380D01*
X158376904Y-101687333D01*
X158519761Y-101687333D01*
X158615000Y-101734952D01*
X158662619Y-101782571D01*
X158710238Y-101877809D01*
X158710238Y-102115904D01*
X158662619Y-102211142D01*
X158615000Y-102258761D01*
X158519761Y-102306380D01*
X158234047Y-102306380D01*
X158138809Y-102258761D01*
X158091190Y-102211142D01*
X159138809Y-102306380D02*
X159138809Y-101306380D01*
X159234047Y-101925428D02*
X159519761Y-102306380D01*
X159519761Y-101639714D02*
X159138809Y-102020666D01*
X156662619Y-106386380D02*
X157281666Y-106386380D01*
X156948333Y-106767333D01*
X157091190Y-106767333D01*
X157186428Y-106814952D01*
X157234047Y-106862571D01*
X157281666Y-106957809D01*
X157281666Y-107195904D01*
X157234047Y-107291142D01*
X157186428Y-107338761D01*
X157091190Y-107386380D01*
X156805476Y-107386380D01*
X156710238Y-107338761D01*
X156662619Y-107291142D01*
X157710238Y-107291142D02*
X157757857Y-107338761D01*
X157710238Y-107386380D01*
X157662619Y-107338761D01*
X157710238Y-107291142D01*
X157710238Y-107386380D01*
X158091190Y-106386380D02*
X158710238Y-106386380D01*
X158376904Y-106767333D01*
X158519761Y-106767333D01*
X158615000Y-106814952D01*
X158662619Y-106862571D01*
X158710238Y-106957809D01*
X158710238Y-107195904D01*
X158662619Y-107291142D01*
X158615000Y-107338761D01*
X158519761Y-107386380D01*
X158234047Y-107386380D01*
X158138809Y-107338761D01*
X158091190Y-107291142D01*
X159138809Y-107386380D02*
X159138809Y-106386380D01*
X159234047Y-107005428D02*
X159519761Y-107386380D01*
X159519761Y-106719714D02*
X159138809Y-107100666D01*
X171902619Y-106386380D02*
X172521666Y-106386380D01*
X172188333Y-106767333D01*
X172331190Y-106767333D01*
X172426428Y-106814952D01*
X172474047Y-106862571D01*
X172521666Y-106957809D01*
X172521666Y-107195904D01*
X172474047Y-107291142D01*
X172426428Y-107338761D01*
X172331190Y-107386380D01*
X172045476Y-107386380D01*
X171950238Y-107338761D01*
X171902619Y-107291142D01*
X172950238Y-107291142D02*
X172997857Y-107338761D01*
X172950238Y-107386380D01*
X172902619Y-107338761D01*
X172950238Y-107291142D01*
X172950238Y-107386380D01*
X173331190Y-106386380D02*
X173950238Y-106386380D01*
X173616904Y-106767333D01*
X173759761Y-106767333D01*
X173855000Y-106814952D01*
X173902619Y-106862571D01*
X173950238Y-106957809D01*
X173950238Y-107195904D01*
X173902619Y-107291142D01*
X173855000Y-107338761D01*
X173759761Y-107386380D01*
X173474047Y-107386380D01*
X173378809Y-107338761D01*
X173331190Y-107291142D01*
X174378809Y-107386380D02*
X174378809Y-106386380D01*
X174474047Y-107005428D02*
X174759761Y-107386380D01*
X174759761Y-106719714D02*
X174378809Y-107100666D01*
X173235952Y-102306380D02*
X172664523Y-102306380D01*
X172950238Y-102306380D02*
X172950238Y-101306380D01*
X172855000Y-101449238D01*
X172759761Y-101544476D01*
X172664523Y-101592095D01*
X173664523Y-102306380D02*
X173664523Y-101306380D01*
X173759761Y-101925428D02*
X174045476Y-102306380D01*
X174045476Y-101639714D02*
X173664523Y-102020666D01*
X175637407Y-167457380D02*
X175637407Y-166457380D01*
X176018359Y-166457380D01*
X176113597Y-166505000D01*
X176161216Y-166552619D01*
X176208835Y-166647857D01*
X176208835Y-166790714D01*
X176161216Y-166885952D01*
X176113597Y-166933571D01*
X176018359Y-166981190D01*
X175637407Y-166981190D01*
X176827883Y-166457380D02*
X177018359Y-166457380D01*
X177113597Y-166505000D01*
X177208835Y-166600238D01*
X177256454Y-166790714D01*
X177256454Y-167124047D01*
X177208835Y-167314523D01*
X177113597Y-167409761D01*
X177018359Y-167457380D01*
X176827883Y-167457380D01*
X176732645Y-167409761D01*
X176637407Y-167314523D01*
X176589788Y-167124047D01*
X176589788Y-166790714D01*
X176637407Y-166600238D01*
X176732645Y-166505000D01*
X176827883Y-166457380D01*
X177589788Y-166457380D02*
X177827883Y-167457380D01*
X178018359Y-166743095D01*
X178208835Y-167457380D01*
X178446930Y-166457380D01*
X178827883Y-166933571D02*
X179161216Y-166933571D01*
X179304073Y-167457380D02*
X178827883Y-167457380D01*
X178827883Y-166457380D01*
X179304073Y-166457380D01*
X180304073Y-167457380D02*
X179970740Y-166981190D01*
X179732645Y-167457380D02*
X179732645Y-166457380D01*
X180113597Y-166457380D01*
X180208835Y-166505000D01*
X180256454Y-166552619D01*
X180304073Y-166647857D01*
X180304073Y-166790714D01*
X180256454Y-166885952D01*
X180208835Y-166933571D01*
X180113597Y-166981190D01*
X179732645Y-166981190D01*
X96897264Y-167330380D02*
X96563930Y-166854190D01*
X96325835Y-167330380D02*
X96325835Y-166330380D01*
X96706788Y-166330380D01*
X96802026Y-166378000D01*
X96849645Y-166425619D01*
X96897264Y-166520857D01*
X96897264Y-166663714D01*
X96849645Y-166758952D01*
X96802026Y-166806571D01*
X96706788Y-166854190D01*
X96325835Y-166854190D01*
X97325835Y-166806571D02*
X97659169Y-166806571D01*
X97802026Y-167330380D02*
X97325835Y-167330380D01*
X97325835Y-166330380D01*
X97802026Y-166330380D01*
X98182978Y-167282761D02*
X98325835Y-167330380D01*
X98563930Y-167330380D01*
X98659169Y-167282761D01*
X98706788Y-167235142D01*
X98754407Y-167139904D01*
X98754407Y-167044666D01*
X98706788Y-166949428D01*
X98659169Y-166901809D01*
X98563930Y-166854190D01*
X98373454Y-166806571D01*
X98278216Y-166758952D01*
X98230597Y-166711333D01*
X98182978Y-166616095D01*
X98182978Y-166520857D01*
X98230597Y-166425619D01*
X98278216Y-166378000D01*
X98373454Y-166330380D01*
X98611550Y-166330380D01*
X98754407Y-166378000D01*
X99182978Y-166806571D02*
X99516311Y-166806571D01*
X99659169Y-167330380D02*
X99182978Y-167330380D01*
X99182978Y-166330380D01*
X99659169Y-166330380D01*
X99944883Y-166330380D02*
X100516311Y-166330380D01*
X100230597Y-167330380D02*
X100230597Y-166330380D01*
X132127857Y-87509880D02*
X131556428Y-87509880D01*
X131842142Y-87509880D02*
X131842142Y-86509880D01*
X131746904Y-86652738D01*
X131651666Y-86747976D01*
X131556428Y-86795595D01*
X132556428Y-87414642D02*
X132604047Y-87462261D01*
X132556428Y-87509880D01*
X132508809Y-87462261D01*
X132556428Y-87414642D01*
X132556428Y-87509880D01*
X133175476Y-86938452D02*
X133080238Y-86890833D01*
X133032619Y-86843214D01*
X132985000Y-86747976D01*
X132985000Y-86700357D01*
X133032619Y-86605119D01*
X133080238Y-86557500D01*
X133175476Y-86509880D01*
X133365952Y-86509880D01*
X133461190Y-86557500D01*
X133508809Y-86605119D01*
X133556428Y-86700357D01*
X133556428Y-86747976D01*
X133508809Y-86843214D01*
X133461190Y-86890833D01*
X133365952Y-86938452D01*
X133175476Y-86938452D01*
X133080238Y-86986071D01*
X133032619Y-87033690D01*
X132985000Y-87128928D01*
X132985000Y-87319404D01*
X133032619Y-87414642D01*
X133080238Y-87462261D01*
X133175476Y-87509880D01*
X133365952Y-87509880D01*
X133461190Y-87462261D01*
X133508809Y-87414642D01*
X133556428Y-87319404D01*
X133556428Y-87128928D01*
X133508809Y-87033690D01*
X133461190Y-86986071D01*
X133365952Y-86938452D01*
X134413571Y-86843214D02*
X134413571Y-87509880D01*
X134175476Y-86462261D02*
X133937380Y-87176547D01*
X134556428Y-87176547D01*
X134842142Y-86509880D02*
X135461190Y-86509880D01*
X135127857Y-86890833D01*
X135270714Y-86890833D01*
X135365952Y-86938452D01*
X135413571Y-86986071D01*
X135461190Y-87081309D01*
X135461190Y-87319404D01*
X135413571Y-87414642D01*
X135365952Y-87462261D01*
X135270714Y-87509880D01*
X134985000Y-87509880D01*
X134889761Y-87462261D01*
X134842142Y-87414642D01*
X135842142Y-86605119D02*
X135889761Y-86557500D01*
X135985000Y-86509880D01*
X136223095Y-86509880D01*
X136318333Y-86557500D01*
X136365952Y-86605119D01*
X136413571Y-86700357D01*
X136413571Y-86795595D01*
X136365952Y-86938452D01*
X135794523Y-87509880D01*
X136413571Y-87509880D01*
X132723095Y-89162880D02*
X132723095Y-88162880D01*
X133056428Y-88877166D01*
X133389761Y-88162880D01*
X133389761Y-89162880D01*
X133865952Y-89162880D02*
X133865952Y-88162880D01*
X133865952Y-88639071D02*
X134437380Y-88639071D01*
X134437380Y-89162880D02*
X134437380Y-88162880D01*
X134818333Y-88496214D02*
X135342142Y-88496214D01*
X134818333Y-89162880D01*
X135342142Y-89162880D01*
X131299333Y-72837404D02*
X131032666Y-72456452D01*
X130842190Y-72837404D02*
X130842190Y-72037404D01*
X131146952Y-72037404D01*
X131223142Y-72075500D01*
X131261238Y-72113595D01*
X131299333Y-72189785D01*
X131299333Y-72304071D01*
X131261238Y-72380261D01*
X131223142Y-72418357D01*
X131146952Y-72456452D01*
X130842190Y-72456452D01*
X131794571Y-72037404D02*
X131946952Y-72037404D01*
X132023142Y-72075500D01*
X132099333Y-72151690D01*
X132137428Y-72304071D01*
X132137428Y-72570738D01*
X132099333Y-72723119D01*
X132023142Y-72799309D01*
X131946952Y-72837404D01*
X131794571Y-72837404D01*
X131718380Y-72799309D01*
X131642190Y-72723119D01*
X131604095Y-72570738D01*
X131604095Y-72304071D01*
X131642190Y-72151690D01*
X131718380Y-72075500D01*
X131794571Y-72037404D01*
X132480285Y-72837404D02*
X132480285Y-72037404D01*
X132746952Y-72608833D01*
X133013619Y-72037404D01*
X133013619Y-72837404D01*
X133966000Y-72799309D02*
X134080285Y-72837404D01*
X134270761Y-72837404D01*
X134346952Y-72799309D01*
X134385047Y-72761214D01*
X134423142Y-72685023D01*
X134423142Y-72608833D01*
X134385047Y-72532642D01*
X134346952Y-72494547D01*
X134270761Y-72456452D01*
X134118380Y-72418357D01*
X134042190Y-72380261D01*
X134004095Y-72342166D01*
X133966000Y-72265976D01*
X133966000Y-72189785D01*
X134004095Y-72113595D01*
X134042190Y-72075500D01*
X134118380Y-72037404D01*
X134308857Y-72037404D01*
X134423142Y-72075500D01*
X134766000Y-72418357D02*
X135032666Y-72418357D01*
X135146952Y-72837404D02*
X134766000Y-72837404D01*
X134766000Y-72037404D01*
X135146952Y-72037404D01*
X135870761Y-72837404D02*
X135489809Y-72837404D01*
X135489809Y-72037404D01*
X136137428Y-72418357D02*
X136404095Y-72418357D01*
X136518380Y-72837404D02*
X136137428Y-72837404D01*
X136137428Y-72037404D01*
X136518380Y-72037404D01*
X137318380Y-72761214D02*
X137280285Y-72799309D01*
X137166000Y-72837404D01*
X137089809Y-72837404D01*
X136975523Y-72799309D01*
X136899333Y-72723119D01*
X136861238Y-72646928D01*
X136823142Y-72494547D01*
X136823142Y-72380261D01*
X136861238Y-72227880D01*
X136899333Y-72151690D01*
X136975523Y-72075500D01*
X137089809Y-72037404D01*
X137166000Y-72037404D01*
X137280285Y-72075500D01*
X137318380Y-72113595D01*
X137546952Y-72037404D02*
X138004095Y-72037404D01*
X137775523Y-72837404D02*
X137775523Y-72037404D01*
X132213619Y-74190404D02*
X132213619Y-73390404D01*
X132213619Y-73771357D02*
X132670761Y-73771357D01*
X132670761Y-74190404D02*
X132670761Y-73390404D01*
X133051714Y-74190404D02*
X133051714Y-73390404D01*
X134232666Y-74457071D02*
X134232666Y-73314214D01*
X135794571Y-74190404D02*
X135413619Y-74190404D01*
X135413619Y-73390404D01*
X136213619Y-73390404D02*
X136366000Y-73390404D01*
X136442190Y-73428500D01*
X136518380Y-73504690D01*
X136556476Y-73657071D01*
X136556476Y-73923738D01*
X136518380Y-74076119D01*
X136442190Y-74152309D01*
X136366000Y-74190404D01*
X136213619Y-74190404D01*
X136137428Y-74152309D01*
X136061238Y-74076119D01*
X136023142Y-73923738D01*
X136023142Y-73657071D01*
X136061238Y-73504690D01*
X136137428Y-73428500D01*
X136213619Y-73390404D01*
X119329238Y-78797142D02*
X119938761Y-78797142D01*
X117805238Y-78797142D02*
X118414761Y-78797142D01*
X118110000Y-79101904D02*
X118110000Y-78492380D01*
D11*
X99540714Y-103318571D02*
X100540714Y-103318571D01*
X99897857Y-104818571D01*
X101755000Y-103818571D02*
X101755000Y-104818571D01*
X101397857Y-103247142D02*
X101040714Y-104318571D01*
X101969285Y-104318571D01*
X103255000Y-104818571D02*
X102540714Y-104818571D01*
X102540714Y-103318571D01*
X103683571Y-104747142D02*
X103897857Y-104818571D01*
X104255000Y-104818571D01*
X104397857Y-104747142D01*
X104469285Y-104675714D01*
X104540714Y-104532857D01*
X104540714Y-104390000D01*
X104469285Y-104247142D01*
X104397857Y-104175714D01*
X104255000Y-104104285D01*
X103969285Y-104032857D01*
X103826428Y-103961428D01*
X103755000Y-103890000D01*
X103683571Y-103747142D01*
X103683571Y-103604285D01*
X103755000Y-103461428D01*
X103826428Y-103390000D01*
X103969285Y-103318571D01*
X104326428Y-103318571D01*
X104540714Y-103390000D01*
X105469285Y-103318571D02*
X105612142Y-103318571D01*
X105755000Y-103390000D01*
X105826428Y-103461428D01*
X105897857Y-103604285D01*
X105969285Y-103890000D01*
X105969285Y-104247142D01*
X105897857Y-104532857D01*
X105826428Y-104675714D01*
X105755000Y-104747142D01*
X105612142Y-104818571D01*
X105469285Y-104818571D01*
X105326428Y-104747142D01*
X105255000Y-104675714D01*
X105183571Y-104532857D01*
X105112142Y-104247142D01*
X105112142Y-103890000D01*
X105183571Y-103604285D01*
X105255000Y-103461428D01*
X105326428Y-103390000D01*
X105469285Y-103318571D01*
X106897857Y-103318571D02*
X107040714Y-103318571D01*
X107183571Y-103390000D01*
X107255000Y-103461428D01*
X107326428Y-103604285D01*
X107397857Y-103890000D01*
X107397857Y-104247142D01*
X107326428Y-104532857D01*
X107255000Y-104675714D01*
X107183571Y-104747142D01*
X107040714Y-104818571D01*
X106897857Y-104818571D01*
X106755000Y-104747142D01*
X106683571Y-104675714D01*
X106612142Y-104532857D01*
X106540714Y-104247142D01*
X106540714Y-103890000D01*
X106612142Y-103604285D01*
X106683571Y-103461428D01*
X106755000Y-103390000D01*
X106897857Y-103318571D01*
X129306428Y-103318571D02*
X130306428Y-103318571D01*
X129663571Y-104818571D01*
X131520714Y-103818571D02*
X131520714Y-104818571D01*
X131163571Y-103247142D02*
X130806428Y-104318571D01*
X131735000Y-104318571D01*
X133020714Y-104818571D02*
X132306428Y-104818571D01*
X132306428Y-103318571D01*
X133449285Y-104747142D02*
X133663571Y-104818571D01*
X134020714Y-104818571D01*
X134163571Y-104747142D01*
X134235000Y-104675714D01*
X134306428Y-104532857D01*
X134306428Y-104390000D01*
X134235000Y-104247142D01*
X134163571Y-104175714D01*
X134020714Y-104104285D01*
X133735000Y-104032857D01*
X133592142Y-103961428D01*
X133520714Y-103890000D01*
X133449285Y-103747142D01*
X133449285Y-103604285D01*
X133520714Y-103461428D01*
X133592142Y-103390000D01*
X133735000Y-103318571D01*
X134092142Y-103318571D01*
X134306428Y-103390000D01*
X135735000Y-104818571D02*
X134877857Y-104818571D01*
X135306428Y-104818571D02*
X135306428Y-103318571D01*
X135163571Y-103532857D01*
X135020714Y-103675714D01*
X134877857Y-103747142D01*
X136235000Y-103318571D02*
X137163571Y-103318571D01*
X136663571Y-103890000D01*
X136877857Y-103890000D01*
X137020714Y-103961428D01*
X137092142Y-104032857D01*
X137163571Y-104175714D01*
X137163571Y-104532857D01*
X137092142Y-104675714D01*
X137020714Y-104747142D01*
X136877857Y-104818571D01*
X136449285Y-104818571D01*
X136306428Y-104747142D01*
X136235000Y-104675714D01*
X138020714Y-103961428D02*
X137877857Y-103890000D01*
X137806428Y-103818571D01*
X137735000Y-103675714D01*
X137735000Y-103604285D01*
X137806428Y-103461428D01*
X137877857Y-103390000D01*
X138020714Y-103318571D01*
X138306428Y-103318571D01*
X138449285Y-103390000D01*
X138520714Y-103461428D01*
X138592142Y-103604285D01*
X138592142Y-103675714D01*
X138520714Y-103818571D01*
X138449285Y-103890000D01*
X138306428Y-103961428D01*
X138020714Y-103961428D01*
X137877857Y-104032857D01*
X137806428Y-104104285D01*
X137735000Y-104247142D01*
X137735000Y-104532857D01*
X137806428Y-104675714D01*
X137877857Y-104747142D01*
X138020714Y-104818571D01*
X138306428Y-104818571D01*
X138449285Y-104747142D01*
X138520714Y-104675714D01*
X138592142Y-104532857D01*
X138592142Y-104247142D01*
X138520714Y-104104285D01*
X138449285Y-104032857D01*
X138306428Y-103961428D01*
D10*
X80557619Y-86042904D02*
X80557619Y-86233380D01*
X80510000Y-86328619D01*
X80414761Y-86423857D01*
X80224285Y-86471476D01*
X79890952Y-86471476D01*
X79700476Y-86423857D01*
X79605238Y-86328619D01*
X79557619Y-86233380D01*
X79557619Y-86042904D01*
X79605238Y-85947666D01*
X79700476Y-85852428D01*
X79890952Y-85804809D01*
X80224285Y-85804809D01*
X80414761Y-85852428D01*
X80510000Y-85947666D01*
X80557619Y-86042904D01*
X80081428Y-87233380D02*
X80081428Y-86900047D01*
X79557619Y-86900047D02*
X80557619Y-86900047D01*
X80557619Y-87376238D01*
X80081428Y-88090523D02*
X80081428Y-87757190D01*
X79557619Y-87757190D02*
X80557619Y-87757190D01*
X80557619Y-88233380D01*
X79224285Y-89614333D02*
X80652857Y-89614333D01*
X80557619Y-91281000D02*
X80557619Y-91471476D01*
X80510000Y-91566714D01*
X80414761Y-91661952D01*
X80224285Y-91709571D01*
X79890952Y-91709571D01*
X79700476Y-91661952D01*
X79605238Y-91566714D01*
X79557619Y-91471476D01*
X79557619Y-91281000D01*
X79605238Y-91185761D01*
X79700476Y-91090523D01*
X79890952Y-91042904D01*
X80224285Y-91042904D01*
X80414761Y-91090523D01*
X80510000Y-91185761D01*
X80557619Y-91281000D01*
X79557619Y-92138142D02*
X80557619Y-92138142D01*
X79557619Y-92709571D01*
X80557619Y-92709571D01*
D11*
X162644000Y-86610000D02*
X163358285Y-86610000D01*
X162501142Y-87038571D02*
X163001142Y-85538571D01*
X163501142Y-87038571D01*
X163786857Y-85538571D02*
X164644000Y-85538571D01*
X164215428Y-87038571D02*
X164215428Y-85538571D01*
X165072571Y-85681428D02*
X165144000Y-85610000D01*
X165286857Y-85538571D01*
X165644000Y-85538571D01*
X165786857Y-85610000D01*
X165858285Y-85681428D01*
X165929714Y-85824285D01*
X165929714Y-85967142D01*
X165858285Y-86181428D01*
X165001142Y-87038571D01*
X165929714Y-87038571D01*
X166786857Y-86181428D02*
X166644000Y-86110000D01*
X166572571Y-86038571D01*
X166501142Y-85895714D01*
X166501142Y-85824285D01*
X166572571Y-85681428D01*
X166644000Y-85610000D01*
X166786857Y-85538571D01*
X167072571Y-85538571D01*
X167215428Y-85610000D01*
X167286857Y-85681428D01*
X167358285Y-85824285D01*
X167358285Y-85895714D01*
X167286857Y-86038571D01*
X167215428Y-86110000D01*
X167072571Y-86181428D01*
X166786857Y-86181428D01*
X166644000Y-86252857D01*
X166572571Y-86324285D01*
X166501142Y-86467142D01*
X166501142Y-86752857D01*
X166572571Y-86895714D01*
X166644000Y-86967142D01*
X166786857Y-87038571D01*
X167072571Y-87038571D01*
X167215428Y-86967142D01*
X167286857Y-86895714D01*
X167358285Y-86752857D01*
X167358285Y-86467142D01*
X167286857Y-86324285D01*
X167215428Y-86252857D01*
X167072571Y-86181428D01*
X168858285Y-86895714D02*
X168786857Y-86967142D01*
X168572571Y-87038571D01*
X168429714Y-87038571D01*
X168215428Y-86967142D01*
X168072571Y-86824285D01*
X168001142Y-86681428D01*
X167929714Y-86395714D01*
X167929714Y-86181428D01*
X168001142Y-85895714D01*
X168072571Y-85752857D01*
X168215428Y-85610000D01*
X168429714Y-85538571D01*
X168572571Y-85538571D01*
X168786857Y-85610000D01*
X168858285Y-85681428D01*
X169429714Y-85681428D02*
X169501142Y-85610000D01*
X169644000Y-85538571D01*
X170001142Y-85538571D01*
X170144000Y-85610000D01*
X170215428Y-85681428D01*
X170286857Y-85824285D01*
X170286857Y-85967142D01*
X170215428Y-86181428D01*
X169358285Y-87038571D01*
X170286857Y-87038571D01*
X171644000Y-85538571D02*
X170929714Y-85538571D01*
X170858285Y-86252857D01*
X170929714Y-86181428D01*
X171072571Y-86110000D01*
X171429714Y-86110000D01*
X171572571Y-86181428D01*
X171644000Y-86252857D01*
X171715428Y-86395714D01*
X171715428Y-86752857D01*
X171644000Y-86895714D01*
X171572571Y-86967142D01*
X171429714Y-87038571D01*
X171072571Y-87038571D01*
X170929714Y-86967142D01*
X170858285Y-86895714D01*
X173001142Y-85538571D02*
X172715428Y-85538571D01*
X172572571Y-85610000D01*
X172501142Y-85681428D01*
X172358285Y-85895714D01*
X172286857Y-86181428D01*
X172286857Y-86752857D01*
X172358285Y-86895714D01*
X172429714Y-86967142D01*
X172572571Y-87038571D01*
X172858285Y-87038571D01*
X173001142Y-86967142D01*
X173072571Y-86895714D01*
X173144000Y-86752857D01*
X173144000Y-86395714D01*
X173072571Y-86252857D01*
X173001142Y-86181428D01*
X172858285Y-86110000D01*
X172572571Y-86110000D01*
X172429714Y-86181428D01*
X172358285Y-86252857D01*
X172286857Y-86395714D01*
X158407857Y-122170000D02*
X159122142Y-122170000D01*
X158265000Y-122598571D02*
X158765000Y-121098571D01*
X159265000Y-122598571D01*
X159693571Y-122527142D02*
X159907857Y-122598571D01*
X160265000Y-122598571D01*
X160407857Y-122527142D01*
X160479285Y-122455714D01*
X160550714Y-122312857D01*
X160550714Y-122170000D01*
X160479285Y-122027142D01*
X160407857Y-121955714D01*
X160265000Y-121884285D01*
X159979285Y-121812857D01*
X159836428Y-121741428D01*
X159765000Y-121670000D01*
X159693571Y-121527142D01*
X159693571Y-121384285D01*
X159765000Y-121241428D01*
X159836428Y-121170000D01*
X159979285Y-121098571D01*
X160336428Y-121098571D01*
X160550714Y-121170000D01*
X161836428Y-121098571D02*
X161550714Y-121098571D01*
X161407857Y-121170000D01*
X161336428Y-121241428D01*
X161193571Y-121455714D01*
X161122142Y-121741428D01*
X161122142Y-122312857D01*
X161193571Y-122455714D01*
X161265000Y-122527142D01*
X161407857Y-122598571D01*
X161693571Y-122598571D01*
X161836428Y-122527142D01*
X161907857Y-122455714D01*
X161979285Y-122312857D01*
X161979285Y-121955714D01*
X161907857Y-121812857D01*
X161836428Y-121741428D01*
X161693571Y-121670000D01*
X161407857Y-121670000D01*
X161265000Y-121741428D01*
X161193571Y-121812857D01*
X161122142Y-121955714D01*
X163479285Y-122455714D02*
X163407857Y-122527142D01*
X163193571Y-122598571D01*
X163050714Y-122598571D01*
X162836428Y-122527142D01*
X162693571Y-122384285D01*
X162622142Y-122241428D01*
X162550714Y-121955714D01*
X162550714Y-121741428D01*
X162622142Y-121455714D01*
X162693571Y-121312857D01*
X162836428Y-121170000D01*
X163050714Y-121098571D01*
X163193571Y-121098571D01*
X163407857Y-121170000D01*
X163479285Y-121241428D01*
X164765000Y-121098571D02*
X164479285Y-121098571D01*
X164336428Y-121170000D01*
X164265000Y-121241428D01*
X164122142Y-121455714D01*
X164050714Y-121741428D01*
X164050714Y-122312857D01*
X164122142Y-122455714D01*
X164193571Y-122527142D01*
X164336428Y-122598571D01*
X164622142Y-122598571D01*
X164765000Y-122527142D01*
X164836428Y-122455714D01*
X164907857Y-122312857D01*
X164907857Y-121955714D01*
X164836428Y-121812857D01*
X164765000Y-121741428D01*
X164622142Y-121670000D01*
X164336428Y-121670000D01*
X164193571Y-121741428D01*
X164122142Y-121812857D01*
X164050714Y-121955714D01*
X165479285Y-121241428D02*
X165550714Y-121170000D01*
X165693571Y-121098571D01*
X166050714Y-121098571D01*
X166193571Y-121170000D01*
X166265000Y-121241428D01*
X166336428Y-121384285D01*
X166336428Y-121527142D01*
X166265000Y-121741428D01*
X165407857Y-122598571D01*
X166336428Y-122598571D01*
X166907857Y-121241428D02*
X166979285Y-121170000D01*
X167122142Y-121098571D01*
X167479285Y-121098571D01*
X167622142Y-121170000D01*
X167693571Y-121241428D01*
X167765000Y-121384285D01*
X167765000Y-121527142D01*
X167693571Y-121741428D01*
X166836428Y-122598571D01*
X167765000Y-122598571D01*
X169122142Y-121098571D02*
X168407857Y-121098571D01*
X168336428Y-121812857D01*
X168407857Y-121741428D01*
X168550714Y-121670000D01*
X168907857Y-121670000D01*
X169050714Y-121741428D01*
X169122142Y-121812857D01*
X169193571Y-121955714D01*
X169193571Y-122312857D01*
X169122142Y-122455714D01*
X169050714Y-122527142D01*
X168907857Y-122598571D01*
X168550714Y-122598571D01*
X168407857Y-122527142D01*
X168336428Y-122455714D01*
X170479285Y-121098571D02*
X170193571Y-121098571D01*
X170050714Y-121170000D01*
X169979285Y-121241428D01*
X169836428Y-121455714D01*
X169765000Y-121741428D01*
X169765000Y-122312857D01*
X169836428Y-122455714D01*
X169907857Y-122527142D01*
X170050714Y-122598571D01*
X170336428Y-122598571D01*
X170479285Y-122527142D01*
X170550714Y-122455714D01*
X170622142Y-122312857D01*
X170622142Y-121955714D01*
X170550714Y-121812857D01*
X170479285Y-121741428D01*
X170336428Y-121670000D01*
X170050714Y-121670000D01*
X169907857Y-121741428D01*
X169836428Y-121812857D01*
X169765000Y-121955714D01*
X161969285Y-142688571D02*
X162326428Y-144188571D01*
X162612142Y-143117142D01*
X162897857Y-144188571D01*
X163255000Y-142688571D01*
X164469285Y-142688571D02*
X164183571Y-142688571D01*
X164040714Y-142760000D01*
X163969285Y-142831428D01*
X163826428Y-143045714D01*
X163755000Y-143331428D01*
X163755000Y-143902857D01*
X163826428Y-144045714D01*
X163897857Y-144117142D01*
X164040714Y-144188571D01*
X164326428Y-144188571D01*
X164469285Y-144117142D01*
X164540714Y-144045714D01*
X164612142Y-143902857D01*
X164612142Y-143545714D01*
X164540714Y-143402857D01*
X164469285Y-143331428D01*
X164326428Y-143260000D01*
X164040714Y-143260000D01*
X163897857Y-143331428D01*
X163826428Y-143402857D01*
X163755000Y-143545714D01*
X165969285Y-142688571D02*
X165255000Y-142688571D01*
X165183571Y-143402857D01*
X165255000Y-143331428D01*
X165397857Y-143260000D01*
X165755000Y-143260000D01*
X165897857Y-143331428D01*
X165969285Y-143402857D01*
X166040714Y-143545714D01*
X166040714Y-143902857D01*
X165969285Y-144045714D01*
X165897857Y-144117142D01*
X165755000Y-144188571D01*
X165397857Y-144188571D01*
X165255000Y-144117142D01*
X165183571Y-144045714D01*
X167540714Y-144045714D02*
X167469285Y-144117142D01*
X167255000Y-144188571D01*
X167112142Y-144188571D01*
X166897857Y-144117142D01*
X166755000Y-143974285D01*
X166683571Y-143831428D01*
X166612142Y-143545714D01*
X166612142Y-143331428D01*
X166683571Y-143045714D01*
X166755000Y-142902857D01*
X166897857Y-142760000D01*
X167112142Y-142688571D01*
X167255000Y-142688571D01*
X167469285Y-142760000D01*
X167540714Y-142831428D01*
X168897857Y-142688571D02*
X168183571Y-142688571D01*
X168112142Y-143402857D01*
X168183571Y-143331428D01*
X168326428Y-143260000D01*
X168683571Y-143260000D01*
X168826428Y-143331428D01*
X168897857Y-143402857D01*
X168969285Y-143545714D01*
X168969285Y-143902857D01*
X168897857Y-144045714D01*
X168826428Y-144117142D01*
X168683571Y-144188571D01*
X168326428Y-144188571D01*
X168183571Y-144117142D01*
X168112142Y-144045714D01*
X170397857Y-144188571D02*
X169540714Y-144188571D01*
X169969285Y-144188571D02*
X169969285Y-142688571D01*
X169826428Y-142902857D01*
X169683571Y-143045714D01*
X169540714Y-143117142D01*
X171040714Y-144188571D02*
X171040714Y-142688571D01*
X171897857Y-144188571D01*
X171897857Y-142688571D01*
X115050714Y-142688571D02*
X115407857Y-144188571D01*
X115693571Y-143117142D01*
X115979285Y-144188571D01*
X116336428Y-142688571D01*
X117550714Y-142688571D02*
X117265000Y-142688571D01*
X117122142Y-142760000D01*
X117050714Y-142831428D01*
X116907857Y-143045714D01*
X116836428Y-143331428D01*
X116836428Y-143902857D01*
X116907857Y-144045714D01*
X116979285Y-144117142D01*
X117122142Y-144188571D01*
X117407857Y-144188571D01*
X117550714Y-144117142D01*
X117622142Y-144045714D01*
X117693571Y-143902857D01*
X117693571Y-143545714D01*
X117622142Y-143402857D01*
X117550714Y-143331428D01*
X117407857Y-143260000D01*
X117122142Y-143260000D01*
X116979285Y-143331428D01*
X116907857Y-143402857D01*
X116836428Y-143545714D01*
X119050714Y-142688571D02*
X118336428Y-142688571D01*
X118265000Y-143402857D01*
X118336428Y-143331428D01*
X118479285Y-143260000D01*
X118836428Y-143260000D01*
X118979285Y-143331428D01*
X119050714Y-143402857D01*
X119122142Y-143545714D01*
X119122142Y-143902857D01*
X119050714Y-144045714D01*
X118979285Y-144117142D01*
X118836428Y-144188571D01*
X118479285Y-144188571D01*
X118336428Y-144117142D01*
X118265000Y-144045714D01*
X120622142Y-144045714D02*
X120550714Y-144117142D01*
X120336428Y-144188571D01*
X120193571Y-144188571D01*
X119979285Y-144117142D01*
X119836428Y-143974285D01*
X119765000Y-143831428D01*
X119693571Y-143545714D01*
X119693571Y-143331428D01*
X119765000Y-143045714D01*
X119836428Y-142902857D01*
X119979285Y-142760000D01*
X120193571Y-142688571D01*
X120336428Y-142688571D01*
X120550714Y-142760000D01*
X120622142Y-142831428D01*
X121193571Y-142831428D02*
X121265000Y-142760000D01*
X121407857Y-142688571D01*
X121765000Y-142688571D01*
X121907857Y-142760000D01*
X121979285Y-142831428D01*
X122050714Y-142974285D01*
X122050714Y-143117142D01*
X121979285Y-143331428D01*
X121122142Y-144188571D01*
X122050714Y-144188571D01*
X122622142Y-142831428D02*
X122693571Y-142760000D01*
X122836428Y-142688571D01*
X123193571Y-142688571D01*
X123336428Y-142760000D01*
X123407857Y-142831428D01*
X123479285Y-142974285D01*
X123479285Y-143117142D01*
X123407857Y-143331428D01*
X122550714Y-144188571D01*
X123479285Y-144188571D01*
X124050714Y-144117142D02*
X124265000Y-144188571D01*
X124622142Y-144188571D01*
X124765000Y-144117142D01*
X124836428Y-144045714D01*
X124907857Y-143902857D01*
X124907857Y-143760000D01*
X124836428Y-143617142D01*
X124765000Y-143545714D01*
X124622142Y-143474285D01*
X124336428Y-143402857D01*
X124193571Y-143331428D01*
X124122142Y-143260000D01*
X124050714Y-143117142D01*
X124050714Y-142974285D01*
X124122142Y-142831428D01*
X124193571Y-142760000D01*
X124336428Y-142688571D01*
X124693571Y-142688571D01*
X124907857Y-142760000D01*
D10*
X79149359Y-102095100D02*
X79949359Y-102095100D01*
X79796978Y-103231904D02*
X79530311Y-102850952D01*
X79339835Y-103231904D02*
X79339835Y-102431904D01*
X79644597Y-102431904D01*
X79720788Y-102470000D01*
X79758883Y-102508095D01*
X79796978Y-102584285D01*
X79796978Y-102698571D01*
X79758883Y-102774761D01*
X79720788Y-102812857D01*
X79644597Y-102850952D01*
X79339835Y-102850952D01*
X79949359Y-102095100D02*
X80863645Y-102095100D01*
X80063645Y-102431904D02*
X80254121Y-103231904D01*
X80406502Y-102660476D01*
X80558883Y-103231904D01*
X80749359Y-102431904D01*
X80863645Y-102095100D02*
X81625550Y-102095100D01*
X81016026Y-102508095D02*
X81054121Y-102470000D01*
X81130311Y-102431904D01*
X81320788Y-102431904D01*
X81396978Y-102470000D01*
X81435073Y-102508095D01*
X81473169Y-102584285D01*
X81473169Y-102660476D01*
X81435073Y-102774761D01*
X80977930Y-103231904D01*
X81473169Y-103231904D01*
X79606502Y-104635100D02*
X79987454Y-104635100D01*
X79796978Y-105771904D02*
X79796978Y-104971904D01*
X79987454Y-104635100D02*
X80787454Y-104635100D01*
X80635073Y-105771904D02*
X80368407Y-105390952D01*
X80177930Y-105771904D02*
X80177930Y-104971904D01*
X80482692Y-104971904D01*
X80558883Y-105010000D01*
X80596978Y-105048095D01*
X80635073Y-105124285D01*
X80635073Y-105238571D01*
X80596978Y-105314761D01*
X80558883Y-105352857D01*
X80482692Y-105390952D01*
X80177930Y-105390952D01*
X80787454Y-104635100D02*
X81625550Y-104635100D01*
X81511264Y-105848095D02*
X81435073Y-105810000D01*
X81358883Y-105733809D01*
X81244597Y-105619523D01*
X81168407Y-105581428D01*
X81092216Y-105581428D01*
X81130311Y-105771904D02*
X81054121Y-105733809D01*
X80977930Y-105657619D01*
X80939835Y-105505238D01*
X80939835Y-105238571D01*
X80977930Y-105086190D01*
X81054121Y-105010000D01*
X81130311Y-104971904D01*
X81282692Y-104971904D01*
X81358883Y-105010000D01*
X81435073Y-105086190D01*
X81473169Y-105238571D01*
X81473169Y-105505238D01*
X81435073Y-105657619D01*
X81358883Y-105733809D01*
X81282692Y-105771904D01*
X81130311Y-105771904D01*
X79339835Y-107175100D02*
X80139835Y-107175100D01*
X79987454Y-108311904D02*
X79720788Y-107930952D01*
X79530311Y-108311904D02*
X79530311Y-107511904D01*
X79835073Y-107511904D01*
X79911264Y-107550000D01*
X79949359Y-107588095D01*
X79987454Y-107664285D01*
X79987454Y-107778571D01*
X79949359Y-107854761D01*
X79911264Y-107892857D01*
X79835073Y-107930952D01*
X79530311Y-107930952D01*
X80139835Y-107175100D02*
X80863645Y-107175100D01*
X80330311Y-107892857D02*
X80596978Y-107892857D01*
X80711264Y-108311904D02*
X80330311Y-108311904D01*
X80330311Y-107511904D01*
X80711264Y-107511904D01*
X80863645Y-107175100D02*
X81625550Y-107175100D01*
X81016026Y-108273809D02*
X81130311Y-108311904D01*
X81320788Y-108311904D01*
X81396978Y-108273809D01*
X81435073Y-108235714D01*
X81473169Y-108159523D01*
X81473169Y-108083333D01*
X81435073Y-108007142D01*
X81396978Y-107969047D01*
X81320788Y-107930952D01*
X81168407Y-107892857D01*
X81092216Y-107854761D01*
X81054121Y-107816666D01*
X81016026Y-107740476D01*
X81016026Y-107664285D01*
X81054121Y-107588095D01*
X81092216Y-107550000D01*
X81168407Y-107511904D01*
X81358883Y-107511904D01*
X81473169Y-107550000D01*
X79644597Y-109715100D02*
X80025550Y-109715100D01*
X79835073Y-110851904D02*
X79835073Y-110051904D01*
X80025550Y-109715100D02*
X80863645Y-109715100D01*
X80368407Y-110051904D02*
X80520788Y-110051904D01*
X80596978Y-110090000D01*
X80673169Y-110166190D01*
X80711264Y-110318571D01*
X80711264Y-110585238D01*
X80673169Y-110737619D01*
X80596978Y-110813809D01*
X80520788Y-110851904D01*
X80368407Y-110851904D01*
X80292216Y-110813809D01*
X80216026Y-110737619D01*
X80177930Y-110585238D01*
X80177930Y-110318571D01*
X80216026Y-110166190D01*
X80292216Y-110090000D01*
X80368407Y-110051904D01*
X80863645Y-109715100D02*
X81625550Y-109715100D01*
X80977930Y-110051904D02*
X81511264Y-110051904D01*
X81168407Y-110851904D01*
X79644597Y-112255100D02*
X80025550Y-112255100D01*
X79835073Y-113391904D02*
X79835073Y-112591904D01*
X80025550Y-112255100D02*
X80863645Y-112255100D01*
X80368407Y-112591904D02*
X80520788Y-112591904D01*
X80596978Y-112630000D01*
X80673169Y-112706190D01*
X80711264Y-112858571D01*
X80711264Y-113125238D01*
X80673169Y-113277619D01*
X80596978Y-113353809D01*
X80520788Y-113391904D01*
X80368407Y-113391904D01*
X80292216Y-113353809D01*
X80216026Y-113277619D01*
X80177930Y-113125238D01*
X80177930Y-112858571D01*
X80216026Y-112706190D01*
X80292216Y-112630000D01*
X80368407Y-112591904D01*
X80863645Y-112255100D02*
X81625550Y-112255100D01*
X81396978Y-112591904D02*
X81244597Y-112591904D01*
X81168407Y-112630000D01*
X81130311Y-112668095D01*
X81054121Y-112782380D01*
X81016026Y-112934761D01*
X81016026Y-113239523D01*
X81054121Y-113315714D01*
X81092216Y-113353809D01*
X81168407Y-113391904D01*
X81320788Y-113391904D01*
X81396978Y-113353809D01*
X81435073Y-113315714D01*
X81473169Y-113239523D01*
X81473169Y-113049047D01*
X81435073Y-112972857D01*
X81396978Y-112934761D01*
X81320788Y-112896666D01*
X81168407Y-112896666D01*
X81092216Y-112934761D01*
X81054121Y-112972857D01*
X81016026Y-113049047D01*
X79644597Y-114795100D02*
X80025550Y-114795100D01*
X79835073Y-115931904D02*
X79835073Y-115131904D01*
X80025550Y-114795100D02*
X80863645Y-114795100D01*
X80368407Y-115131904D02*
X80520788Y-115131904D01*
X80596978Y-115170000D01*
X80673169Y-115246190D01*
X80711264Y-115398571D01*
X80711264Y-115665238D01*
X80673169Y-115817619D01*
X80596978Y-115893809D01*
X80520788Y-115931904D01*
X80368407Y-115931904D01*
X80292216Y-115893809D01*
X80216026Y-115817619D01*
X80177930Y-115665238D01*
X80177930Y-115398571D01*
X80216026Y-115246190D01*
X80292216Y-115170000D01*
X80368407Y-115131904D01*
X80863645Y-114795100D02*
X81625550Y-114795100D01*
X81435073Y-115131904D02*
X81054121Y-115131904D01*
X81016026Y-115512857D01*
X81054121Y-115474761D01*
X81130311Y-115436666D01*
X81320788Y-115436666D01*
X81396978Y-115474761D01*
X81435073Y-115512857D01*
X81473169Y-115589047D01*
X81473169Y-115779523D01*
X81435073Y-115855714D01*
X81396978Y-115893809D01*
X81320788Y-115931904D01*
X81130311Y-115931904D01*
X81054121Y-115893809D01*
X81016026Y-115855714D01*
X79644597Y-117335100D02*
X80025550Y-117335100D01*
X79835073Y-118471904D02*
X79835073Y-117671904D01*
X80025550Y-117335100D02*
X80863645Y-117335100D01*
X80368407Y-117671904D02*
X80520788Y-117671904D01*
X80596978Y-117710000D01*
X80673169Y-117786190D01*
X80711264Y-117938571D01*
X80711264Y-118205238D01*
X80673169Y-118357619D01*
X80596978Y-118433809D01*
X80520788Y-118471904D01*
X80368407Y-118471904D01*
X80292216Y-118433809D01*
X80216026Y-118357619D01*
X80177930Y-118205238D01*
X80177930Y-117938571D01*
X80216026Y-117786190D01*
X80292216Y-117710000D01*
X80368407Y-117671904D01*
X80863645Y-117335100D02*
X81625550Y-117335100D01*
X81396978Y-117938571D02*
X81396978Y-118471904D01*
X81206502Y-117633809D02*
X81016026Y-118205238D01*
X81511264Y-118205238D01*
X79644597Y-119875100D02*
X80025550Y-119875100D01*
X79835073Y-121011904D02*
X79835073Y-120211904D01*
X80025550Y-119875100D02*
X80863645Y-119875100D01*
X80368407Y-120211904D02*
X80520788Y-120211904D01*
X80596978Y-120250000D01*
X80673169Y-120326190D01*
X80711264Y-120478571D01*
X80711264Y-120745238D01*
X80673169Y-120897619D01*
X80596978Y-120973809D01*
X80520788Y-121011904D01*
X80368407Y-121011904D01*
X80292216Y-120973809D01*
X80216026Y-120897619D01*
X80177930Y-120745238D01*
X80177930Y-120478571D01*
X80216026Y-120326190D01*
X80292216Y-120250000D01*
X80368407Y-120211904D01*
X80863645Y-119875100D02*
X81625550Y-119875100D01*
X80977930Y-120211904D02*
X81473169Y-120211904D01*
X81206502Y-120516666D01*
X81320788Y-120516666D01*
X81396978Y-120554761D01*
X81435073Y-120592857D01*
X81473169Y-120669047D01*
X81473169Y-120859523D01*
X81435073Y-120935714D01*
X81396978Y-120973809D01*
X81320788Y-121011904D01*
X81092216Y-121011904D01*
X81016026Y-120973809D01*
X80977930Y-120935714D01*
X79644597Y-122415100D02*
X80025550Y-122415100D01*
X79835073Y-123551904D02*
X79835073Y-122751904D01*
X80025550Y-122415100D02*
X80863645Y-122415100D01*
X80368407Y-122751904D02*
X80520788Y-122751904D01*
X80596978Y-122790000D01*
X80673169Y-122866190D01*
X80711264Y-123018571D01*
X80711264Y-123285238D01*
X80673169Y-123437619D01*
X80596978Y-123513809D01*
X80520788Y-123551904D01*
X80368407Y-123551904D01*
X80292216Y-123513809D01*
X80216026Y-123437619D01*
X80177930Y-123285238D01*
X80177930Y-123018571D01*
X80216026Y-122866190D01*
X80292216Y-122790000D01*
X80368407Y-122751904D01*
X80863645Y-122415100D02*
X81625550Y-122415100D01*
X81016026Y-122828095D02*
X81054121Y-122790000D01*
X81130311Y-122751904D01*
X81320788Y-122751904D01*
X81396978Y-122790000D01*
X81435073Y-122828095D01*
X81473169Y-122904285D01*
X81473169Y-122980476D01*
X81435073Y-123094761D01*
X80977930Y-123551904D01*
X81473169Y-123551904D01*
X79644597Y-124955100D02*
X80025550Y-124955100D01*
X79835073Y-126091904D02*
X79835073Y-125291904D01*
X80025550Y-124955100D02*
X80863645Y-124955100D01*
X80368407Y-125291904D02*
X80520788Y-125291904D01*
X80596978Y-125330000D01*
X80673169Y-125406190D01*
X80711264Y-125558571D01*
X80711264Y-125825238D01*
X80673169Y-125977619D01*
X80596978Y-126053809D01*
X80520788Y-126091904D01*
X80368407Y-126091904D01*
X80292216Y-126053809D01*
X80216026Y-125977619D01*
X80177930Y-125825238D01*
X80177930Y-125558571D01*
X80216026Y-125406190D01*
X80292216Y-125330000D01*
X80368407Y-125291904D01*
X80863645Y-124955100D02*
X81625550Y-124955100D01*
X81473169Y-126091904D02*
X81016026Y-126091904D01*
X81244597Y-126091904D02*
X81244597Y-125291904D01*
X81168407Y-125406190D01*
X81092216Y-125482380D01*
X81016026Y-125520476D01*
X79644597Y-127495100D02*
X80025550Y-127495100D01*
X79835073Y-128631904D02*
X79835073Y-127831904D01*
X80025550Y-127495100D02*
X80863645Y-127495100D01*
X80368407Y-127831904D02*
X80520788Y-127831904D01*
X80596978Y-127870000D01*
X80673169Y-127946190D01*
X80711264Y-128098571D01*
X80711264Y-128365238D01*
X80673169Y-128517619D01*
X80596978Y-128593809D01*
X80520788Y-128631904D01*
X80368407Y-128631904D01*
X80292216Y-128593809D01*
X80216026Y-128517619D01*
X80177930Y-128365238D01*
X80177930Y-128098571D01*
X80216026Y-127946190D01*
X80292216Y-127870000D01*
X80368407Y-127831904D01*
X80863645Y-127495100D02*
X81625550Y-127495100D01*
X81206502Y-127831904D02*
X81282692Y-127831904D01*
X81358883Y-127870000D01*
X81396978Y-127908095D01*
X81435073Y-127984285D01*
X81473169Y-128136666D01*
X81473169Y-128327142D01*
X81435073Y-128479523D01*
X81396978Y-128555714D01*
X81358883Y-128593809D01*
X81282692Y-128631904D01*
X81206502Y-128631904D01*
X81130311Y-128593809D01*
X81092216Y-128555714D01*
X81054121Y-128479523D01*
X81016026Y-128327142D01*
X81016026Y-128136666D01*
X81054121Y-127984285D01*
X81092216Y-127908095D01*
X81130311Y-127870000D01*
X81206502Y-127831904D01*
X80254121Y-131171904D02*
X80254121Y-130371904D01*
X80444597Y-130371904D01*
X80558883Y-130410000D01*
X80635073Y-130486190D01*
X80673169Y-130562380D01*
X80711264Y-130714761D01*
X80711264Y-130829047D01*
X80673169Y-130981428D01*
X80635073Y-131057619D01*
X80558883Y-131133809D01*
X80444597Y-131171904D01*
X80254121Y-131171904D01*
X80977930Y-130371904D02*
X81511264Y-130371904D01*
X81168407Y-131171904D01*
X80254121Y-133711904D02*
X80254121Y-132911904D01*
X80444597Y-132911904D01*
X80558883Y-132950000D01*
X80635073Y-133026190D01*
X80673169Y-133102380D01*
X80711264Y-133254761D01*
X80711264Y-133369047D01*
X80673169Y-133521428D01*
X80635073Y-133597619D01*
X80558883Y-133673809D01*
X80444597Y-133711904D01*
X80254121Y-133711904D01*
X81396978Y-132911904D02*
X81244597Y-132911904D01*
X81168407Y-132950000D01*
X81130311Y-132988095D01*
X81054121Y-133102380D01*
X81016026Y-133254761D01*
X81016026Y-133559523D01*
X81054121Y-133635714D01*
X81092216Y-133673809D01*
X81168407Y-133711904D01*
X81320788Y-133711904D01*
X81396978Y-133673809D01*
X81435073Y-133635714D01*
X81473169Y-133559523D01*
X81473169Y-133369047D01*
X81435073Y-133292857D01*
X81396978Y-133254761D01*
X81320788Y-133216666D01*
X81168407Y-133216666D01*
X81092216Y-133254761D01*
X81054121Y-133292857D01*
X81016026Y-133369047D01*
X80254121Y-136251904D02*
X80254121Y-135451904D01*
X80444597Y-135451904D01*
X80558883Y-135490000D01*
X80635073Y-135566190D01*
X80673169Y-135642380D01*
X80711264Y-135794761D01*
X80711264Y-135909047D01*
X80673169Y-136061428D01*
X80635073Y-136137619D01*
X80558883Y-136213809D01*
X80444597Y-136251904D01*
X80254121Y-136251904D01*
X81435073Y-135451904D02*
X81054121Y-135451904D01*
X81016026Y-135832857D01*
X81054121Y-135794761D01*
X81130311Y-135756666D01*
X81320788Y-135756666D01*
X81396978Y-135794761D01*
X81435073Y-135832857D01*
X81473169Y-135909047D01*
X81473169Y-136099523D01*
X81435073Y-136175714D01*
X81396978Y-136213809D01*
X81320788Y-136251904D01*
X81130311Y-136251904D01*
X81054121Y-136213809D01*
X81016026Y-136175714D01*
X80254121Y-138791904D02*
X80254121Y-137991904D01*
X80444597Y-137991904D01*
X80558883Y-138030000D01*
X80635073Y-138106190D01*
X80673169Y-138182380D01*
X80711264Y-138334761D01*
X80711264Y-138449047D01*
X80673169Y-138601428D01*
X80635073Y-138677619D01*
X80558883Y-138753809D01*
X80444597Y-138791904D01*
X80254121Y-138791904D01*
X81396978Y-138258571D02*
X81396978Y-138791904D01*
X81206502Y-137953809D02*
X81016026Y-138525238D01*
X81511264Y-138525238D01*
X80254121Y-141331904D02*
X80254121Y-140531904D01*
X80444597Y-140531904D01*
X80558883Y-140570000D01*
X80635073Y-140646190D01*
X80673169Y-140722380D01*
X80711264Y-140874761D01*
X80711264Y-140989047D01*
X80673169Y-141141428D01*
X80635073Y-141217619D01*
X80558883Y-141293809D01*
X80444597Y-141331904D01*
X80254121Y-141331904D01*
X80977930Y-140531904D02*
X81473169Y-140531904D01*
X81206502Y-140836666D01*
X81320788Y-140836666D01*
X81396978Y-140874761D01*
X81435073Y-140912857D01*
X81473169Y-140989047D01*
X81473169Y-141179523D01*
X81435073Y-141255714D01*
X81396978Y-141293809D01*
X81320788Y-141331904D01*
X81092216Y-141331904D01*
X81016026Y-141293809D01*
X80977930Y-141255714D01*
X80254121Y-143871904D02*
X80254121Y-143071904D01*
X80444597Y-143071904D01*
X80558883Y-143110000D01*
X80635073Y-143186190D01*
X80673169Y-143262380D01*
X80711264Y-143414761D01*
X80711264Y-143529047D01*
X80673169Y-143681428D01*
X80635073Y-143757619D01*
X80558883Y-143833809D01*
X80444597Y-143871904D01*
X80254121Y-143871904D01*
X81016026Y-143148095D02*
X81054121Y-143110000D01*
X81130311Y-143071904D01*
X81320788Y-143071904D01*
X81396978Y-143110000D01*
X81435073Y-143148095D01*
X81473169Y-143224285D01*
X81473169Y-143300476D01*
X81435073Y-143414761D01*
X80977930Y-143871904D01*
X81473169Y-143871904D01*
X80254121Y-146411904D02*
X80254121Y-145611904D01*
X80444597Y-145611904D01*
X80558883Y-145650000D01*
X80635073Y-145726190D01*
X80673169Y-145802380D01*
X80711264Y-145954761D01*
X80711264Y-146069047D01*
X80673169Y-146221428D01*
X80635073Y-146297619D01*
X80558883Y-146373809D01*
X80444597Y-146411904D01*
X80254121Y-146411904D01*
X81473169Y-146411904D02*
X81016026Y-146411904D01*
X81244597Y-146411904D02*
X81244597Y-145611904D01*
X81168407Y-145726190D01*
X81092216Y-145802380D01*
X81016026Y-145840476D01*
X80254121Y-148951904D02*
X80254121Y-148151904D01*
X80444597Y-148151904D01*
X80558883Y-148190000D01*
X80635073Y-148266190D01*
X80673169Y-148342380D01*
X80711264Y-148494761D01*
X80711264Y-148609047D01*
X80673169Y-148761428D01*
X80635073Y-148837619D01*
X80558883Y-148913809D01*
X80444597Y-148951904D01*
X80254121Y-148951904D01*
X81206502Y-148151904D02*
X81282692Y-148151904D01*
X81358883Y-148190000D01*
X81396978Y-148228095D01*
X81435073Y-148304285D01*
X81473169Y-148456666D01*
X81473169Y-148647142D01*
X81435073Y-148799523D01*
X81396978Y-148875714D01*
X81358883Y-148913809D01*
X81282692Y-148951904D01*
X81206502Y-148951904D01*
X81130311Y-148913809D01*
X81092216Y-148875714D01*
X81054121Y-148799523D01*
X81016026Y-148647142D01*
X81016026Y-148456666D01*
X81054121Y-148304285D01*
X81092216Y-148228095D01*
X81130311Y-148190000D01*
X81206502Y-148151904D01*
X79796978Y-150730000D02*
X79720788Y-150691904D01*
X79606502Y-150691904D01*
X79492216Y-150730000D01*
X79416026Y-150806190D01*
X79377930Y-150882380D01*
X79339835Y-151034761D01*
X79339835Y-151149047D01*
X79377930Y-151301428D01*
X79416026Y-151377619D01*
X79492216Y-151453809D01*
X79606502Y-151491904D01*
X79682692Y-151491904D01*
X79796978Y-151453809D01*
X79835073Y-151415714D01*
X79835073Y-151149047D01*
X79682692Y-151149047D01*
X80177930Y-151491904D02*
X80177930Y-150691904D01*
X80635073Y-151491904D01*
X80635073Y-150691904D01*
X81016026Y-151491904D02*
X81016026Y-150691904D01*
X81206502Y-150691904D01*
X81320788Y-150730000D01*
X81396978Y-150806190D01*
X81435073Y-150882380D01*
X81473169Y-151034761D01*
X81473169Y-151149047D01*
X81435073Y-151301428D01*
X81396978Y-151377619D01*
X81320788Y-151453809D01*
X81206502Y-151491904D01*
X81016026Y-151491904D01*
X87194450Y-104635100D02*
X88032545Y-104635100D01*
X87384926Y-105771904D02*
X87384926Y-104971904D01*
X87842069Y-105771904D01*
X87842069Y-104971904D01*
X88032545Y-104635100D02*
X88946830Y-104635100D01*
X88223021Y-105771904D02*
X88223021Y-104971904D01*
X88489688Y-105543333D01*
X88756354Y-104971904D01*
X88756354Y-105771904D01*
X88946830Y-104635100D02*
X89327783Y-104635100D01*
X89137307Y-105771904D02*
X89137307Y-104971904D01*
X87802069Y-108235714D02*
X87763973Y-108273809D01*
X87649688Y-108311904D01*
X87573497Y-108311904D01*
X87459211Y-108273809D01*
X87383021Y-108197619D01*
X87344926Y-108121428D01*
X87306830Y-107969047D01*
X87306830Y-107854761D01*
X87344926Y-107702380D01*
X87383021Y-107626190D01*
X87459211Y-107550000D01*
X87573497Y-107511904D01*
X87649688Y-107511904D01*
X87763973Y-107550000D01*
X87802069Y-107588095D01*
X88525878Y-108311904D02*
X88144926Y-108311904D01*
X88144926Y-107511904D01*
X88792545Y-108311904D02*
X88792545Y-107511904D01*
X89249688Y-108311904D02*
X88906830Y-107854761D01*
X89249688Y-107511904D02*
X88792545Y-107969047D01*
X87516830Y-110623333D02*
X87897783Y-110623333D01*
X87440640Y-110851904D02*
X87707307Y-110051904D01*
X87973973Y-110851904D01*
X88659688Y-110851904D02*
X88202545Y-110851904D01*
X88431116Y-110851904D02*
X88431116Y-110051904D01*
X88354926Y-110166190D01*
X88278735Y-110242380D01*
X88202545Y-110280476D01*
X89383497Y-110051904D02*
X89002545Y-110051904D01*
X88964450Y-110432857D01*
X89002545Y-110394761D01*
X89078735Y-110356666D01*
X89269211Y-110356666D01*
X89345402Y-110394761D01*
X89383497Y-110432857D01*
X89421592Y-110509047D01*
X89421592Y-110699523D01*
X89383497Y-110775714D01*
X89345402Y-110813809D01*
X89269211Y-110851904D01*
X89078735Y-110851904D01*
X89002545Y-110813809D01*
X88964450Y-110775714D01*
X87516830Y-113163333D02*
X87897783Y-113163333D01*
X87440640Y-113391904D02*
X87707307Y-112591904D01*
X87973973Y-113391904D01*
X88659688Y-113391904D02*
X88202545Y-113391904D01*
X88431116Y-113391904D02*
X88431116Y-112591904D01*
X88354926Y-112706190D01*
X88278735Y-112782380D01*
X88202545Y-112820476D01*
X89345402Y-112858571D02*
X89345402Y-113391904D01*
X89154926Y-112553809D02*
X88964450Y-113125238D01*
X89459688Y-113125238D01*
X87516830Y-115703333D02*
X87897783Y-115703333D01*
X87440640Y-115931904D02*
X87707307Y-115131904D01*
X87973973Y-115931904D01*
X88659688Y-115931904D02*
X88202545Y-115931904D01*
X88431116Y-115931904D02*
X88431116Y-115131904D01*
X88354926Y-115246190D01*
X88278735Y-115322380D01*
X88202545Y-115360476D01*
X88926354Y-115131904D02*
X89421592Y-115131904D01*
X89154926Y-115436666D01*
X89269211Y-115436666D01*
X89345402Y-115474761D01*
X89383497Y-115512857D01*
X89421592Y-115589047D01*
X89421592Y-115779523D01*
X89383497Y-115855714D01*
X89345402Y-115893809D01*
X89269211Y-115931904D01*
X89040640Y-115931904D01*
X88964450Y-115893809D01*
X88926354Y-115855714D01*
X87516830Y-118243333D02*
X87897783Y-118243333D01*
X87440640Y-118471904D02*
X87707307Y-117671904D01*
X87973973Y-118471904D01*
X88659688Y-118471904D02*
X88202545Y-118471904D01*
X88431116Y-118471904D02*
X88431116Y-117671904D01*
X88354926Y-117786190D01*
X88278735Y-117862380D01*
X88202545Y-117900476D01*
X88964450Y-117748095D02*
X89002545Y-117710000D01*
X89078735Y-117671904D01*
X89269211Y-117671904D01*
X89345402Y-117710000D01*
X89383497Y-117748095D01*
X89421592Y-117824285D01*
X89421592Y-117900476D01*
X89383497Y-118014761D01*
X88926354Y-118471904D01*
X89421592Y-118471904D01*
X87516830Y-120783333D02*
X87897783Y-120783333D01*
X87440640Y-121011904D02*
X87707307Y-120211904D01*
X87973973Y-121011904D01*
X88659688Y-121011904D02*
X88202545Y-121011904D01*
X88431116Y-121011904D02*
X88431116Y-120211904D01*
X88354926Y-120326190D01*
X88278735Y-120402380D01*
X88202545Y-120440476D01*
X89421592Y-121011904D02*
X88964450Y-121011904D01*
X89193021Y-121011904D02*
X89193021Y-120211904D01*
X89116830Y-120326190D01*
X89040640Y-120402380D01*
X88964450Y-120440476D01*
X87516830Y-123323333D02*
X87897783Y-123323333D01*
X87440640Y-123551904D02*
X87707307Y-122751904D01*
X87973973Y-123551904D01*
X88659688Y-123551904D02*
X88202545Y-123551904D01*
X88431116Y-123551904D02*
X88431116Y-122751904D01*
X88354926Y-122866190D01*
X88278735Y-122942380D01*
X88202545Y-122980476D01*
X89154926Y-122751904D02*
X89231116Y-122751904D01*
X89307307Y-122790000D01*
X89345402Y-122828095D01*
X89383497Y-122904285D01*
X89421592Y-123056666D01*
X89421592Y-123247142D01*
X89383497Y-123399523D01*
X89345402Y-123475714D01*
X89307307Y-123513809D01*
X89231116Y-123551904D01*
X89154926Y-123551904D01*
X89078735Y-123513809D01*
X89040640Y-123475714D01*
X89002545Y-123399523D01*
X88964450Y-123247142D01*
X88964450Y-123056666D01*
X89002545Y-122904285D01*
X89040640Y-122828095D01*
X89078735Y-122790000D01*
X89154926Y-122751904D01*
X87516830Y-125863333D02*
X87897783Y-125863333D01*
X87440640Y-126091904D02*
X87707307Y-125291904D01*
X87973973Y-126091904D01*
X88278735Y-126091904D02*
X88431116Y-126091904D01*
X88507307Y-126053809D01*
X88545402Y-126015714D01*
X88621592Y-125901428D01*
X88659688Y-125749047D01*
X88659688Y-125444285D01*
X88621592Y-125368095D01*
X88583497Y-125330000D01*
X88507307Y-125291904D01*
X88354926Y-125291904D01*
X88278735Y-125330000D01*
X88240640Y-125368095D01*
X88202545Y-125444285D01*
X88202545Y-125634761D01*
X88240640Y-125710952D01*
X88278735Y-125749047D01*
X88354926Y-125787142D01*
X88507307Y-125787142D01*
X88583497Y-125749047D01*
X88621592Y-125710952D01*
X88659688Y-125634761D01*
X87516830Y-128403333D02*
X87897783Y-128403333D01*
X87440640Y-128631904D02*
X87707307Y-127831904D01*
X87973973Y-128631904D01*
X88354926Y-128174761D02*
X88278735Y-128136666D01*
X88240640Y-128098571D01*
X88202545Y-128022380D01*
X88202545Y-127984285D01*
X88240640Y-127908095D01*
X88278735Y-127870000D01*
X88354926Y-127831904D01*
X88507307Y-127831904D01*
X88583497Y-127870000D01*
X88621592Y-127908095D01*
X88659688Y-127984285D01*
X88659688Y-128022380D01*
X88621592Y-128098571D01*
X88583497Y-128136666D01*
X88507307Y-128174761D01*
X88354926Y-128174761D01*
X88278735Y-128212857D01*
X88240640Y-128250952D01*
X88202545Y-128327142D01*
X88202545Y-128479523D01*
X88240640Y-128555714D01*
X88278735Y-128593809D01*
X88354926Y-128631904D01*
X88507307Y-128631904D01*
X88583497Y-128593809D01*
X88621592Y-128555714D01*
X88659688Y-128479523D01*
X88659688Y-128327142D01*
X88621592Y-128250952D01*
X88583497Y-128212857D01*
X88507307Y-128174761D01*
X87516830Y-130943333D02*
X87897783Y-130943333D01*
X87440640Y-131171904D02*
X87707307Y-130371904D01*
X87973973Y-131171904D01*
X88164450Y-130371904D02*
X88697783Y-130371904D01*
X88354926Y-131171904D01*
X87516830Y-133483333D02*
X87897783Y-133483333D01*
X87440640Y-133711904D02*
X87707307Y-132911904D01*
X87973973Y-133711904D01*
X88583497Y-132911904D02*
X88431116Y-132911904D01*
X88354926Y-132950000D01*
X88316830Y-132988095D01*
X88240640Y-133102380D01*
X88202545Y-133254761D01*
X88202545Y-133559523D01*
X88240640Y-133635714D01*
X88278735Y-133673809D01*
X88354926Y-133711904D01*
X88507307Y-133711904D01*
X88583497Y-133673809D01*
X88621592Y-133635714D01*
X88659688Y-133559523D01*
X88659688Y-133369047D01*
X88621592Y-133292857D01*
X88583497Y-133254761D01*
X88507307Y-133216666D01*
X88354926Y-133216666D01*
X88278735Y-133254761D01*
X88240640Y-133292857D01*
X88202545Y-133369047D01*
X87516830Y-136023333D02*
X87897783Y-136023333D01*
X87440640Y-136251904D02*
X87707307Y-135451904D01*
X87973973Y-136251904D01*
X88621592Y-135451904D02*
X88240640Y-135451904D01*
X88202545Y-135832857D01*
X88240640Y-135794761D01*
X88316830Y-135756666D01*
X88507307Y-135756666D01*
X88583497Y-135794761D01*
X88621592Y-135832857D01*
X88659688Y-135909047D01*
X88659688Y-136099523D01*
X88621592Y-136175714D01*
X88583497Y-136213809D01*
X88507307Y-136251904D01*
X88316830Y-136251904D01*
X88240640Y-136213809D01*
X88202545Y-136175714D01*
X87516830Y-141103333D02*
X87897783Y-141103333D01*
X87440640Y-141331904D02*
X87707307Y-140531904D01*
X87973973Y-141331904D01*
X88164450Y-140531904D02*
X88659688Y-140531904D01*
X88393021Y-140836666D01*
X88507307Y-140836666D01*
X88583497Y-140874761D01*
X88621592Y-140912857D01*
X88659688Y-140989047D01*
X88659688Y-141179523D01*
X88621592Y-141255714D01*
X88583497Y-141293809D01*
X88507307Y-141331904D01*
X88278735Y-141331904D01*
X88202545Y-141293809D01*
X88164450Y-141255714D01*
X87516830Y-143643333D02*
X87897783Y-143643333D01*
X87440640Y-143871904D02*
X87707307Y-143071904D01*
X87973973Y-143871904D01*
X88202545Y-143148095D02*
X88240640Y-143110000D01*
X88316830Y-143071904D01*
X88507307Y-143071904D01*
X88583497Y-143110000D01*
X88621592Y-143148095D01*
X88659688Y-143224285D01*
X88659688Y-143300476D01*
X88621592Y-143414761D01*
X88164450Y-143871904D01*
X88659688Y-143871904D01*
X87516830Y-148723333D02*
X87897783Y-148723333D01*
X87440640Y-148951904D02*
X87707307Y-148151904D01*
X87973973Y-148951904D01*
X88393021Y-148151904D02*
X88469211Y-148151904D01*
X88545402Y-148190000D01*
X88583497Y-148228095D01*
X88621592Y-148304285D01*
X88659688Y-148456666D01*
X88659688Y-148647142D01*
X88621592Y-148799523D01*
X88583497Y-148875714D01*
X88545402Y-148913809D01*
X88469211Y-148951904D01*
X88393021Y-148951904D01*
X88316830Y-148913809D01*
X88278735Y-148875714D01*
X88240640Y-148799523D01*
X88202545Y-148647142D01*
X88202545Y-148456666D01*
X88240640Y-148304285D01*
X88278735Y-148228095D01*
X88316830Y-148190000D01*
X88393021Y-148151904D01*
X87516830Y-146183333D02*
X87897783Y-146183333D01*
X87440640Y-146411904D02*
X87707307Y-145611904D01*
X87973973Y-146411904D01*
X88659688Y-146411904D02*
X88202545Y-146411904D01*
X88431116Y-146411904D02*
X88431116Y-145611904D01*
X88354926Y-145726190D01*
X88278735Y-145802380D01*
X88202545Y-145840476D01*
X87935878Y-150691904D02*
X87554926Y-150691904D01*
X87516830Y-151072857D01*
X87554926Y-151034761D01*
X87631116Y-150996666D01*
X87821592Y-150996666D01*
X87897783Y-151034761D01*
X87935878Y-151072857D01*
X87973973Y-151149047D01*
X87973973Y-151339523D01*
X87935878Y-151415714D01*
X87897783Y-151453809D01*
X87821592Y-151491904D01*
X87631116Y-151491904D01*
X87554926Y-151453809D01*
X87516830Y-151415714D01*
X88202545Y-150691904D02*
X88469211Y-151491904D01*
X88735878Y-150691904D01*
X87364450Y-102095100D02*
X88164450Y-102095100D01*
X88012069Y-103231904D02*
X87745402Y-102850952D01*
X87554926Y-103231904D02*
X87554926Y-102431904D01*
X87859688Y-102431904D01*
X87935878Y-102470000D01*
X87973973Y-102508095D01*
X88012069Y-102584285D01*
X88012069Y-102698571D01*
X87973973Y-102774761D01*
X87935878Y-102812857D01*
X87859688Y-102850952D01*
X87554926Y-102850952D01*
X88164450Y-102095100D02*
X89078735Y-102095100D01*
X88278735Y-102431904D02*
X88469211Y-103231904D01*
X88621592Y-102660476D01*
X88773973Y-103231904D01*
X88964450Y-102431904D01*
X87516830Y-138563333D02*
X87897783Y-138563333D01*
X87440640Y-138791904D02*
X87707307Y-137991904D01*
X87973973Y-138791904D01*
X88583497Y-138258571D02*
X88583497Y-138791904D01*
X88393021Y-137953809D02*
X88202545Y-138525238D01*
X88697783Y-138525238D01*
D11*
X115050714Y-121098571D02*
X115407857Y-122598571D01*
X115693571Y-121527142D01*
X115979285Y-122598571D01*
X116336428Y-121098571D01*
X117550714Y-121098571D02*
X117265000Y-121098571D01*
X117122142Y-121170000D01*
X117050714Y-121241428D01*
X116907857Y-121455714D01*
X116836428Y-121741428D01*
X116836428Y-122312857D01*
X116907857Y-122455714D01*
X116979285Y-122527142D01*
X117122142Y-122598571D01*
X117407857Y-122598571D01*
X117550714Y-122527142D01*
X117622142Y-122455714D01*
X117693571Y-122312857D01*
X117693571Y-121955714D01*
X117622142Y-121812857D01*
X117550714Y-121741428D01*
X117407857Y-121670000D01*
X117122142Y-121670000D01*
X116979285Y-121741428D01*
X116907857Y-121812857D01*
X116836428Y-121955714D01*
X119050714Y-121098571D02*
X118336428Y-121098571D01*
X118265000Y-121812857D01*
X118336428Y-121741428D01*
X118479285Y-121670000D01*
X118836428Y-121670000D01*
X118979285Y-121741428D01*
X119050714Y-121812857D01*
X119122142Y-121955714D01*
X119122142Y-122312857D01*
X119050714Y-122455714D01*
X118979285Y-122527142D01*
X118836428Y-122598571D01*
X118479285Y-122598571D01*
X118336428Y-122527142D01*
X118265000Y-122455714D01*
X120622142Y-122455714D02*
X120550714Y-122527142D01*
X120336428Y-122598571D01*
X120193571Y-122598571D01*
X119979285Y-122527142D01*
X119836428Y-122384285D01*
X119765000Y-122241428D01*
X119693571Y-121955714D01*
X119693571Y-121741428D01*
X119765000Y-121455714D01*
X119836428Y-121312857D01*
X119979285Y-121170000D01*
X120193571Y-121098571D01*
X120336428Y-121098571D01*
X120550714Y-121170000D01*
X120622142Y-121241428D01*
X121550714Y-121098571D02*
X121693571Y-121098571D01*
X121836428Y-121170000D01*
X121907857Y-121241428D01*
X121979285Y-121384285D01*
X122050714Y-121670000D01*
X122050714Y-122027142D01*
X121979285Y-122312857D01*
X121907857Y-122455714D01*
X121836428Y-122527142D01*
X121693571Y-122598571D01*
X121550714Y-122598571D01*
X121407857Y-122527142D01*
X121336428Y-122455714D01*
X121265000Y-122312857D01*
X121193571Y-122027142D01*
X121193571Y-121670000D01*
X121265000Y-121384285D01*
X121336428Y-121241428D01*
X121407857Y-121170000D01*
X121550714Y-121098571D01*
X122622142Y-121241428D02*
X122693571Y-121170000D01*
X122836428Y-121098571D01*
X123193571Y-121098571D01*
X123336428Y-121170000D01*
X123407857Y-121241428D01*
X123479285Y-121384285D01*
X123479285Y-121527142D01*
X123407857Y-121741428D01*
X122550714Y-122598571D01*
X123479285Y-122598571D01*
X124050714Y-122527142D02*
X124265000Y-122598571D01*
X124622142Y-122598571D01*
X124765000Y-122527142D01*
X124836428Y-122455714D01*
X124907857Y-122312857D01*
X124907857Y-122170000D01*
X124836428Y-122027142D01*
X124765000Y-121955714D01*
X124622142Y-121884285D01*
X124336428Y-121812857D01*
X124193571Y-121741428D01*
X124122142Y-121670000D01*
X124050714Y-121527142D01*
X124050714Y-121384285D01*
X124122142Y-121241428D01*
X124193571Y-121170000D01*
X124336428Y-121098571D01*
X124693571Y-121098571D01*
X124907857Y-121170000D01*
D12*
%TO.C,U4*%
X94495000Y-99000000D02*
X94495000Y-109280000D01*
X112515000Y-99000000D02*
X94495000Y-99000000D01*
X112515000Y-109280000D02*
X112515000Y-99000000D01*
X94495000Y-109280000D02*
X112515000Y-109280000D01*
X94555000Y-101490000D02*
X94555000Y-103140000D01*
X112455000Y-101490000D02*
X94555000Y-101490000D01*
X112455000Y-106790000D02*
X112455000Y-101490000D01*
X94555000Y-106790000D02*
X112455000Y-106790000D01*
X94555000Y-105140000D02*
X94555000Y-106790000D01*
X94555000Y-103140000D02*
G75*
G02*
X94555000Y-105140000I0J-1000000D01*
G01*
%TO.C,U9*%
X185734000Y-85360000D02*
X185734000Y-79900000D01*
X185734000Y-79900000D02*
X150054000Y-79900000D01*
X150054000Y-79900000D02*
X150054000Y-92820000D01*
X150054000Y-92820000D02*
X185734000Y-92820000D01*
X185734000Y-92820000D02*
X185734000Y-87360000D01*
X185794000Y-77410000D02*
X149994000Y-77410000D01*
X149994000Y-77410000D02*
X149994000Y-95310000D01*
X149994000Y-95310000D02*
X185794000Y-95310000D01*
X185794000Y-95310000D02*
X185794000Y-77410000D01*
X185734000Y-87360000D02*
G75*
G02*
X185734000Y-85360000I0J1000000D01*
G01*
%TO.C,U7*%
X126310000Y-93240000D02*
X126310000Y-89640000D01*
X126298478Y-93278478D02*
G75*
G02*
X121860000Y-91440000I-1838478J1838478D01*
G01*
X126298478Y-89601522D02*
G75*
G03*
X121860000Y-91440000I-1838478J-1838478D01*
G01*
%TO.C,U3*%
X94555000Y-144510000D02*
X94555000Y-149970000D01*
X94555000Y-149970000D02*
X145475000Y-149970000D01*
X145475000Y-149970000D02*
X145475000Y-137050000D01*
X145475000Y-137050000D02*
X94555000Y-137050000D01*
X94555000Y-137050000D02*
X94555000Y-142510000D01*
X94495000Y-152460000D02*
X145535000Y-152460000D01*
X145535000Y-152460000D02*
X145535000Y-134560000D01*
X145535000Y-134560000D02*
X94495000Y-134560000D01*
X94495000Y-134560000D02*
X94495000Y-152460000D01*
X94555000Y-142510000D02*
G75*
G02*
X94555000Y-144510000I0J-1000000D01*
G01*
%TO.C,J1*%
X87055000Y-152460000D02*
X85725000Y-152460000D01*
X87055000Y-151130000D02*
X87055000Y-152460000D01*
X84455000Y-152460000D02*
X81855000Y-152460000D01*
X84455000Y-149860000D02*
X84455000Y-152460000D01*
X87055000Y-149860000D02*
X84455000Y-149860000D01*
X81855000Y-152460000D02*
X81855000Y-101540000D01*
X87055000Y-149860000D02*
X87055000Y-101540000D01*
X87055000Y-101540000D02*
X81855000Y-101540000D01*
%TO.C,U8*%
X184905000Y-130870000D02*
X184905000Y-112970000D01*
X149105000Y-130870000D02*
X184905000Y-130870000D01*
X149105000Y-112970000D02*
X149105000Y-130870000D01*
X184905000Y-112970000D02*
X149105000Y-112970000D01*
X184845000Y-128380000D02*
X184845000Y-122920000D01*
X149165000Y-128380000D02*
X184845000Y-128380000D01*
X149165000Y-115460000D02*
X149165000Y-128380000D01*
X184845000Y-115460000D02*
X149165000Y-115460000D01*
X184845000Y-120920000D02*
X184845000Y-115460000D01*
X184845000Y-122920000D02*
G75*
G02*
X184845000Y-120920000I0J1000000D01*
G01*
%TO.C,U1*%
X94495000Y-112970000D02*
X94495000Y-130870000D01*
X145535000Y-112970000D02*
X94495000Y-112970000D01*
X145535000Y-130870000D02*
X145535000Y-112970000D01*
X94495000Y-130870000D02*
X145535000Y-130870000D01*
X94555000Y-115460000D02*
X94555000Y-120920000D01*
X145475000Y-115460000D02*
X94555000Y-115460000D01*
X145475000Y-128380000D02*
X145475000Y-115460000D01*
X94555000Y-128380000D02*
X145475000Y-128380000D01*
X94555000Y-122920000D02*
X94555000Y-128380000D01*
X94555000Y-120920000D02*
G75*
G02*
X94555000Y-122920000I0J-1000000D01*
G01*
%TO.C,J4*%
X121345000Y-163890000D02*
X121345000Y-158690000D01*
X108585000Y-163890000D02*
X121345000Y-163890000D01*
X105985000Y-158690000D02*
X121345000Y-158690000D01*
X108585000Y-163890000D02*
X108585000Y-161290000D01*
X108585000Y-161290000D02*
X105985000Y-161290000D01*
X105985000Y-161290000D02*
X105985000Y-158690000D01*
X107315000Y-163890000D02*
X105985000Y-163890000D01*
X105985000Y-163890000D02*
X105985000Y-162560000D01*
%TO.C,SW3*%
X100965000Y-161290000D02*
G75*
G03*
X100965000Y-161290000I-2540000J0D01*
G01*
X94615000Y-164800000D02*
X94615000Y-165100000D01*
X102235000Y-164800000D02*
X102235000Y-165100000D01*
X94615000Y-159720000D02*
X94615000Y-162860000D01*
X102235000Y-159720000D02*
X102235000Y-162860000D01*
X94615000Y-157480000D02*
X94615000Y-157780000D01*
X102235000Y-165100000D02*
X94615000Y-165100000D01*
X102235000Y-157480000D02*
X102235000Y-157780000D01*
X94615000Y-157480000D02*
X102235000Y-157480000D01*
%TO.C,C4*%
X89435000Y-147260000D02*
X92175000Y-147260000D01*
X89435000Y-152500000D02*
X92175000Y-152500000D01*
X92175000Y-152500000D02*
X92175000Y-147260000D01*
X89435000Y-152500000D02*
X89435000Y-147260000D01*
%TO.C,C6*%
X88927000Y-126051000D02*
X91667000Y-126051000D01*
X88927000Y-131291000D02*
X91667000Y-131291000D01*
X91667000Y-131291000D02*
X91667000Y-126051000D01*
X88927000Y-131291000D02*
X88927000Y-126051000D01*
%TO.C,D2*%
X179599000Y-158984000D02*
X176509000Y-158984000D01*
X180554000Y-161544000D02*
G75*
G03*
X180554000Y-161544000I-2500000J0D01*
G01*
X178053538Y-164534000D02*
G75*
G03*
X179598830Y-158984000I462J2990000D01*
G01*
X178054462Y-164534000D02*
G75*
G02*
X176509170Y-158984000I-462J2990000D01*
G01*
%TO.C,U5*%
X106680000Y-79255000D02*
X106680000Y-76715000D01*
X109220000Y-79255000D02*
X109220000Y-76715000D01*
X111760000Y-79255000D02*
X111760000Y-76715000D01*
X104100000Y-95145000D02*
X104100000Y-79255000D01*
X114340000Y-95145000D02*
X114340000Y-79255000D01*
X114340000Y-95145000D02*
X104100000Y-95145000D01*
X114340000Y-79255000D02*
X104100000Y-79255000D01*
%TO.C,C1*%
X189965000Y-139760000D02*
X187225000Y-139760000D01*
X189965000Y-134520000D02*
X187225000Y-134520000D01*
X187225000Y-134520000D02*
X187225000Y-139760000D01*
X189965000Y-134520000D02*
X189965000Y-139760000D01*
%TO.C,C2*%
X118645000Y-109320000D02*
X118645000Y-104080000D01*
X121385000Y-109320000D02*
X121385000Y-104080000D01*
X118645000Y-109320000D02*
X121385000Y-109320000D01*
X118645000Y-104080000D02*
X121385000Y-104080000D01*
%TO.C,C3*%
X189965000Y-112930000D02*
X189965000Y-118170000D01*
X187225000Y-112930000D02*
X187225000Y-118170000D01*
X189965000Y-112930000D02*
X187225000Y-112930000D01*
X189965000Y-118170000D02*
X187225000Y-118170000D01*
%TO.C,C5*%
X123725000Y-86460000D02*
X123725000Y-81220000D01*
X126465000Y-86460000D02*
X126465000Y-81220000D01*
X123725000Y-86460000D02*
X126465000Y-86460000D01*
X123725000Y-81220000D02*
X126465000Y-81220000D01*
%TO.C,C7*%
X100230000Y-79475000D02*
X100230000Y-74235000D01*
X102970000Y-79475000D02*
X102970000Y-74235000D01*
X100230000Y-79475000D02*
X102970000Y-79475000D01*
X100230000Y-74235000D02*
X102970000Y-74235000D01*
%TO.C,C8*%
X183034000Y-107923000D02*
X183034000Y-102683000D01*
X185774000Y-107923000D02*
X185774000Y-102683000D01*
X183034000Y-107923000D02*
X185774000Y-107923000D01*
X183034000Y-102683000D02*
X185774000Y-102683000D01*
%TO.C,C9*%
X120980000Y-77470000D02*
G75*
G03*
X120980000Y-77470000I-2120000J0D01*
G01*
%TO.C,C10*%
X89435000Y-104080000D02*
X92175000Y-104080000D01*
X89435000Y-109320000D02*
X92175000Y-109320000D01*
X92175000Y-109320000D02*
X92175000Y-104080000D01*
X89435000Y-109320000D02*
X89435000Y-104080000D01*
%TO.C,D1*%
X96555000Y-95450000D02*
X96555000Y-92510000D01*
X96315000Y-95450000D02*
X96315000Y-92510000D01*
X96435000Y-95450000D02*
X96435000Y-92510000D01*
X90875000Y-93980000D02*
X91895000Y-93980000D01*
X98355000Y-93980000D02*
X97335000Y-93980000D01*
X91895000Y-95450000D02*
X97335000Y-95450000D01*
X91895000Y-92510000D02*
X91895000Y-95450000D01*
X97335000Y-92510000D02*
X91895000Y-92510000D01*
X97335000Y-95450000D02*
X97335000Y-92510000D01*
%TO.C,J2*%
X98580000Y-85355000D02*
X95980000Y-85355000D01*
X98580000Y-70655000D02*
X98580000Y-85355000D01*
X89380000Y-85355000D02*
X89380000Y-83455000D01*
X92080000Y-85355000D02*
X89380000Y-85355000D01*
X89380000Y-70655000D02*
X98580000Y-70655000D01*
X89380000Y-79455000D02*
X89380000Y-70655000D01*
X98780000Y-84505000D02*
X98780000Y-85555000D01*
X97730000Y-85555000D02*
X98780000Y-85555000D01*
%TO.C,J3*%
X172780000Y-164144000D02*
X171450000Y-164144000D01*
X172780000Y-162814000D02*
X172780000Y-164144000D01*
X170180000Y-164144000D02*
X167580000Y-164144000D01*
X170180000Y-161544000D02*
X170180000Y-164144000D01*
X172780000Y-161544000D02*
X170180000Y-161544000D01*
X167580000Y-164144000D02*
X167580000Y-158944000D01*
X172780000Y-161544000D02*
X172780000Y-158944000D01*
X172780000Y-158944000D02*
X167580000Y-158944000D01*
%TO.C,J5*%
X128845000Y-163890000D02*
X128845000Y-162560000D01*
X130175000Y-163890000D02*
X128845000Y-163890000D01*
X128845000Y-161290000D02*
X128845000Y-158690000D01*
X131445000Y-161290000D02*
X128845000Y-161290000D01*
X131445000Y-163890000D02*
X131445000Y-161290000D01*
X128845000Y-158690000D02*
X144205000Y-158690000D01*
X131445000Y-163890000D02*
X144205000Y-163890000D01*
X144205000Y-163890000D02*
X144205000Y-158690000D01*
%TO.C,J6*%
X149165000Y-162620000D02*
X149165000Y-161290000D01*
X150495000Y-162620000D02*
X149165000Y-162620000D01*
X151765000Y-162620000D02*
X151765000Y-159960000D01*
X151765000Y-159960000D02*
X164525000Y-159960000D01*
X151765000Y-162620000D02*
X164525000Y-162620000D01*
X164525000Y-162620000D02*
X164525000Y-159960000D01*
%TO.C,R1*%
X176625000Y-108304000D02*
X176625000Y-105564000D01*
X176625000Y-105564000D02*
X170085000Y-105564000D01*
X170085000Y-105564000D02*
X170085000Y-108304000D01*
X170085000Y-108304000D02*
X176625000Y-108304000D01*
X177395000Y-106934000D02*
X176625000Y-106934000D01*
X169315000Y-106934000D02*
X170085000Y-106934000D01*
%TO.C,R2*%
X154075000Y-101854000D02*
X154845000Y-101854000D01*
X162155000Y-101854000D02*
X161385000Y-101854000D01*
X154845000Y-103224000D02*
X161385000Y-103224000D01*
X154845000Y-100484000D02*
X154845000Y-103224000D01*
X161385000Y-100484000D02*
X154845000Y-100484000D01*
X161385000Y-103224000D02*
X161385000Y-100484000D01*
%TO.C,R3*%
X170085000Y-100484000D02*
X170085000Y-103224000D01*
X170085000Y-103224000D02*
X176625000Y-103224000D01*
X176625000Y-103224000D02*
X176625000Y-100484000D01*
X176625000Y-100484000D02*
X170085000Y-100484000D01*
X169315000Y-101854000D02*
X170085000Y-101854000D01*
X177395000Y-101854000D02*
X176625000Y-101854000D01*
%TO.C,R4*%
X154075000Y-106934000D02*
X154845000Y-106934000D01*
X162155000Y-106934000D02*
X161385000Y-106934000D01*
X154845000Y-108304000D02*
X161385000Y-108304000D01*
X154845000Y-105564000D02*
X154845000Y-108304000D01*
X161385000Y-105564000D02*
X154845000Y-105564000D01*
X161385000Y-108304000D02*
X161385000Y-105564000D01*
%TO.C,SW1*%
X81220000Y-95935000D02*
X81220000Y-94635000D01*
X81220000Y-95935000D02*
X82520000Y-95935000D01*
X81620000Y-95535000D02*
X81620000Y-83535000D01*
X81620000Y-83535000D02*
X86020000Y-83535000D01*
X86020000Y-83535000D02*
X86020000Y-95535000D01*
X86020000Y-95535000D02*
X81620000Y-95535000D01*
%TO.C,SW2*%
X140025000Y-75270000D02*
X140025000Y-79670000D01*
X128025000Y-75270000D02*
X140025000Y-75270000D01*
X128025000Y-79670000D02*
X128025000Y-75270000D01*
X140025000Y-79670000D02*
X128025000Y-79670000D01*
X140425000Y-80070000D02*
X140425000Y-78770000D01*
X140425000Y-80070000D02*
X139125000Y-80070000D01*
%TO.C,U2*%
X123705000Y-99000000D02*
X123705000Y-109280000D01*
X144265000Y-99000000D02*
X123705000Y-99000000D01*
X144265000Y-109280000D02*
X144265000Y-99000000D01*
X123705000Y-109280000D02*
X144265000Y-109280000D01*
X123765000Y-101490000D02*
X123765000Y-103140000D01*
X144205000Y-101490000D02*
X123765000Y-101490000D01*
X144205000Y-106790000D02*
X144205000Y-101490000D01*
X123765000Y-106790000D02*
X144205000Y-106790000D01*
X123765000Y-105140000D02*
X123765000Y-106790000D01*
X123765000Y-103140000D02*
G75*
G02*
X123765000Y-105140000I0J-1000000D01*
G01*
%TO.C,U6*%
X184905000Y-152460000D02*
X184905000Y-134560000D01*
X149105000Y-152460000D02*
X184905000Y-152460000D01*
X149105000Y-134560000D02*
X149105000Y-152460000D01*
X184905000Y-134560000D02*
X149105000Y-134560000D01*
X184845000Y-149970000D02*
X184845000Y-144510000D01*
X149165000Y-149970000D02*
X184845000Y-149970000D01*
X149165000Y-137050000D02*
X149165000Y-149970000D01*
X184845000Y-137050000D02*
X149165000Y-137050000D01*
X184845000Y-142510000D02*
X184845000Y-137050000D01*
X184845000Y-144510000D02*
G75*
G02*
X184845000Y-142510000I0J1000000D01*
G01*
%TO.C,X1*%
X127535000Y-94080000D02*
X139685000Y-94080000D01*
X140435000Y-93330000D02*
X140435000Y-81930000D01*
X139685000Y-81180000D02*
X128285000Y-81180000D01*
X127535000Y-81930000D02*
X127535000Y-94080000D01*
X139685000Y-94080000D02*
G75*
G03*
X140435000Y-93330000I0J750000D01*
G01*
X140435000Y-81930000D02*
G75*
G03*
X139685000Y-81180000I-750000J0D01*
G01*
X128285000Y-81180000D02*
G75*
G03*
X127535000Y-81930000I0J-750000D01*
G01*
%TO.C,U4*%
D13*
X93007380Y-104901904D02*
X93816904Y-104901904D01*
X93912142Y-104854285D01*
X93959761Y-104806666D01*
X94007380Y-104711428D01*
X94007380Y-104520952D01*
X93959761Y-104425714D01*
X93912142Y-104378095D01*
X93816904Y-104330476D01*
X93007380Y-104330476D01*
X93340714Y-103425714D02*
X94007380Y-103425714D01*
X92959761Y-103663809D02*
X93674047Y-103901904D01*
X93674047Y-103282857D01*
%TO.C,U9*%
X148169380Y-87121904D02*
X148978904Y-87121904D01*
X149074142Y-87074285D01*
X149121761Y-87026666D01*
X149169380Y-86931428D01*
X149169380Y-86740952D01*
X149121761Y-86645714D01*
X149074142Y-86598095D01*
X148978904Y-86550476D01*
X148169380Y-86550476D01*
X149169380Y-86026666D02*
X149169380Y-85836190D01*
X149121761Y-85740952D01*
X149074142Y-85693333D01*
X148931285Y-85598095D01*
X148740809Y-85550476D01*
X148359857Y-85550476D01*
X148264619Y-85598095D01*
X148217000Y-85645714D01*
X148169380Y-85740952D01*
X148169380Y-85931428D01*
X148217000Y-86026666D01*
X148264619Y-86074285D01*
X148359857Y-86121904D01*
X148597952Y-86121904D01*
X148693190Y-86074285D01*
X148740809Y-86026666D01*
X148788428Y-85931428D01*
X148788428Y-85740952D01*
X148740809Y-85645714D01*
X148693190Y-85598095D01*
X148597952Y-85550476D01*
%TO.C,U7*%
X120352380Y-92201904D02*
X121161904Y-92201904D01*
X121257142Y-92154285D01*
X121304761Y-92106666D01*
X121352380Y-92011428D01*
X121352380Y-91820952D01*
X121304761Y-91725714D01*
X121257142Y-91678095D01*
X121161904Y-91630476D01*
X120352380Y-91630476D01*
X120352380Y-91249523D02*
X120352380Y-90582857D01*
X121352380Y-91011428D01*
%TO.C,U3*%
X93007380Y-144271904D02*
X93816904Y-144271904D01*
X93912142Y-144224285D01*
X93959761Y-144176666D01*
X94007380Y-144081428D01*
X94007380Y-143890952D01*
X93959761Y-143795714D01*
X93912142Y-143748095D01*
X93816904Y-143700476D01*
X93007380Y-143700476D01*
X93007380Y-143319523D02*
X93007380Y-142700476D01*
X93388333Y-143033809D01*
X93388333Y-142890952D01*
X93435952Y-142795714D01*
X93483571Y-142748095D01*
X93578809Y-142700476D01*
X93816904Y-142700476D01*
X93912142Y-142748095D01*
X93959761Y-142795714D01*
X94007380Y-142890952D01*
X94007380Y-143176666D01*
X93959761Y-143271904D01*
X93912142Y-143319523D01*
%TO.C,J1*%
X84121666Y-152912380D02*
X84121666Y-153626666D01*
X84074047Y-153769523D01*
X83978809Y-153864761D01*
X83835952Y-153912380D01*
X83740714Y-153912380D01*
X85121666Y-153912380D02*
X84550238Y-153912380D01*
X84835952Y-153912380D02*
X84835952Y-152912380D01*
X84740714Y-153055238D01*
X84645476Y-153150476D01*
X84550238Y-153198095D01*
%TO.C,U8*%
X185297380Y-122681904D02*
X186106904Y-122681904D01*
X186202142Y-122634285D01*
X186249761Y-122586666D01*
X186297380Y-122491428D01*
X186297380Y-122300952D01*
X186249761Y-122205714D01*
X186202142Y-122158095D01*
X186106904Y-122110476D01*
X185297380Y-122110476D01*
X185725952Y-121491428D02*
X185678333Y-121586666D01*
X185630714Y-121634285D01*
X185535476Y-121681904D01*
X185487857Y-121681904D01*
X185392619Y-121634285D01*
X185345000Y-121586666D01*
X185297380Y-121491428D01*
X185297380Y-121300952D01*
X185345000Y-121205714D01*
X185392619Y-121158095D01*
X185487857Y-121110476D01*
X185535476Y-121110476D01*
X185630714Y-121158095D01*
X185678333Y-121205714D01*
X185725952Y-121300952D01*
X185725952Y-121491428D01*
X185773571Y-121586666D01*
X185821190Y-121634285D01*
X185916428Y-121681904D01*
X186106904Y-121681904D01*
X186202142Y-121634285D01*
X186249761Y-121586666D01*
X186297380Y-121491428D01*
X186297380Y-121300952D01*
X186249761Y-121205714D01*
X186202142Y-121158095D01*
X186106904Y-121110476D01*
X185916428Y-121110476D01*
X185821190Y-121158095D01*
X185773571Y-121205714D01*
X185725952Y-121300952D01*
%TO.C,U1*%
X93007380Y-122681904D02*
X93816904Y-122681904D01*
X93912142Y-122634285D01*
X93959761Y-122586666D01*
X94007380Y-122491428D01*
X94007380Y-122300952D01*
X93959761Y-122205714D01*
X93912142Y-122158095D01*
X93816904Y-122110476D01*
X93007380Y-122110476D01*
X94007380Y-121110476D02*
X94007380Y-121681904D01*
X94007380Y-121396190D02*
X93007380Y-121396190D01*
X93150238Y-121491428D01*
X93245476Y-121586666D01*
X93293095Y-121681904D01*
%TO.C,J4*%
X104437380Y-161623333D02*
X105151666Y-161623333D01*
X105294523Y-161670952D01*
X105389761Y-161766190D01*
X105437380Y-161909047D01*
X105437380Y-162004285D01*
X104770714Y-160718571D02*
X105437380Y-160718571D01*
X104389761Y-160956666D02*
X105104047Y-161194761D01*
X105104047Y-160575714D01*
%TO.C,SW3*%
X97091666Y-156741761D02*
X97234523Y-156789380D01*
X97472619Y-156789380D01*
X97567857Y-156741761D01*
X97615476Y-156694142D01*
X97663095Y-156598904D01*
X97663095Y-156503666D01*
X97615476Y-156408428D01*
X97567857Y-156360809D01*
X97472619Y-156313190D01*
X97282142Y-156265571D01*
X97186904Y-156217952D01*
X97139285Y-156170333D01*
X97091666Y-156075095D01*
X97091666Y-155979857D01*
X97139285Y-155884619D01*
X97186904Y-155837000D01*
X97282142Y-155789380D01*
X97520238Y-155789380D01*
X97663095Y-155837000D01*
X97996428Y-155789380D02*
X98234523Y-156789380D01*
X98425000Y-156075095D01*
X98615476Y-156789380D01*
X98853571Y-155789380D01*
X99139285Y-155789380D02*
X99758333Y-155789380D01*
X99425000Y-156170333D01*
X99567857Y-156170333D01*
X99663095Y-156217952D01*
X99710714Y-156265571D01*
X99758333Y-156360809D01*
X99758333Y-156598904D01*
X99710714Y-156694142D01*
X99663095Y-156741761D01*
X99567857Y-156789380D01*
X99282142Y-156789380D01*
X99186904Y-156741761D01*
X99139285Y-156694142D01*
%TO.C,C4*%
X93575142Y-150026666D02*
X93622761Y-150074285D01*
X93670380Y-150217142D01*
X93670380Y-150312380D01*
X93622761Y-150455238D01*
X93527523Y-150550476D01*
X93432285Y-150598095D01*
X93241809Y-150645714D01*
X93098952Y-150645714D01*
X92908476Y-150598095D01*
X92813238Y-150550476D01*
X92718000Y-150455238D01*
X92670380Y-150312380D01*
X92670380Y-150217142D01*
X92718000Y-150074285D01*
X92765619Y-150026666D01*
X93003714Y-149169523D02*
X93670380Y-149169523D01*
X92622761Y-149407619D02*
X93337047Y-149645714D01*
X93337047Y-149026666D01*
%TO.C,C6*%
X93067142Y-128690666D02*
X93114761Y-128738285D01*
X93162380Y-128881142D01*
X93162380Y-128976380D01*
X93114761Y-129119238D01*
X93019523Y-129214476D01*
X92924285Y-129262095D01*
X92733809Y-129309714D01*
X92590952Y-129309714D01*
X92400476Y-129262095D01*
X92305238Y-129214476D01*
X92210000Y-129119238D01*
X92162380Y-128976380D01*
X92162380Y-128881142D01*
X92210000Y-128738285D01*
X92257619Y-128690666D01*
X92162380Y-127833523D02*
X92162380Y-128024000D01*
X92210000Y-128119238D01*
X92257619Y-128166857D01*
X92400476Y-128262095D01*
X92590952Y-128309714D01*
X92971904Y-128309714D01*
X93067142Y-128262095D01*
X93114761Y-128214476D01*
X93162380Y-128119238D01*
X93162380Y-127928761D01*
X93114761Y-127833523D01*
X93067142Y-127785904D01*
X92971904Y-127738285D01*
X92733809Y-127738285D01*
X92638571Y-127785904D01*
X92590952Y-127833523D01*
X92543333Y-127928761D01*
X92543333Y-128119238D01*
X92590952Y-128214476D01*
X92638571Y-128262095D01*
X92733809Y-128309714D01*
%TO.C,D2*%
X177315904Y-158440380D02*
X177315904Y-157440380D01*
X177554000Y-157440380D01*
X177696857Y-157488000D01*
X177792095Y-157583238D01*
X177839714Y-157678476D01*
X177887333Y-157868952D01*
X177887333Y-158011809D01*
X177839714Y-158202285D01*
X177792095Y-158297523D01*
X177696857Y-158392761D01*
X177554000Y-158440380D01*
X177315904Y-158440380D01*
X178268285Y-157535619D02*
X178315904Y-157488000D01*
X178411142Y-157440380D01*
X178649238Y-157440380D01*
X178744476Y-157488000D01*
X178792095Y-157535619D01*
X178839714Y-157630857D01*
X178839714Y-157726095D01*
X178792095Y-157868952D01*
X178220666Y-158440380D01*
X178839714Y-158440380D01*
%TO.C,H4*%
X188976095Y-161860380D02*
X188976095Y-160860380D01*
X188976095Y-161336571D02*
X189547523Y-161336571D01*
X189547523Y-161860380D02*
X189547523Y-160860380D01*
X190452285Y-161193714D02*
X190452285Y-161860380D01*
X190214190Y-160812761D02*
X189976095Y-161527047D01*
X190595142Y-161527047D01*
%TO.C,H2*%
X188976095Y-79709380D02*
X188976095Y-78709380D01*
X188976095Y-79185571D02*
X189547523Y-79185571D01*
X189547523Y-79709380D02*
X189547523Y-78709380D01*
X189976095Y-78804619D02*
X190023714Y-78757000D01*
X190118952Y-78709380D01*
X190357047Y-78709380D01*
X190452285Y-78757000D01*
X190499904Y-78804619D01*
X190547523Y-78899857D01*
X190547523Y-78995095D01*
X190499904Y-79137952D01*
X189928476Y-79709380D01*
X190547523Y-79709380D01*
%TO.C,H1*%
X81280095Y-79709380D02*
X81280095Y-78709380D01*
X81280095Y-79185571D02*
X81851523Y-79185571D01*
X81851523Y-79709380D02*
X81851523Y-78709380D01*
X82851523Y-79709380D02*
X82280095Y-79709380D01*
X82565809Y-79709380D02*
X82565809Y-78709380D01*
X82470571Y-78852238D01*
X82375333Y-78947476D01*
X82280095Y-78995095D01*
%TO.C,H3*%
X81280095Y-161860380D02*
X81280095Y-160860380D01*
X81280095Y-161336571D02*
X81851523Y-161336571D01*
X81851523Y-161860380D02*
X81851523Y-160860380D01*
X82232476Y-160860380D02*
X82851523Y-160860380D01*
X82518190Y-161241333D01*
X82661047Y-161241333D01*
X82756285Y-161288952D01*
X82803904Y-161336571D01*
X82851523Y-161431809D01*
X82851523Y-161669904D01*
X82803904Y-161765142D01*
X82756285Y-161812761D01*
X82661047Y-161860380D01*
X82375333Y-161860380D01*
X82280095Y-161812761D01*
X82232476Y-161765142D01*
%TO.C,U5*%
X114768380Y-85343904D02*
X115577904Y-85343904D01*
X115673142Y-85296285D01*
X115720761Y-85248666D01*
X115768380Y-85153428D01*
X115768380Y-84962952D01*
X115720761Y-84867714D01*
X115673142Y-84820095D01*
X115577904Y-84772476D01*
X114768380Y-84772476D01*
X114768380Y-83820095D02*
X114768380Y-84296285D01*
X115244571Y-84343904D01*
X115196952Y-84296285D01*
X115149333Y-84201047D01*
X115149333Y-83962952D01*
X115196952Y-83867714D01*
X115244571Y-83820095D01*
X115339809Y-83772476D01*
X115577904Y-83772476D01*
X115673142Y-83820095D01*
X115720761Y-83867714D01*
X115768380Y-83962952D01*
X115768380Y-84201047D01*
X115720761Y-84296285D01*
X115673142Y-84343904D01*
%TO.C,C1*%
X191452142Y-137306666D02*
X191499761Y-137354285D01*
X191547380Y-137497142D01*
X191547380Y-137592380D01*
X191499761Y-137735238D01*
X191404523Y-137830476D01*
X191309285Y-137878095D01*
X191118809Y-137925714D01*
X190975952Y-137925714D01*
X190785476Y-137878095D01*
X190690238Y-137830476D01*
X190595000Y-137735238D01*
X190547380Y-137592380D01*
X190547380Y-137497142D01*
X190595000Y-137354285D01*
X190642619Y-137306666D01*
X191547380Y-136354285D02*
X191547380Y-136925714D01*
X191547380Y-136640000D02*
X190547380Y-136640000D01*
X190690238Y-136735238D01*
X190785476Y-136830476D01*
X190833095Y-136925714D01*
%TO.C,C2*%
X117872142Y-106866666D02*
X117919761Y-106914285D01*
X117967380Y-107057142D01*
X117967380Y-107152380D01*
X117919761Y-107295238D01*
X117824523Y-107390476D01*
X117729285Y-107438095D01*
X117538809Y-107485714D01*
X117395952Y-107485714D01*
X117205476Y-107438095D01*
X117110238Y-107390476D01*
X117015000Y-107295238D01*
X116967380Y-107152380D01*
X116967380Y-107057142D01*
X117015000Y-106914285D01*
X117062619Y-106866666D01*
X117062619Y-106485714D02*
X117015000Y-106438095D01*
X116967380Y-106342857D01*
X116967380Y-106104761D01*
X117015000Y-106009523D01*
X117062619Y-105961904D01*
X117157857Y-105914285D01*
X117253095Y-105914285D01*
X117395952Y-105961904D01*
X117967380Y-106533333D01*
X117967380Y-105914285D01*
%TO.C,C3*%
X191452142Y-115716666D02*
X191499761Y-115764285D01*
X191547380Y-115907142D01*
X191547380Y-116002380D01*
X191499761Y-116145238D01*
X191404523Y-116240476D01*
X191309285Y-116288095D01*
X191118809Y-116335714D01*
X190975952Y-116335714D01*
X190785476Y-116288095D01*
X190690238Y-116240476D01*
X190595000Y-116145238D01*
X190547380Y-116002380D01*
X190547380Y-115907142D01*
X190595000Y-115764285D01*
X190642619Y-115716666D01*
X190547380Y-115383333D02*
X190547380Y-114764285D01*
X190928333Y-115097619D01*
X190928333Y-114954761D01*
X190975952Y-114859523D01*
X191023571Y-114811904D01*
X191118809Y-114764285D01*
X191356904Y-114764285D01*
X191452142Y-114811904D01*
X191499761Y-114859523D01*
X191547380Y-114954761D01*
X191547380Y-115240476D01*
X191499761Y-115335714D01*
X191452142Y-115383333D01*
%TO.C,C5*%
X122952142Y-84006666D02*
X122999761Y-84054285D01*
X123047380Y-84197142D01*
X123047380Y-84292380D01*
X122999761Y-84435238D01*
X122904523Y-84530476D01*
X122809285Y-84578095D01*
X122618809Y-84625714D01*
X122475952Y-84625714D01*
X122285476Y-84578095D01*
X122190238Y-84530476D01*
X122095000Y-84435238D01*
X122047380Y-84292380D01*
X122047380Y-84197142D01*
X122095000Y-84054285D01*
X122142619Y-84006666D01*
X122047380Y-83101904D02*
X122047380Y-83578095D01*
X122523571Y-83625714D01*
X122475952Y-83578095D01*
X122428333Y-83482857D01*
X122428333Y-83244761D01*
X122475952Y-83149523D01*
X122523571Y-83101904D01*
X122618809Y-83054285D01*
X122856904Y-83054285D01*
X122952142Y-83101904D01*
X122999761Y-83149523D01*
X123047380Y-83244761D01*
X123047380Y-83482857D01*
X122999761Y-83578095D01*
X122952142Y-83625714D01*
%TO.C,C7*%
X104497142Y-76620666D02*
X104544761Y-76668285D01*
X104592380Y-76811142D01*
X104592380Y-76906380D01*
X104544761Y-77049238D01*
X104449523Y-77144476D01*
X104354285Y-77192095D01*
X104163809Y-77239714D01*
X104020952Y-77239714D01*
X103830476Y-77192095D01*
X103735238Y-77144476D01*
X103640000Y-77049238D01*
X103592380Y-76906380D01*
X103592380Y-76811142D01*
X103640000Y-76668285D01*
X103687619Y-76620666D01*
X103592380Y-76287333D02*
X103592380Y-75620666D01*
X104592380Y-76049238D01*
%TO.C,C8*%
X182261142Y-105469666D02*
X182308761Y-105517285D01*
X182356380Y-105660142D01*
X182356380Y-105755380D01*
X182308761Y-105898238D01*
X182213523Y-105993476D01*
X182118285Y-106041095D01*
X181927809Y-106088714D01*
X181784952Y-106088714D01*
X181594476Y-106041095D01*
X181499238Y-105993476D01*
X181404000Y-105898238D01*
X181356380Y-105755380D01*
X181356380Y-105660142D01*
X181404000Y-105517285D01*
X181451619Y-105469666D01*
X181784952Y-104898238D02*
X181737333Y-104993476D01*
X181689714Y-105041095D01*
X181594476Y-105088714D01*
X181546857Y-105088714D01*
X181451619Y-105041095D01*
X181404000Y-104993476D01*
X181356380Y-104898238D01*
X181356380Y-104707761D01*
X181404000Y-104612523D01*
X181451619Y-104564904D01*
X181546857Y-104517285D01*
X181594476Y-104517285D01*
X181689714Y-104564904D01*
X181737333Y-104612523D01*
X181784952Y-104707761D01*
X181784952Y-104898238D01*
X181832571Y-104993476D01*
X181880190Y-105041095D01*
X181975428Y-105088714D01*
X182165904Y-105088714D01*
X182261142Y-105041095D01*
X182308761Y-104993476D01*
X182356380Y-104898238D01*
X182356380Y-104707761D01*
X182308761Y-104612523D01*
X182261142Y-104564904D01*
X182165904Y-104517285D01*
X181975428Y-104517285D01*
X181880190Y-104564904D01*
X181832571Y-104612523D01*
X181784952Y-104707761D01*
%TO.C,C9*%
X118693333Y-74577142D02*
X118645714Y-74624761D01*
X118502857Y-74672380D01*
X118407619Y-74672380D01*
X118264761Y-74624761D01*
X118169523Y-74529523D01*
X118121904Y-74434285D01*
X118074285Y-74243809D01*
X118074285Y-74100952D01*
X118121904Y-73910476D01*
X118169523Y-73815238D01*
X118264761Y-73720000D01*
X118407619Y-73672380D01*
X118502857Y-73672380D01*
X118645714Y-73720000D01*
X118693333Y-73767619D01*
X119169523Y-74672380D02*
X119360000Y-74672380D01*
X119455238Y-74624761D01*
X119502857Y-74577142D01*
X119598095Y-74434285D01*
X119645714Y-74243809D01*
X119645714Y-73862857D01*
X119598095Y-73767619D01*
X119550476Y-73720000D01*
X119455238Y-73672380D01*
X119264761Y-73672380D01*
X119169523Y-73720000D01*
X119121904Y-73767619D01*
X119074285Y-73862857D01*
X119074285Y-74100952D01*
X119121904Y-74196190D01*
X119169523Y-74243809D01*
X119264761Y-74291428D01*
X119455238Y-74291428D01*
X119550476Y-74243809D01*
X119598095Y-74196190D01*
X119645714Y-74100952D01*
%TO.C,C10*%
X93448142Y-107703857D02*
X93495761Y-107751476D01*
X93543380Y-107894333D01*
X93543380Y-107989571D01*
X93495761Y-108132428D01*
X93400523Y-108227666D01*
X93305285Y-108275285D01*
X93114809Y-108322904D01*
X92971952Y-108322904D01*
X92781476Y-108275285D01*
X92686238Y-108227666D01*
X92591000Y-108132428D01*
X92543380Y-107989571D01*
X92543380Y-107894333D01*
X92591000Y-107751476D01*
X92638619Y-107703857D01*
X93543380Y-106751476D02*
X93543380Y-107322904D01*
X93543380Y-107037190D02*
X92543380Y-107037190D01*
X92686238Y-107132428D01*
X92781476Y-107227666D01*
X92829095Y-107322904D01*
X92543380Y-106132428D02*
X92543380Y-106037190D01*
X92591000Y-105941952D01*
X92638619Y-105894333D01*
X92733857Y-105846714D01*
X92924333Y-105799095D01*
X93162428Y-105799095D01*
X93352904Y-105846714D01*
X93448142Y-105894333D01*
X93495761Y-105941952D01*
X93543380Y-106037190D01*
X93543380Y-106132428D01*
X93495761Y-106227666D01*
X93448142Y-106275285D01*
X93352904Y-106322904D01*
X93162428Y-106370523D01*
X92924333Y-106370523D01*
X92733857Y-106322904D01*
X92638619Y-106275285D01*
X92591000Y-106227666D01*
X92543380Y-106132428D01*
%TO.C,D1*%
X93876904Y-91892380D02*
X93876904Y-90892380D01*
X94115000Y-90892380D01*
X94257857Y-90940000D01*
X94353095Y-91035238D01*
X94400714Y-91130476D01*
X94448333Y-91320952D01*
X94448333Y-91463809D01*
X94400714Y-91654285D01*
X94353095Y-91749523D01*
X94257857Y-91844761D01*
X94115000Y-91892380D01*
X93876904Y-91892380D01*
X95400714Y-91892380D02*
X94829285Y-91892380D01*
X95115000Y-91892380D02*
X95115000Y-90892380D01*
X95019761Y-91035238D01*
X94924523Y-91130476D01*
X94829285Y-91178095D01*
X99560095Y-92146380D02*
X99560095Y-91146380D01*
X100131523Y-92146380D02*
X99702952Y-91574952D01*
X100131523Y-91146380D02*
X99560095Y-91717809D01*
%TO.C,J2*%
X87682380Y-76338333D02*
X88396666Y-76338333D01*
X88539523Y-76385952D01*
X88634761Y-76481190D01*
X88682380Y-76624047D01*
X88682380Y-76719285D01*
X87777619Y-75909761D02*
X87730000Y-75862142D01*
X87682380Y-75766904D01*
X87682380Y-75528809D01*
X87730000Y-75433571D01*
X87777619Y-75385952D01*
X87872857Y-75338333D01*
X87968095Y-75338333D01*
X88110952Y-75385952D01*
X88682380Y-75957380D01*
X88682380Y-75338333D01*
%TO.C,J3*%
X166203380Y-161877333D02*
X166917666Y-161877333D01*
X167060523Y-161924952D01*
X167155761Y-162020190D01*
X167203380Y-162163047D01*
X167203380Y-162258285D01*
X166203380Y-161496380D02*
X166203380Y-160877333D01*
X166584333Y-161210666D01*
X166584333Y-161067809D01*
X166631952Y-160972571D01*
X166679571Y-160924952D01*
X166774809Y-160877333D01*
X167012904Y-160877333D01*
X167108142Y-160924952D01*
X167155761Y-160972571D01*
X167203380Y-161067809D01*
X167203380Y-161353523D01*
X167155761Y-161448761D01*
X167108142Y-161496380D01*
%TO.C,J5*%
X127297380Y-161623333D02*
X128011666Y-161623333D01*
X128154523Y-161670952D01*
X128249761Y-161766190D01*
X128297380Y-161909047D01*
X128297380Y-162004285D01*
X127297380Y-160670952D02*
X127297380Y-161147142D01*
X127773571Y-161194761D01*
X127725952Y-161147142D01*
X127678333Y-161051904D01*
X127678333Y-160813809D01*
X127725952Y-160718571D01*
X127773571Y-160670952D01*
X127868809Y-160623333D01*
X128106904Y-160623333D01*
X128202142Y-160670952D01*
X128249761Y-160718571D01*
X128297380Y-160813809D01*
X128297380Y-161051904D01*
X128249761Y-161147142D01*
X128202142Y-161194761D01*
%TO.C,J6*%
X147617380Y-161623333D02*
X148331666Y-161623333D01*
X148474523Y-161670952D01*
X148569761Y-161766190D01*
X148617380Y-161909047D01*
X148617380Y-162004285D01*
X147617380Y-160718571D02*
X147617380Y-160909047D01*
X147665000Y-161004285D01*
X147712619Y-161051904D01*
X147855476Y-161147142D01*
X148045952Y-161194761D01*
X148426904Y-161194761D01*
X148522142Y-161147142D01*
X148569761Y-161099523D01*
X148617380Y-161004285D01*
X148617380Y-160813809D01*
X148569761Y-160718571D01*
X148522142Y-160670952D01*
X148426904Y-160623333D01*
X148188809Y-160623333D01*
X148093571Y-160670952D01*
X148045952Y-160718571D01*
X147998333Y-160813809D01*
X147998333Y-161004285D01*
X148045952Y-161099523D01*
X148093571Y-161147142D01*
X148188809Y-161194761D01*
%TO.C,R1*%
X173188333Y-109756380D02*
X172855000Y-109280190D01*
X172616904Y-109756380D02*
X172616904Y-108756380D01*
X172997857Y-108756380D01*
X173093095Y-108804000D01*
X173140714Y-108851619D01*
X173188333Y-108946857D01*
X173188333Y-109089714D01*
X173140714Y-109184952D01*
X173093095Y-109232571D01*
X172997857Y-109280190D01*
X172616904Y-109280190D01*
X174140714Y-109756380D02*
X173569285Y-109756380D01*
X173855000Y-109756380D02*
X173855000Y-108756380D01*
X173759761Y-108899238D01*
X173664523Y-108994476D01*
X173569285Y-109042095D01*
%TO.C,R2*%
X157948333Y-104676380D02*
X157615000Y-104200190D01*
X157376904Y-104676380D02*
X157376904Y-103676380D01*
X157757857Y-103676380D01*
X157853095Y-103724000D01*
X157900714Y-103771619D01*
X157948333Y-103866857D01*
X157948333Y-104009714D01*
X157900714Y-104104952D01*
X157853095Y-104152571D01*
X157757857Y-104200190D01*
X157376904Y-104200190D01*
X158329285Y-103771619D02*
X158376904Y-103724000D01*
X158472142Y-103676380D01*
X158710238Y-103676380D01*
X158805476Y-103724000D01*
X158853095Y-103771619D01*
X158900714Y-103866857D01*
X158900714Y-103962095D01*
X158853095Y-104104952D01*
X158281666Y-104676380D01*
X158900714Y-104676380D01*
%TO.C,R3*%
X173315333Y-104719380D02*
X172982000Y-104243190D01*
X172743904Y-104719380D02*
X172743904Y-103719380D01*
X173124857Y-103719380D01*
X173220095Y-103767000D01*
X173267714Y-103814619D01*
X173315333Y-103909857D01*
X173315333Y-104052714D01*
X173267714Y-104147952D01*
X173220095Y-104195571D01*
X173124857Y-104243190D01*
X172743904Y-104243190D01*
X173648666Y-103719380D02*
X174267714Y-103719380D01*
X173934380Y-104100333D01*
X174077238Y-104100333D01*
X174172476Y-104147952D01*
X174220095Y-104195571D01*
X174267714Y-104290809D01*
X174267714Y-104528904D01*
X174220095Y-104624142D01*
X174172476Y-104671761D01*
X174077238Y-104719380D01*
X173791523Y-104719380D01*
X173696285Y-104671761D01*
X173648666Y-104624142D01*
%TO.C,R4*%
X157948333Y-109756380D02*
X157615000Y-109280190D01*
X157376904Y-109756380D02*
X157376904Y-108756380D01*
X157757857Y-108756380D01*
X157853095Y-108804000D01*
X157900714Y-108851619D01*
X157948333Y-108946857D01*
X157948333Y-109089714D01*
X157900714Y-109184952D01*
X157853095Y-109232571D01*
X157757857Y-109280190D01*
X157376904Y-109280190D01*
X158805476Y-109089714D02*
X158805476Y-109756380D01*
X158567380Y-108708761D02*
X158329285Y-109423047D01*
X158948333Y-109423047D01*
%TO.C,SW1*%
X87653761Y-90868333D02*
X87701380Y-90725476D01*
X87701380Y-90487380D01*
X87653761Y-90392142D01*
X87606142Y-90344523D01*
X87510904Y-90296904D01*
X87415666Y-90296904D01*
X87320428Y-90344523D01*
X87272809Y-90392142D01*
X87225190Y-90487380D01*
X87177571Y-90677857D01*
X87129952Y-90773095D01*
X87082333Y-90820714D01*
X86987095Y-90868333D01*
X86891857Y-90868333D01*
X86796619Y-90820714D01*
X86749000Y-90773095D01*
X86701380Y-90677857D01*
X86701380Y-90439761D01*
X86749000Y-90296904D01*
X86701380Y-89963571D02*
X87701380Y-89725476D01*
X86987095Y-89535000D01*
X87701380Y-89344523D01*
X86701380Y-89106428D01*
X87701380Y-88201666D02*
X87701380Y-88773095D01*
X87701380Y-88487380D02*
X86701380Y-88487380D01*
X86844238Y-88582619D01*
X86939476Y-88677857D01*
X86987095Y-88773095D01*
%TO.C,SW2*%
X127277761Y-78676333D02*
X127325380Y-78533476D01*
X127325380Y-78295380D01*
X127277761Y-78200142D01*
X127230142Y-78152523D01*
X127134904Y-78104904D01*
X127039666Y-78104904D01*
X126944428Y-78152523D01*
X126896809Y-78200142D01*
X126849190Y-78295380D01*
X126801571Y-78485857D01*
X126753952Y-78581095D01*
X126706333Y-78628714D01*
X126611095Y-78676333D01*
X126515857Y-78676333D01*
X126420619Y-78628714D01*
X126373000Y-78581095D01*
X126325380Y-78485857D01*
X126325380Y-78247761D01*
X126373000Y-78104904D01*
X126325380Y-77771571D02*
X127325380Y-77533476D01*
X126611095Y-77343000D01*
X127325380Y-77152523D01*
X126325380Y-76914428D01*
X126420619Y-76581095D02*
X126373000Y-76533476D01*
X126325380Y-76438238D01*
X126325380Y-76200142D01*
X126373000Y-76104904D01*
X126420619Y-76057285D01*
X126515857Y-76009666D01*
X126611095Y-76009666D01*
X126753952Y-76057285D01*
X127325380Y-76628714D01*
X127325380Y-76009666D01*
%TO.C,U2*%
X122217380Y-104901904D02*
X123026904Y-104901904D01*
X123122142Y-104854285D01*
X123169761Y-104806666D01*
X123217380Y-104711428D01*
X123217380Y-104520952D01*
X123169761Y-104425714D01*
X123122142Y-104378095D01*
X123026904Y-104330476D01*
X122217380Y-104330476D01*
X122312619Y-103901904D02*
X122265000Y-103854285D01*
X122217380Y-103759047D01*
X122217380Y-103520952D01*
X122265000Y-103425714D01*
X122312619Y-103378095D01*
X122407857Y-103330476D01*
X122503095Y-103330476D01*
X122645952Y-103378095D01*
X123217380Y-103949523D01*
X123217380Y-103330476D01*
%TO.C,U6*%
X185297380Y-144271904D02*
X186106904Y-144271904D01*
X186202142Y-144224285D01*
X186249761Y-144176666D01*
X186297380Y-144081428D01*
X186297380Y-143890952D01*
X186249761Y-143795714D01*
X186202142Y-143748095D01*
X186106904Y-143700476D01*
X185297380Y-143700476D01*
X185297380Y-142795714D02*
X185297380Y-142986190D01*
X185345000Y-143081428D01*
X185392619Y-143129047D01*
X185535476Y-143224285D01*
X185725952Y-143271904D01*
X186106904Y-143271904D01*
X186202142Y-143224285D01*
X186249761Y-143176666D01*
X186297380Y-143081428D01*
X186297380Y-142890952D01*
X186249761Y-142795714D01*
X186202142Y-142748095D01*
X186106904Y-142700476D01*
X185868809Y-142700476D01*
X185773571Y-142748095D01*
X185725952Y-142795714D01*
X185678333Y-142890952D01*
X185678333Y-143081428D01*
X185725952Y-143176666D01*
X185773571Y-143224285D01*
X185868809Y-143271904D01*
%TO.C,X1*%
X133175476Y-94702380D02*
X133842142Y-95702380D01*
X133842142Y-94702380D02*
X133175476Y-95702380D01*
X134746904Y-95702380D02*
X134175476Y-95702380D01*
X134461190Y-95702380D02*
X134461190Y-94702380D01*
X134365952Y-94845238D01*
X134270714Y-94940476D01*
X134175476Y-94988095D01*
%TD*%
%LPC*%
D14*
%TO.C,U4*%
X95885000Y-107950000D03*
D15*
X111125000Y-100330000D03*
X98425000Y-107950000D03*
X108585000Y-100330000D03*
X100965000Y-107950000D03*
X106045000Y-100330000D03*
X103505000Y-107950000D03*
X103505000Y-100330000D03*
X106045000Y-107950000D03*
X100965000Y-100330000D03*
X108585000Y-107950000D03*
X98425000Y-100330000D03*
X111125000Y-107950000D03*
X95885000Y-100330000D03*
%TD*%
%TO.C,U9*%
X184404000Y-93980000D03*
X151384000Y-78740000D03*
X181864000Y-93980000D03*
X153924000Y-78740000D03*
X179324000Y-93980000D03*
X156464000Y-78740000D03*
X176784000Y-93980000D03*
X159004000Y-78740000D03*
X174244000Y-93980000D03*
X161544000Y-78740000D03*
X171704000Y-93980000D03*
X164084000Y-78740000D03*
X169164000Y-93980000D03*
X166624000Y-78740000D03*
X166624000Y-93980000D03*
X169164000Y-78740000D03*
X164084000Y-93980000D03*
X171704000Y-78740000D03*
X161544000Y-93980000D03*
X174244000Y-78740000D03*
X159004000Y-93980000D03*
X176784000Y-78740000D03*
X156464000Y-93980000D03*
X179324000Y-78740000D03*
X153924000Y-93980000D03*
X181864000Y-78740000D03*
X151384000Y-93980000D03*
D14*
X184404000Y-78740000D03*
%TD*%
D16*
%TO.C,U7*%
X123190000Y-91440000D03*
X124460000Y-90170000D03*
D17*
X124460000Y-92710000D03*
%TD*%
D15*
%TO.C,U3*%
X95885000Y-135890000D03*
X144145000Y-151130000D03*
X98425000Y-135890000D03*
X141605000Y-151130000D03*
X100965000Y-135890000D03*
X139065000Y-151130000D03*
X103505000Y-135890000D03*
X136525000Y-151130000D03*
X106045000Y-135890000D03*
X133985000Y-151130000D03*
X108585000Y-135890000D03*
X131445000Y-151130000D03*
X111125000Y-135890000D03*
X128905000Y-151130000D03*
X113665000Y-135890000D03*
X126365000Y-151130000D03*
X116205000Y-135890000D03*
X123825000Y-151130000D03*
X118745000Y-135890000D03*
X121285000Y-151130000D03*
X121285000Y-135890000D03*
X118745000Y-151130000D03*
X123825000Y-135890000D03*
X116205000Y-151130000D03*
X126365000Y-135890000D03*
X113665000Y-151130000D03*
X128905000Y-135890000D03*
X111125000Y-151130000D03*
X131445000Y-135890000D03*
X108585000Y-151130000D03*
X133985000Y-135890000D03*
X106045000Y-151130000D03*
X136525000Y-135890000D03*
X103505000Y-151130000D03*
X139065000Y-135890000D03*
X100965000Y-151130000D03*
X141605000Y-135890000D03*
X98425000Y-151130000D03*
X144145000Y-135890000D03*
D14*
X95885000Y-151130000D03*
%TD*%
D18*
%TO.C,J1*%
X85725000Y-151130000D03*
D19*
X83185000Y-151130000D03*
X85725000Y-148590000D03*
X83185000Y-148590000D03*
X85725000Y-146050000D03*
X83185000Y-146050000D03*
X85725000Y-143510000D03*
X83185000Y-143510000D03*
X85725000Y-140970000D03*
X83185000Y-140970000D03*
X85725000Y-138430000D03*
X83185000Y-138430000D03*
X85725000Y-135890000D03*
X83185000Y-135890000D03*
X85725000Y-133350000D03*
X83185000Y-133350000D03*
X85725000Y-130810000D03*
X83185000Y-130810000D03*
X85725000Y-128270000D03*
X83185000Y-128270000D03*
X85725000Y-125730000D03*
X83185000Y-125730000D03*
X85725000Y-123190000D03*
X83185000Y-123190000D03*
X85725000Y-120650000D03*
X83185000Y-120650000D03*
X85725000Y-118110000D03*
X83185000Y-118110000D03*
X85725000Y-115570000D03*
X83185000Y-115570000D03*
X85725000Y-113030000D03*
X83185000Y-113030000D03*
X85725000Y-110490000D03*
X83185000Y-110490000D03*
X85725000Y-107950000D03*
X83185000Y-107950000D03*
X85725000Y-105410000D03*
X83185000Y-105410000D03*
X85725000Y-102870000D03*
X83185000Y-102870000D03*
%TD*%
D14*
%TO.C,U8*%
X183515000Y-114300000D03*
D15*
X150495000Y-129540000D03*
X180975000Y-114300000D03*
X153035000Y-129540000D03*
X178435000Y-114300000D03*
X155575000Y-129540000D03*
X175895000Y-114300000D03*
X158115000Y-129540000D03*
X173355000Y-114300000D03*
X160655000Y-129540000D03*
X170815000Y-114300000D03*
X163195000Y-129540000D03*
X168275000Y-114300000D03*
X165735000Y-129540000D03*
X165735000Y-114300000D03*
X168275000Y-129540000D03*
X163195000Y-114300000D03*
X170815000Y-129540000D03*
X160655000Y-114300000D03*
X173355000Y-129540000D03*
X158115000Y-114300000D03*
X175895000Y-129540000D03*
X155575000Y-114300000D03*
X178435000Y-129540000D03*
X153035000Y-114300000D03*
X180975000Y-129540000D03*
X150495000Y-114300000D03*
X183515000Y-129540000D03*
%TD*%
D14*
%TO.C,U1*%
X95885000Y-129540000D03*
D15*
X144145000Y-114300000D03*
X98425000Y-129540000D03*
X141605000Y-114300000D03*
X100965000Y-129540000D03*
X139065000Y-114300000D03*
X103505000Y-129540000D03*
X136525000Y-114300000D03*
X106045000Y-129540000D03*
X133985000Y-114300000D03*
X108585000Y-129540000D03*
X131445000Y-114300000D03*
X111125000Y-129540000D03*
X128905000Y-114300000D03*
X113665000Y-129540000D03*
X126365000Y-114300000D03*
X116205000Y-129540000D03*
X123825000Y-114300000D03*
X118745000Y-129540000D03*
X121285000Y-114300000D03*
X121285000Y-129540000D03*
X118745000Y-114300000D03*
X123825000Y-129540000D03*
X116205000Y-114300000D03*
X126365000Y-129540000D03*
X113665000Y-114300000D03*
X128905000Y-129540000D03*
X111125000Y-114300000D03*
X131445000Y-129540000D03*
X108585000Y-114300000D03*
X133985000Y-129540000D03*
X106045000Y-114300000D03*
X136525000Y-129540000D03*
X103505000Y-114300000D03*
X139065000Y-129540000D03*
X100965000Y-114300000D03*
X141605000Y-129540000D03*
X98425000Y-114300000D03*
X144145000Y-129540000D03*
X95885000Y-114300000D03*
%TD*%
D19*
%TO.C,J4*%
X120015000Y-160020000D03*
X120015000Y-162560000D03*
X117475000Y-160020000D03*
X117475000Y-162560000D03*
X114935000Y-160020000D03*
X114935000Y-162560000D03*
X112395000Y-160020000D03*
X112395000Y-162560000D03*
X109855000Y-160020000D03*
X109855000Y-162560000D03*
X107315000Y-160020000D03*
D18*
X107315000Y-162560000D03*
%TD*%
D20*
%TO.C,SW3*%
X102235000Y-158750000D03*
X102235000Y-163830000D03*
X94615000Y-158750000D03*
X94615000Y-163830000D03*
%TD*%
D21*
%TO.C,C4*%
X90805000Y-151130000D03*
X90805000Y-148630000D03*
%TD*%
%TO.C,C6*%
X90297000Y-129921000D03*
X90297000Y-127421000D03*
%TD*%
D22*
%TO.C,D2*%
X178054000Y-160274000D03*
D23*
X178054000Y-162814000D03*
%TD*%
D24*
%TO.C,H4*%
X191435056Y-163910944D03*
X189738000Y-163208000D03*
X188040944Y-163910944D03*
X187338000Y-165608000D03*
X188040944Y-167305056D03*
X189738000Y-168008000D03*
X191435056Y-167305056D03*
X192138000Y-165608000D03*
D25*
X189738000Y-165608000D03*
%TD*%
D24*
%TO.C,H2*%
X188040944Y-76754056D03*
X189738000Y-77457000D03*
X191435056Y-76754056D03*
X192138000Y-75057000D03*
X191435056Y-73359944D03*
X189738000Y-72657000D03*
X188040944Y-73359944D03*
X187338000Y-75057000D03*
D25*
X189738000Y-75057000D03*
%TD*%
D24*
%TO.C,H1*%
X80344944Y-76754056D03*
X82042000Y-77457000D03*
X83739056Y-76754056D03*
X84442000Y-75057000D03*
X83739056Y-73359944D03*
X82042000Y-72657000D03*
X80344944Y-73359944D03*
X79642000Y-75057000D03*
D25*
X82042000Y-75057000D03*
%TD*%
D24*
%TO.C,H3*%
X83739056Y-163910944D03*
X82042000Y-163208000D03*
X80344944Y-163910944D03*
X79642000Y-165608000D03*
X80344944Y-167305056D03*
X82042000Y-168008000D03*
X83739056Y-167305056D03*
X84442000Y-165608000D03*
D25*
X82042000Y-165608000D03*
%TD*%
D26*
%TO.C,U5*%
X106680000Y-75565000D03*
X109220000Y-75565000D03*
D27*
X111760000Y-75565000D03*
D28*
X109220000Y-92225000D03*
%TD*%
D21*
%TO.C,C1*%
X188595000Y-135890000D03*
X188595000Y-138390000D03*
%TD*%
%TO.C,C2*%
X120015000Y-105450000D03*
X120015000Y-107950000D03*
%TD*%
%TO.C,C3*%
X188595000Y-116800000D03*
X188595000Y-114300000D03*
%TD*%
%TO.C,C5*%
X125095000Y-82590000D03*
X125095000Y-85090000D03*
%TD*%
%TO.C,C7*%
X101600000Y-75605000D03*
X101600000Y-78105000D03*
%TD*%
%TO.C,C8*%
X184404000Y-104053000D03*
X184404000Y-106553000D03*
%TD*%
D29*
%TO.C,C9*%
X118110000Y-77470000D03*
X119610000Y-77470000D03*
%TD*%
D21*
%TO.C,C10*%
X90805000Y-107950000D03*
X90805000Y-105450000D03*
%TD*%
D30*
%TO.C,D1*%
X99695000Y-93980000D03*
D31*
X89535000Y-93980000D03*
%TD*%
D32*
%TO.C,J2*%
X93980000Y-84455000D03*
G36*
G01*
X92980000Y-76955000D02*
X94980000Y-76955000D01*
G75*
G02*
X95730000Y-77705000I0J-750000D01*
G01*
X95730000Y-79205000D01*
G75*
G02*
X94980000Y-79955000I-750000J0D01*
G01*
X92980000Y-79955000D01*
G75*
G02*
X92230000Y-79205000I0J750000D01*
G01*
X92230000Y-77705000D01*
G75*
G02*
X92980000Y-76955000I750000J0D01*
G01*
G37*
G36*
G01*
X88405000Y-79705000D02*
X90155000Y-79705000D01*
G75*
G02*
X91030000Y-80580000I0J-875000D01*
G01*
X91030000Y-82330000D01*
G75*
G02*
X90155000Y-83205000I-875000J0D01*
G01*
X88405000Y-83205000D01*
G75*
G02*
X87530000Y-82330000I0J875000D01*
G01*
X87530000Y-80580000D01*
G75*
G02*
X88405000Y-79705000I875000J0D01*
G01*
G37*
%TD*%
D18*
%TO.C,J3*%
X171450000Y-162814000D03*
D19*
X168910000Y-162814000D03*
X171450000Y-160274000D03*
X168910000Y-160274000D03*
%TD*%
D18*
%TO.C,J5*%
X130175000Y-162560000D03*
D19*
X130175000Y-160020000D03*
X132715000Y-162560000D03*
X132715000Y-160020000D03*
X135255000Y-162560000D03*
X135255000Y-160020000D03*
X137795000Y-162560000D03*
X137795000Y-160020000D03*
X140335000Y-162560000D03*
X140335000Y-160020000D03*
X142875000Y-162560000D03*
X142875000Y-160020000D03*
%TD*%
D18*
%TO.C,J6*%
X150495000Y-161290000D03*
D19*
X153035000Y-161290000D03*
X155575000Y-161290000D03*
X158115000Y-161290000D03*
X160655000Y-161290000D03*
X163195000Y-161290000D03*
%TD*%
D15*
%TO.C,R1*%
X168275000Y-106934000D03*
D21*
X178435000Y-106934000D03*
%TD*%
%TO.C,R2*%
X163195000Y-101854000D03*
D15*
X153035000Y-101854000D03*
%TD*%
%TO.C,R3*%
X178435000Y-101854000D03*
D21*
X168275000Y-101854000D03*
%TD*%
%TO.C,R4*%
X163195000Y-106934000D03*
D15*
X153035000Y-106934000D03*
%TD*%
D14*
%TO.C,SW1*%
X83820000Y-92035000D03*
D21*
X83820000Y-89535000D03*
X83820000Y-87035000D03*
%TD*%
%TO.C,SW2*%
X131525000Y-77470000D03*
X134025000Y-77470000D03*
D14*
X136525000Y-77470000D03*
%TD*%
%TO.C,U2*%
X125095000Y-107950000D03*
D15*
X142875000Y-100330000D03*
X127635000Y-107950000D03*
X140335000Y-100330000D03*
X130175000Y-107950000D03*
X137795000Y-100330000D03*
X132715000Y-107950000D03*
X135255000Y-100330000D03*
X135255000Y-107950000D03*
X132715000Y-100330000D03*
X137795000Y-107950000D03*
X130175000Y-100330000D03*
X140335000Y-107950000D03*
X127635000Y-100330000D03*
X142875000Y-107950000D03*
X125095000Y-100330000D03*
%TD*%
D14*
%TO.C,U6*%
X183515000Y-135890000D03*
D15*
X150495000Y-151130000D03*
X180975000Y-135890000D03*
X153035000Y-151130000D03*
X178435000Y-135890000D03*
X155575000Y-151130000D03*
X175895000Y-135890000D03*
X158115000Y-151130000D03*
X173355000Y-135890000D03*
X160655000Y-151130000D03*
X170815000Y-135890000D03*
X163195000Y-151130000D03*
X168275000Y-135890000D03*
X165735000Y-151130000D03*
X165735000Y-135890000D03*
X168275000Y-151130000D03*
X163195000Y-135890000D03*
X170815000Y-151130000D03*
X160655000Y-135890000D03*
X173355000Y-151130000D03*
X158115000Y-135890000D03*
X175895000Y-151130000D03*
X155575000Y-135890000D03*
X178435000Y-151130000D03*
X153035000Y-135890000D03*
X180975000Y-151130000D03*
X150495000Y-135890000D03*
X183515000Y-151130000D03*
%TD*%
D14*
%TO.C,X1*%
X130175000Y-91440000D03*
D21*
X130175000Y-83820000D03*
X137795000Y-83820000D03*
X137795000Y-91440000D03*
%TD*%
M02*
